<?xml version="1.0" standalone="no"?><!DOCTYPE svg PUBLIC "-//W3C//DTD SVG 1.1//EN" "http://www.w3.org/Graphics/SVG/1.1/DTD/svg11.dtd"><svg t="1694523499031" class="icon" viewBox="0 0 1025 1024" version="1.1" xmlns="http://www.w3.org/2000/svg" p-id="4136" xmlns:xlink="http://www.w3.org/1999/xlink" width="200.1953125" height="200"><path d="M512 0C229.473 0 0 229.473 0 512c0 283.166 229.473 512 512 512 283.166 0 512-229.473 512-512 0.64-282.527-228.834-512-512-512zM72.869 512c0-45.383 7.031-89.488 19.815-131.036 1.918 3.835 3.196 7.67 4.475 8.949 20.454 18.536 24.29 11.505 24.29 24.29 0 88.209 12.144 169.388 97.797 170.666 2.557 0 8.31 70.312 48.58 72.869 30.68 2.557 88.209-12.784 97.797 0 2.557 3.835 0 42.187 0 97.798 0 54.97 122.087 122.087 122.087 122.087-0.639 24.929 10.228 51.136 17.259 72.869C265.908 947.296 72.869 752.34 72.869 512z m544.6 426.347c7.03-37.074 19.175-90.766 41.547-108.664 53.693-43.466 16.62-95.241-24.29-97.798-26.207-1.278-19.815-46.662-48.579-48.58-28.764-2.556-65.837-40.908-97.797-72.868-19.816-19.815-39.63-24.29-72.87-24.29-30.042 0-72.868 19.176-72.868 0 0-62.002-23.012-79.9-24.29-97.797-1.278-14.063 8.31-25.568 48.58-24.29 22.371 0.64 2.556-48.58 24.289-48.58s87.57 12.785 97.798 24.29c14.062 16.62 43.465 149.573 72.869 24.29 6.392-26.847-12.145-56.889 0-72.869 29.403-39.63 72.869-24.29 72.869-48.58 0-19.175-4.475-60.723-24.29-72.868-9.588-5.753-33.238-3.196-48.58 0-57.527 12.784-115.056 1.278-97.797-24.29 18.537-26.207 92.045-21.093 97.798-72.869 3.196-27.485 19.176-65.198 23.65-91.405 155.326 25.568 283.166 132.953 338.137 276.774-9.588 5.113-17.897 8.948-19.815 9.588-145.098 108.025-98.437 200.07-48.58 244.174 25.569 22.372 31.961 48.58 48.58 72.87 0.64 0 5.114 4.474 10.227 8.948-56.25 120.17-164.913 212.215-296.589 244.814z" fill="" p-id="4137"></path></svg>