<svg t="1704879587898" class="icon" viewBox="0 0 1024 1024" version="1.1" xmlns="http://www.w3.org/2000/svg" p-id="32877" width="200" height="200"><path d="M298.666667 469.333333h341.333333a85.333333 85.333333 0 0 0 85.333333-85.333333V341.333333h85.333334v42.666667a170.666667 170.666667 0 0 1-170.666667 170.666667H298.666667v85.333333a42.666667 42.666667 0 0 1-85.333334 0V384a42.666667 42.666667 0 1 1 85.333334 0v85.333333z" p-id="32878"></path><path d="M256 896a85.333333 85.333333 0 1 0 0-170.666667 85.333333 85.333333 0 0 0 0 170.666667z m0 85.333333a170.666667 170.666667 0 1 1 0-341.333333 170.666667 170.666667 0 0 1 0 341.333333zM768 298.666667a85.333333 85.333333 0 1 0 0-170.666667 85.333333 85.333333 0 0 0 0 170.666667z m0 85.333333a170.666667 170.666667 0 1 1 0-341.333333 170.666667 170.666667 0 0 1 0 341.333333zM256 298.666667a85.333333 85.333333 0 1 0 0-170.666667 85.333333 85.333333 0 0 0 0 170.666667z m0 85.333333a170.666667 170.666667 0 1 1 0-341.333333 170.666667 170.666667 0 0 1 0 341.333333z" p-id="32879"></path></svg>