<?xml version="1.0" standalone="no"?><!DOCTYPE svg PUBLIC "-//W3C//DTD SVG 1.1//EN" "http://www.w3.org/Graphics/SVG/1.1/DTD/svg11.dtd"><svg t="1694523636832" class="icon" viewBox="0 0 1024 1024" version="1.1" xmlns="http://www.w3.org/2000/svg" p-id="13270" xmlns:xlink="http://www.w3.org/1999/xlink" width="200" height="200"><path d="M512 96c-111.118 0-215.584 43.272-294.156 121.844C139.272 296.416 96 400.882 96 512c0 111.118 43.272 215.584 121.844 294.156C296.416 884.728 400.882 928 512 928c111.118 0 215.584-43.272 294.156-121.844S928 623.118 928 512c0-111.118-43.272-215.584-121.844-294.156S623.118 96 512 96zM512 0 512 0c282.77 0 512 229.23 512 512S794.77 1024 512 1024 0 794.77 0 512 229.23 0 512 0z" p-id="13271"></path><path d="M308.852 396.5c1.33-48.036 7.004-84.564 17.012-109.582 10.008-25.018 26.02-47.364 48.038-67.05 22.016-19.67 46.536-34.182 73.556-43.534 27.02-9.334 55.542-14.01 85.564-14.01 60.702 0 111.24 17.858 151.614 53.54 40.36 35.7 60.546 83.236 60.546 142.608 0 26.692-5.176 50.882-15.512 72.556-10.352 21.688-32.368 48.708-66.05 81.06-33.696 32.37-56.042 55.386-67.048 69.052-11.01 13.684-19.36 30.024-25.02 49.04-5.676 19.014-7.506 18.82-7.506 28.82l-88.066 0c0-12.672 3.002-19.47 9.006-41.832 6.004-22.344 15.012-41.86 27.02-58.542 12.01-16.67 33.682-41.19 65.048-73.556 31.354-32.352 51.542-55.87 60.546-70.554 9.008-14.666 13.51-36.526 13.51-65.548 0-29.022-10.35-54.698-31.024-77.058-20.686-22.344-50.708-33.524-90.066-33.524-88.74 0-133.102 52.71-133.102 158.118L308.852 396.504zM571.048 851.846l-97.072 0 0-102.076 97.072 0L571.048 851.846z" p-id="13272"></path></svg>