<svg t="1704907292570" class="icon" viewBox="0 0 1024 1024" version="1.1" xmlns="http://www.w3.org/2000/svg" p-id="13413" width="200" height="200"><path d="M508.586667 989.866667c-81.92 0-146.773333-64.853333-146.773334-146.773334V648.533333c-105.813333-58.026667-174.08-167.253333-174.08-286.72C187.733333 180.906667 334.506667 34.133333 515.413333 34.133333s327.68 146.773333 327.68 327.68c0 126.293333-71.68 238.933333-184.32 293.546667v187.733333c-3.413333 81.92-68.266667 146.773333-150.186666 146.773334z m6.826666-887.466667c-143.36 0-259.413333 116.053333-259.413333 259.413333 0 102.4 61.44 194.56 153.6 235.52 13.653333 6.826667 20.48 17.066667 20.48 30.72v215.04c0 44.373333 34.133333 78.506667 78.506667 78.506667 44.373333 0 78.506667-34.133333 78.506666-78.506667v-211.626666c0-13.653333 6.826667-27.306667 20.48-30.72 98.986667-40.96 163.84-133.12 163.84-238.933334 0-143.36-116.053333-259.413333-256-259.413333z" fill="#333333" p-id="13414"></path><path d="M607.573333 727.04h-204.8c-10.24 0-17.066667-6.826667-17.066666-17.066667s6.826667-17.066667 17.066666-17.066666h204.8c10.24 0 17.066667 6.826667 17.066667 17.066666s-6.826667 17.066667-17.066667 17.066667zM607.573333 826.026667h-204.8c-10.24 0-17.066667-6.826667-17.066666-17.066667s6.826667-17.066667 17.066666-17.066667h204.8c10.24 0 17.066667 6.826667 17.066667 17.066667s-6.826667 17.066667-17.066667 17.066667z" fill="#333333" p-id="13415"></path><path d="M532.48 450.56h-44.373333v-17.066667c0-34.133333 13.653333-58.026667 44.373333-78.506666 30.72-23.893333 47.786667-44.373333 44.373333-68.266667-3.413333-30.72-20.48-47.786667-54.613333-51.2-40.96 0-64.853333 23.893333-75.093333 68.266667l-47.786667-10.24c13.653333-68.266667 58.026667-102.4 129.706667-98.986667 61.44 3.413333 95.573333 34.133333 102.4 88.746667 3.413333 37.546667-17.066667 68.266667-61.44 95.573333-27.306667 17.066667-37.546667 37.546667-37.546667 61.44v10.24z m6.826667 95.573333h-54.613334v-54.613333h54.613334V546.133333z" fill="#FFAF00" p-id="13416"></path></svg>