<?xml version="1.0" standalone="no"?><!DOCTYPE svg PUBLIC "-//W3C//DTD SVG 1.1//EN" "http://www.w3.org/Graphics/SVG/1.1/DTD/svg11.dtd"><svg t="1694523600498" class="icon" viewBox="0 0 1024 1024" version="1.1" xmlns="http://www.w3.org/2000/svg" p-id="12246" xmlns:xlink="http://www.w3.org/1999/xlink" width="200" height="200"><path d="M512 42.67C253.21 42.67 42.67 253.21 42.67 512S253.21 981.33 512 981.33 981.33 770.79 981.33 512 770.79 42.67 512 42.67zM512 896c-211.73 0-384-172.27-384-384s172.27-384 384-384 384 172.27 384 384-172.27 384-384 384z" fill="#2c2c2c" p-id="12247"></path><path d="M512 736c-101.27 0-190.29-68.23-216.5-165.94-6.1-22.73-29.4-36.31-52.27-30.15-22.75 6.1-36.25 29.5-30.15 52.27C249.27 727.1 372.19 821.33 512 821.33c23.56 0 42.67-19.1 42.67-42.67S535.56 736 512 736zM810.92 431.81C774.73 296.9 651.81 202.67 512 202.67c-23.56 0-42.67 19.1-42.67 42.67S488.44 288 512 288c101.27 0 190.29 68.23 216.5 165.94 5.1 19.04 22.35 31.62 41.19 31.62 3.65 0 7.38-0.48 11.08-1.48 22.75-6.1 36.25-29.5 30.15-52.27zM512 362.67c-82.33 0-149.33 67-149.33 149.33s67 149.33 149.33 149.33 149.33-67 149.33-149.33-67-149.33-149.33-149.33zM512 576c-35.29 0-64-28.71-64-64s28.71-64 64-64 64 28.71 64 64-28.71 64-64 64z" fill="#2c2c2c" p-id="12248"></path></svg>