<svg version="1.1" xmlns="http://www.w3.org/2000/svg" xmlns:xlink="http://www.w3.org/1999/xlink" x="0px" y="0px"
	 viewBox="0 0 328 328" enable-background="new 0 0 328 328" xml:space="preserve">
<g>
	<g>
		<path d="M68.9,300.8c-8.9,0-14.6-3.5-17.9-6.9c-7-7-8.9-18-5.8-32.7c4.5-20.8,19.6-50.7,42.6-84.3c24.4-35.6,54.3-70.6,84.3-98.6
			c21.9-20.4,53.1-45.8,77.8-50.8c13.8-2.8,21.8,1.7,26,6c7,7,8.9,18,5.8,32.7l0,0c-4.5,20.8-19.6,50.7-42.6,84.3
			c-24.4,35.6-54.3,70.6-84.3,98.6c-21.9,20.4-53.1,45.8-77.8,50.8C74.1,300.5,71.4,300.8,68.9,300.8z M67.3,277.6
			c0.5,0.1,2,0.4,5.1-0.3c14.7-3,39.6-19.8,66.6-45.1c28.8-26.9,57.6-60.5,81-94.8c21.1-30.7,35.3-58.5,39.1-76.1l0,0
			c1.7-7.8,0.7-10.8,0.4-11.6c-0.5-0.1-2-0.4-5.1,0.3c-14.7,3-39.6,19.8-66.6,45.1c-28.8,26.9-57.6,60.5-81,94.8
			c-21.1,30.7-35.3,58.5-39.1,76.1C66.1,273.8,67,276.9,67.3,277.6z"/>
	</g>
	<path stroke-width="5" d="M155,183.7c4.7-3.6,9.9-8.9,14.5-14.8c4.6-5.8,9.1-12.6,11.7-18.7
		c2.6-6.1,2.4-9.4,0.7-10.3c-1.8-1-5.2,0.3-9.9,3.9c-4.7,3.6-9.9,8.9-14.5,14.8c-4.6,5.8-9.1,12.6-11.7,18.7
		c-2.6,6.1-2.4,9.4-0.7,10.3S150.3,187.2,155,183.7z"/>
	<path fill="#FFFFFF" stroke-width="20" d="M296.9,37.3c1.7,0.6,3.3,1.1,5,1.7c-11.2,5.7-25,12-36.8,15.3
		c-25,7-62.4,12.1-99.3,1.5C125.9,44.2,87,40.6,55.5,45.8c8.8-5.2,18-10.2,26.8-14.3C116.7,15.2,164,9.2,202.4,12.2l0,0
		c17.6,1.4,39.4,7.2,61.5,14.1c11,3.5,21.8,7.2,32,10.6L296.9,37.3z"/>
	<path fill="#FFFFFF" stroke-width="20" d="M271.5,281.2c-8.8,5.2-18,10.2-26.8,14.3
		c-34.4,16.2-81.7,22.3-120.1,19.3l0,0c-17.6-1.4-39.4-7.2-61.5-14.1c-11-3.5-21.8-7.2-32-10.6c-0.4-0.1-0.7-0.2-1.1-0.4
		c-1.7-0.6-3.3-1.1-5-1.7c11.2-5.7,25-12,36.8-15.3c25-7,62.4-12.1,99.3-1.5l2.8-9.6l-2.8,9.6C201.1,282.7,240,286.3,271.5,281.2z"
		/>
</g>
</svg>
