<svg width="328" height="328" viewBox="0 0 328 328" fill="none" xmlns="http://www.w3.org/2000/svg">
<g clip-path="url(#clip0_1_2)">
<rect width="328" height="328" fill="white"/>
<path d="M270.44 63.7755C266.454 82.351 252.446 110.64 229.594 143.985C207.019 176.926 177.621 212.004 146.951 240.654C116.28 269.304 90.9707 285.33 74.7577 288.623C58.3456 291.956 52.4993 282.213 56.4854 263.637C60.4714 245.062 74.479 216.773 97.3312 183.428C119.906 150.487 149.304 115.409 179.974 86.7589C210.645 58.1086 235.954 42.0828 252.167 38.79C268.58 35.4568 274.426 45.2 270.44 63.7755Z" fill="white" stroke="black" stroke-width="23"/>
<path d="M143.455 210.683C167.878 192.059 196.633 155.939 207.68 130.006C218.728 104.073 207.885 98.1473 183.461 116.771C159.038 135.395 130.284 171.516 119.236 197.449C108.188 223.382 119.032 229.307 143.455 210.683Z" fill="white"/>
<path d="M144.75 207.642C167.592 190.224 194.484 156.443 204.816 132.19C215.148 107.936 205.007 102.395 182.166 119.812C159.325 137.23 132.432 171.011 122.1 195.265C111.768 219.518 121.909 225.059 144.75 207.642Z" fill="white"/>
<path d="M154.963 183.669C159.656 180.091 164.845 174.774 169.512 168.912C174.142 163.095 178.61 156.276 181.199 150.199C183.787 144.123 183.626 140.833 181.88 139.879C180.12 138.917 176.647 140.206 171.954 143.785C167.26 147.364 162.071 152.681 157.405 158.542C152.774 164.359 148.306 171.178 145.718 177.255C143.129 183.332 143.29 186.621 145.037 187.575C146.796 188.537 150.269 187.248 154.963 183.669Z" fill="black" stroke="black" stroke-width="5"/>
<path d="M296.937 37.3087C298.617 37.8832 300.281 38.4523 301.926 39.0136C290.688 44.7402 276.929 50.9982 265.115 54.2889C240.083 61.2617 202.669 66.424 165.811 55.7779C125.871 44.2417 86.9508 40.6003 55.4568 45.761C64.2908 40.5925 73.4746 35.5977 82.2868 31.4441C116.716 15.2163 163.981 9.15181 202.391 12.1605L202.395 12.1608C219.954 13.5303 241.823 19.326 263.909 26.3067C274.865 29.7695 285.684 33.4602 295.875 36.9455L296.937 37.3087Z" fill="white" stroke="black" stroke-width="20"/>
<path d="M271.468 281.173C262.634 286.342 253.451 291.336 244.638 295.49C210.21 311.718 162.944 317.782 124.534 314.773L124.531 314.773C106.971 313.404 85.1023 307.608 63.0162 300.627C52.0603 297.164 41.2415 293.474 31.0499 289.989C30.6954 289.867 30.3416 289.746 29.9885 289.626C28.3085 289.051 26.6442 288.482 24.9992 287.92C36.2377 282.194 49.9967 275.936 61.8102 272.645C86.8427 265.672 124.256 260.51 161.115 271.156L163.89 261.549L161.115 271.156C201.054 282.692 239.974 286.334 271.468 281.173Z" fill="white" stroke="black" stroke-width="20"/>
</g>
<defs>
<clipPath id="clip0_1_2">
<rect width="328" height="328" fill="white"/>
</clipPath>
</defs>
</svg>
