<svg version="1.1" xmlns="http://www.w3.org/2000/svg" xmlns:xlink="http://www.w3.org/1999/xlink" x="0px" y="0px"
	 viewBox="0 0 24 24" enable-background="new 0 0 24 24" xml:space="preserve">
<g>
	<path d="M17,13H9c-0.6,0-1-0.4-1-1s0.4-1,1-1h8c0.6,0,1,0.4,1,1S17.6,13,17,13z"/>
</g>
<g>
	<path d="M12,16c-0.3,0-0.5-0.1-0.7-0.3l-3-3c-0.4-0.4-0.4-1,0-1.4l3-3c0.4-0.4,1-0.4,1.4,0c0.4,0.4,0.4,1,0,1.4
		L10.4,12l2.3,2.3c0.4,0.4,0.4,1,0,1.4C12.5,15.9,12.3,16,12,16z"/>
</g>
<g>
	<path d="M19,15c-1.7,0-3-1.3-3-3c0-1.7,1.3-3,3-3s3,1.3,3,3C22,13.7,20.7,15,19,15z M19,11c-0.6,0-1,0.4-1,1
		c0,0.6,0.4,1,1,1s1-0.4,1-1C20,11.4,19.6,11,19,11z"/>
</g>
<g>
	<path d="M12,23C5.9,23,1,18.1,1,12C1,5.9,5.9,1,12,1c2.9,0,5.6,1.1,7.7,3.1c0.6,0.5,1.1,1.2,1.5,1.8
		c0.3,0.5,0.2,1.1-0.3,1.4c-0.5,0.3-1.1,0.2-1.4-0.3c-0.4-0.5-0.8-1-1.2-1.5C16.6,3.9,14.4,3,12,3c-5,0-9,4-9,9s4,9,9,9
		c2.4,0,4.6-0.9,6.3-2.6c0.5-0.4,0.9-0.9,1.2-1.5c0.3-0.5,0.9-0.6,1.4-0.3c0.5,0.3,0.6,0.9,0.3,1.4c-0.4,0.7-0.9,1.3-1.5,1.8
		C17.6,21.9,14.9,23,12,23z"/>
</g>
</svg>
