 <svg t="1724059253059" class="icon" viewBox="0 0 1024 1024" version="1.1" xmlns="http://www.w3.org/2000/svg" p-id="5286" width="200" height="200"><path d="M938.666667 341.333333a42.666667 42.666667 0 0 1 0-85.333333 85.333333 85.333333 0 0 1 85.333333 85.333333v512a85.333333 85.333333 0 0 1-85.333333 85.333334h-125.184a42.666667 42.666667 0 0 1 0-85.333334H938.666667V341.333333z" fill="#000000" p-id="5287"></path><path d="M768 853.333333V170.666667H85.333333v682.666666h682.666667z m85.333333 0c56.874667 0 56.874667 85.333333 0 85.333334H85.333333a85.333333 85.333333 0 0 1-85.333333-85.333334V170.666667a85.333333 85.333333 0 0 1 85.333333-85.333334h682.666667a85.333333 85.333333 0 0 1 85.333333 85.333334v682.666666z" fill="#000000" p-id="5288"></path><path d="M213.333333 725.333333a42.666667 42.666667 0 0 1 0-85.333333h426.666667a42.666667 42.666667 0 0 1 0 85.333333H213.333333z m298.666667-170.666666a42.666667 42.666667 0 0 1 0-85.333334h128a42.666667 42.666667 0 0 1 0 85.333334h-128z m0-170.666667a42.666667 42.666667 0 0 1 0-85.333333h128a42.666667 42.666667 0 0 1 0 85.333333h-128zM256 384v85.333333h85.333333V384H256zM213.333333 298.666667h170.666667a42.666667 42.666667 0 0 1 42.666667 42.666666v170.666667a42.666667 42.666667 0 0 1-42.666667 42.666667H213.333333a42.666667 42.666667 0 0 1-42.666666-42.666667V341.333333a42.666667 42.666667 0 0 1 42.666666-42.666666z" fill="#000000" p-id="5289"></path></svg>
