<svg t="1686402818846" class="icon" viewBox="0 0 1024 1024" version="1.1" xmlns="http://www.w3.org/2000/svg" p-id="2501" width="200" height="200"><path d="M832 128H192c-35.2 0-64 28.8-64 64v640c0 35.2 28.8 64 64 64h640c35.2 0 64-28.8 64-64V192c0-35.2-28.8-64-64-64z m-115.2 656h-99.2c-83.2 0-105.6-25.6-105.6-105.6v-169.6c-32 118.4-99.2 224-259.2 291.2-12.8-22.4-32-51.2-54.4-67.2 144-54.4 208-144 233.6-243.2h-224v-76.8h236.8c3.2-35.2 6.4-73.6 6.4-108.8H252.8V224h524.8v76.8h-236.8c-3.2 35.2-3.2 73.6-9.6 108.8h281.6v76.8h-217.6v188.8c0 25.6 6.4 28.8 32 28.8h80c25.6 0 28.8-12.8 35.2-99.2 16 12.8 54.4 28.8 76.8 32-6.4 118.4-28.8 147.2-102.4 147.2z" p-id="2502"></path></svg>
