<svg t="1686402997578" class="icon" viewBox="0 0 1024 1024" version="1.1" xmlns="http://www.w3.org/2000/svg" p-id="11628" width="200" height="200"><path d="M802.133333 85.333333h-580.266666C98.986667 85.333333 0 184.32 0 307.2v409.6c0 122.88 98.986667 221.866667 221.866667 221.866667h580.266666c122.88 0 221.866667-98.986667 221.866667-221.866667V307.2c0-122.88-98.986667-221.866667-221.866667-221.866667zM477.866667 716.8c0 10.24-6.826667 17.066667-17.066667 17.066667h-102.4c-10.24 0-17.066667-6.826667-17.066667-17.066667V341.333333c0-10.24 6.826667-17.066667 17.066667-17.066666h102.4c10.24 0 17.066667 6.826667 17.066667 17.066666v375.466667z m204.8 0c0 10.24-6.826667 17.066667-17.066667 17.066667h-102.4c-10.24 0-17.066667-6.826667-17.066667-17.066667V341.333333c0-10.24 6.826667-17.066667 17.066667-17.066666h102.4c10.24 0 17.066667 6.826667 17.066667 17.066666v375.466667z" fill="#ded846" p-id="11629"></path></svg>
