<svg t="1686402903176" class="icon" viewBox="0 0 1024 1024" version="1.1" xmlns="http://www.w3.org/2000/svg" p-id="5592" width="200" height="200"><path d="M800 192h-288a128 128 0 0 0-128-128H160a128 128 0 0 0-128 128v576a192 192 0 0 0 192 192h576a192 192 0 0 0 192-192V384a192 192 0 0 0-192-192z m-118.4 569.6a240 240 0 0 1-339.52 0c-3.52-3.52-6.72-7.36-9.92-10.88 0 11.2 3.2 18.56 3.2 18.56a44.48 44.48 0 1 1-86.08 21.44 336.96 336.96 0 0 1 0-146.88 44.48 44.48 0 0 1 32-32 336.96 336.96 0 0 1 146.88 0 44.48 44.48 0 1 1-21.44 86.08c-5.44 0-10.88-2.24-16-2.88 2.88 3.2 5.44 6.72 8.32 9.92a160 160 0 0 0 260.48-53.76 358.08 358.08 0 0 0 86.08-5.76 238.08 238.08 0 0 1-64 116.16z m92.8-221.76a44.48 44.48 0 0 1-32 32 336.96 336.96 0 0 1-146.88 0 44.48 44.48 0 1 1 21.44-86.08c5.44 0 10.88 2.24 16 2.88-2.88-3.2-5.44-6.72-8.32-9.92a160 160 0 0 0-260.48 53.76 358.08 358.08 0 0 0-86.08 5.76A240 240 0 0 1 681.6 422.4c3.52 3.52 6.72 7.36 9.92 10.88 0-11.2-3.2-18.56-3.2-18.56a44.48 44.48 0 1 1 86.08-21.44 336.96 336.96 0 0 1 0 146.88z" fill="#1d9e24" p-id="5593"></path></svg>
