<svg width="753" height="323" viewBox="0 0 753 323" fill="none" xmlns="http://www.w3.org/2000/svg">
<path d="M11.6783 219.602C14.8124 172.816 38.375 146.064 48.6938 136.484C50.5484 134.762 53.2642 136.201 53.1006 138.727L49.375 196.23C49.2973 197.428 48.5185 198.47 47.4196 198.955C42.8459 200.973 30.3138 207.372 17.0172 221.723C15.0796 223.814 11.4877 222.447 11.6783 219.602Z" fill="#023163" stroke="#023163" stroke-width="5"/>
<path d="M128.402 102.802C128.881 103.129 129.308 103.425 129.681 103.685C129.797 104.786 129.954 106.273 130.146 108.102C130.592 112.354 131.23 118.454 131.995 125.846C133.525 140.629 135.565 160.576 137.605 181.231C141.427 219.923 145.196 260.624 145.691 274.923C135.617 281.004 121.111 284.886 106.077 285.827C89.8778 286.841 74.0285 284.381 63.3566 278.488C52.1651 272.307 45.6883 265.83 41.8529 257.96C37.9441 249.94 36.4903 239.903 36.4903 226.007C36.4903 201.029 39.8296 183.882 44.1492 166.063C44.9276 162.852 45.7406 159.61 46.573 156.291C50.3759 141.127 54.5822 124.354 57.7283 101.606C58.5954 95.3352 60.3577 91.0466 62.4907 88.1409C64.5818 85.2921 67.1971 83.5377 70.2575 82.5558C76.6626 80.501 85.3229 81.7517 94.7786 85.0806C104.051 88.345 113.214 93.2906 120.134 97.4872C123.575 99.5743 126.422 101.452 128.402 102.802Z" fill="white" stroke="#023163" stroke-width="10"/>
<path d="M171.595 287.793L150.745 277.616C150.745 277.616 105.842 252.832 105.842 207.346C98.7957 208.007 84.0988 227.46 77.3264 236.944C75.8659 238.989 72.7756 238.492 72.2252 236.04C68.9173 221.304 62.8634 181.597 81.3499 141.158C75.6708 117.397 74.1957 110.204 52.7754 100.921C47.1184 98.4688 40.6229 95.648 35.2279 93.3036C28.8819 90.5461 27.9049 84.43 34.6663 82.9609C38.8789 82.0456 44.7123 81.3849 52.7754 81.3849C57.1491 77.5944 72.4257 64 93.8141 64C109.222 64 118.005 67.5567 126.856 74.9155C143.053 88.3828 178.778 150.439 162.117 255.456C160.52 265.52 168.796 279.809 172.96 286.225C173.529 287.101 172.534 288.251 171.595 287.793Z" fill="#023163" stroke="#023163" stroke-width="5"/>
<path d="M84.5572 93.048C84.5572 97.0739 81.2937 100.337 77.2678 100.337C73.242 100.337 69.9784 97.0739 69.9784 93.048C69.9784 89.0222 73.242 85.7586 77.2678 85.7586C81.2937 85.7586 84.5572 89.0222 84.5572 93.048Z" fill="white"/>
<path d="M84.5572 93.048C84.5572 97.0739 81.2937 100.337 77.2678 100.337C73.242 100.337 69.9784 97.0739 69.9784 93.048C69.9784 89.0222 73.242 85.7586 77.2678 85.7586C81.2937 85.7586 84.5572 89.0222 84.5572 93.048Z" fill="white"/>
<circle cx="79.0173" cy="94.2143" r="5.53996" fill="#023163"/>
<path d="M49.1862 84.7597C46.9911 84.4837 43.5468 84.5744 39.9409 84.8471C32.5031 85.4098 32.3623 89.4119 39.3599 91.9948C45.2795 94.1798 50.6563 96.2554 50.6563 96.2554C50.6563 96.2554 51.2453 87.5103 49.1862 84.7597Z" fill="#FFD133"/>
<path d="M265.6 304.62C262.583 304.62 259.958 304.062 257.726 302.946C255.494 301.789 253.758 300.197 252.518 298.172C251.319 296.105 250.72 293.708 250.72 290.98V271.76C250.72 269.032 251.319 266.655 252.518 264.63C253.758 262.563 255.494 260.972 257.726 259.856C259.958 258.699 262.583 258.12 265.6 258.12C268.659 258.12 271.283 258.699 273.474 259.856C275.706 260.972 277.421 262.563 278.62 264.63C279.86 266.655 280.48 269.032 280.48 271.76V290.98C280.48 293.708 279.86 296.105 278.62 298.172C277.421 300.197 275.706 301.789 273.474 302.946C271.283 304.062 268.659 304.62 265.6 304.62ZM265.6 296.56C267.46 296.56 268.845 296.085 269.754 295.134C270.705 294.142 271.18 292.757 271.18 290.98V271.76C271.18 269.941 270.725 268.557 269.816 267.606C268.907 266.655 267.501 266.18 265.6 266.18C263.699 266.18 262.293 266.655 261.384 267.606C260.475 268.557 260.02 269.941 260.02 271.76V290.98C260.02 292.757 260.475 294.142 261.384 295.134C262.335 296.085 263.74 296.56 265.6 296.56ZM288.268 304V258.74H303.706C306.888 258.74 309.658 259.339 312.014 260.538C314.411 261.737 316.25 263.411 317.532 265.56C318.854 267.709 319.516 270.231 319.516 273.124C319.516 275.976 318.854 278.497 317.532 280.688C316.209 282.837 314.37 284.511 312.014 285.71C309.658 286.909 306.888 287.508 303.706 287.508H297.568V304H288.268ZM297.568 279.138H303.706C305.69 279.138 307.26 278.601 308.418 277.526C309.616 276.41 310.216 274.943 310.216 273.124C310.216 271.305 309.616 269.859 308.418 268.784C307.26 267.668 305.69 267.11 303.706 267.11H297.568V279.138ZM326.312 304V258.74H354.212V266.676H335.426V276.844H352.042V284.78H335.426V296.064H354.212V304H326.312ZM362.247 304V258.74H373.097L384.815 293.77C384.691 292.241 384.547 290.484 384.381 288.5C384.216 286.475 384.071 284.47 383.947 282.486C383.865 280.461 383.823 278.745 383.823 277.34V258.74H392.007V304H381.157L369.563 268.97C369.687 270.293 369.811 271.863 369.935 273.682C370.059 275.501 370.163 277.34 370.245 279.2C370.369 281.06 370.431 282.713 370.431 284.16V304H362.247ZM397.253 304L408.351 258.74H420.131L431.353 304H421.867L419.697 293.77H408.909L406.739 304H397.253ZM410.459 286.33H418.085L415.915 275.418C415.626 273.847 415.316 272.297 414.985 270.768C414.696 269.197 414.468 267.978 414.303 267.11C414.138 267.978 413.91 269.177 413.621 270.706C413.373 272.235 413.084 273.785 412.753 275.356L410.459 286.33ZM446.829 304V267.42H435.359V258.74H467.599V267.42H456.129V304H446.829ZM488.655 304.62C485.637 304.62 483.013 304.062 480.781 302.946C478.549 301.789 476.813 300.197 475.573 298.172C474.374 296.105 473.775 293.708 473.775 290.98V271.76C473.775 269.032 474.374 266.655 475.573 264.63C476.813 262.563 478.549 260.972 480.781 259.856C483.013 258.699 485.637 258.12 488.655 258.12C491.713 258.12 494.338 258.699 496.529 259.856C498.761 260.972 500.476 262.563 501.675 264.63C502.915 266.655 503.535 269.032 503.535 271.76V290.98C503.535 293.708 502.915 296.105 501.675 298.172C500.476 300.197 498.761 301.789 496.529 302.946C494.338 304.062 491.713 304.62 488.655 304.62ZM488.655 296.56C490.515 296.56 491.899 296.085 492.809 295.134C493.759 294.142 494.235 292.757 494.235 290.98V271.76C494.235 269.941 493.78 268.557 492.871 267.606C491.961 266.655 490.556 266.18 488.655 266.18C486.753 266.18 485.348 266.655 484.439 267.606C483.529 268.557 483.075 269.941 483.075 271.76V290.98C483.075 292.757 483.529 294.142 484.439 295.134C485.389 296.085 486.795 296.56 488.655 296.56ZM509.834 304V258.74H520.312L524.466 273C524.921 274.488 525.252 275.79 525.458 276.906C525.706 278.022 525.851 278.807 525.892 279.262C525.934 278.807 526.058 278.022 526.264 276.906C526.512 275.79 526.843 274.488 527.256 273L531.348 258.74H541.826V304H533.332V291.6C533.332 289.327 533.374 286.95 533.456 284.47C533.58 281.949 533.725 279.448 533.89 276.968C534.056 274.488 534.242 272.173 534.448 270.024C534.655 267.833 534.841 265.932 535.006 264.32L529.798 284.78H521.924L516.468 264.32C516.675 265.849 516.882 267.689 517.088 269.838C517.295 271.946 517.481 274.24 517.646 276.72C517.853 279.159 518.018 281.659 518.142 284.222C518.266 286.785 518.328 289.244 518.328 291.6V304H509.834ZM600.43 304.62C597.413 304.62 594.767 304.062 592.494 302.946C590.221 301.789 588.443 300.197 587.162 298.172C585.922 296.105 585.302 293.708 585.302 290.98V271.76C585.302 268.991 585.922 266.593 587.162 264.568C588.443 262.543 590.221 260.972 592.494 259.856C594.767 258.699 597.413 258.12 600.43 258.12C603.489 258.12 606.134 258.699 608.366 259.856C610.639 260.972 612.396 262.543 613.636 264.568C614.917 266.593 615.558 268.991 615.558 271.76H606.258C606.258 269.941 605.741 268.557 604.708 267.606C603.716 266.655 602.29 266.18 600.43 266.18C598.57 266.18 597.123 266.655 596.09 267.606C595.098 268.557 594.602 269.941 594.602 271.76V290.98C594.602 292.757 595.098 294.142 596.09 295.134C597.123 296.085 598.57 296.56 600.43 296.56C602.29 296.56 603.716 296.085 604.708 295.134C605.741 294.142 606.258 292.757 606.258 290.98H615.558C615.558 293.708 614.917 296.105 613.636 298.172C612.396 300.197 610.639 301.789 608.366 302.946C606.134 304.062 603.489 304.62 600.43 304.62ZM624.648 304V258.74H633.948V295.32H652.238V304H624.648ZM674.534 304.62C669.946 304.62 666.308 303.38 663.622 300.9C660.976 298.42 659.654 295.031 659.654 290.732V258.74H668.954V290.67C668.954 292.571 669.429 294.039 670.38 295.072C671.372 296.064 672.756 296.56 674.534 296.56C676.27 296.56 677.634 296.064 678.626 295.072C679.618 294.039 680.114 292.571 680.114 290.67V258.74H689.414V290.732C689.414 294.989 688.07 298.379 685.384 300.9C682.738 303.38 679.122 304.62 674.534 304.62ZM697.201 304V258.74H711.771C716.359 258.74 720.017 259.794 722.745 261.902C725.473 263.969 726.837 266.779 726.837 270.334C726.837 272.318 726.362 274.054 725.411 275.542C724.502 277.03 723.262 278.187 721.691 279.014C720.162 279.841 718.488 280.254 716.669 280.254V280.44C718.695 280.399 720.534 280.771 722.187 281.556C723.882 282.341 725.246 283.519 726.279 285.09C727.313 286.661 727.829 288.603 727.829 290.918C727.829 293.563 727.189 295.878 725.907 297.862C724.667 299.805 722.89 301.313 720.575 302.388C718.261 303.463 715.512 304 712.329 304H697.201ZM706.191 296.498H711.957C713.983 296.498 715.574 295.961 716.731 294.886C717.889 293.811 718.467 292.323 718.467 290.422C718.467 288.521 717.889 287.033 716.731 285.958C715.574 284.842 713.983 284.284 711.957 284.284H706.191V296.498ZM706.191 276.968H711.647C713.466 276.968 714.892 276.493 715.925 275.542C716.959 274.55 717.475 273.227 717.475 271.574C717.475 269.879 716.959 268.577 715.925 267.668C714.892 266.717 713.466 266.242 711.647 266.242H706.191V276.968Z" fill="#023163"/>
<path d="M241.94 224V63.4H269.44V127.86H312.56V63.4H340.06V224H312.56V153.38H269.44V224H241.94ZM422.914 226.2C407.221 226.2 394.901 221.947 385.954 213.44C377.154 204.787 372.754 193.053 372.754 178.24V63.4H400.474V178.02C400.474 185.647 402.381 191.587 406.194 195.84C410.007 200.093 415.581 202.22 422.914 202.22C430.101 202.22 435.601 200.093 439.414 195.84C443.374 191.587 445.354 185.647 445.354 178.02V63.4H473.074V178.24C473.074 193.053 468.674 204.787 459.874 213.44C451.074 221.947 438.754 226.2 422.914 226.2ZM555.268 226.2C544.268 226.2 534.735 224.367 526.668 220.7C518.601 217.033 512.368 211.827 507.968 205.08C503.715 198.187 501.515 190.12 501.368 180.88H528.868C528.868 187.48 531.215 192.687 535.908 196.5C540.748 200.167 547.275 202 555.488 202C563.408 202 569.568 200.167 573.968 196.5C578.515 192.833 580.788 187.773 580.788 181.32C580.788 175.893 579.175 171.2 575.948 167.24C572.868 163.133 568.395 160.347 562.528 158.88L544.048 153.82C531.435 150.593 521.681 144.8 514.788 136.44C508.041 128.08 504.668 117.96 504.668 106.08C504.668 96.9867 506.721 89.0667 510.828 82.32C514.935 75.5733 520.728 70.3667 528.208 66.7C535.835 63.0333 544.781 61.2 555.048 61.2C570.595 61.2 582.915 65.2333 592.008 73.3C601.101 81.22 605.721 91.9267 605.868 105.42H578.368C578.368 99.1133 576.315 94.2 572.208 90.68C568.101 87.0133 562.308 85.18 554.828 85.18C547.641 85.18 542.068 86.8667 538.108 90.24C534.148 93.6133 532.168 98.38 532.168 104.54C532.168 110.113 533.635 114.88 536.568 118.84C539.648 122.653 544.048 125.367 549.768 126.98L568.908 132.26C581.668 135.487 591.421 141.28 598.168 149.64C604.915 157.853 608.288 168.047 608.288 180.22C608.288 189.313 606.088 197.38 601.688 204.42C597.288 211.313 591.128 216.667 583.208 220.48C575.288 224.293 565.975 226.2 555.268 226.2ZM672.882 224V88.92H630.862V63.4H742.622V88.92H700.602V224H672.882Z" fill="#023163"/>
</svg>

