
<svg width="892" height="373" viewBox="0 0 892 373" fill="none" xmlns="http://www.w3.org/2000/svg">
<rect width="892" height="373" fill="#023163"/>
<path d="M121.653 141.285C110.974 151.2 86.886 178.618 83.685 226.402C83.4906 229.304 85.2923 231.462 87.4585 232.308C89.5949 233.142 92.3214 232.808 94.2178 230.762C107.176 216.776 119.342 210.592 123.631 208.699C125.675 207.797 127.213 205.821 127.369 203.424L131.094 145.921C131.253 143.478 129.989 141.36 128.032 140.348C126.036 139.316 123.522 139.549 121.653 141.285Z" fill="#023163" stroke="white" stroke-width="6"/>
<path d="M106.49 233.007C106.49 181.981 120.194 162.737 127.775 107.921C135.356 53.1041 209.417 107.921 209.417 107.921C209.417 107.921 225.745 261.873 225.745 284.616C203.585 299.778 159.557 302.907 135.94 289.865C112.322 276.822 106.49 261.29 106.49 233.007Z" fill="white" stroke="#023163" stroke-width="10"/>
<path d="M225.745 284.616L224.296 287.243L224.362 287.279L224.429 287.312L245.28 297.489C247.219 298.435 249.118 297.617 250.108 296.476C251.094 295.341 251.633 293.373 250.477 291.592C248.441 288.456 245.434 283.444 243.14 278.037C240.799 272.52 239.419 267.089 240.08 262.926C248.478 209.992 243.689 167.775 234.687 137.012C225.724 106.379 212.505 86.8684 203.774 79.6087C199.142 75.7577 194.423 72.8174 188.775 70.8631C183.145 68.9151 176.747 68 168.814 68C147.47 68 131.983 80.7812 126.651 85.3892C119.002 85.4477 113.296 86.1023 109.029 87.0293C106.929 87.4856 105.099 88.3724 103.805 89.7737C102.464 91.2255 101.87 93.0565 102.045 94.9283C102.379 98.5037 105.326 101.444 109.032 103.055C114.428 105.4 120.924 108.221 126.582 110.673C137.086 115.225 142.152 119.04 145.431 124.216C148.761 129.471 150.447 136.369 153.193 147.857C134.832 188.836 140.956 228.81 144.298 243.697C145.481 248.966 151.974 249.6 154.768 245.687C158.134 240.973 163.432 233.836 168.733 227.819C171.388 224.805 173.982 222.143 176.288 220.219C176.89 219.717 177.458 219.278 177.987 218.902C179.364 240.477 190.337 257.193 201.113 268.599C206.885 274.708 212.651 279.35 216.975 282.467C219.139 284.027 220.949 285.209 222.227 286.007C222.866 286.406 223.373 286.709 223.725 286.915C223.901 287.018 224.038 287.097 224.134 287.152C224.182 287.179 224.22 287.2 224.247 287.215L224.279 287.234L224.289 287.239L224.293 287.241C224.294 287.242 224.296 287.243 225.745 284.616ZM247.911 292.097L247.906 292.095C247.908 292.095 247.91 292.096 247.911 292.097Z" fill="#023163" stroke="white" stroke-width="6"/>
<path d="M159.557 100.048C159.557 104.074 156.294 107.337 152.268 107.337C148.242 107.337 144.978 104.074 144.978 100.048C144.978 96.0222 148.242 92.7586 152.268 92.7586C156.294 92.7586 159.557 96.0222 159.557 100.048Z" fill="white"/>
<path d="M159.557 100.048C159.557 104.074 156.294 107.337 152.268 107.337C148.242 107.337 144.978 104.074 144.978 100.048C144.978 96.0222 148.242 92.7586 152.268 92.7586C156.294 92.7586 159.557 96.0222 159.557 100.048Z" fill="white"/>
<circle cx="154.017" cy="101.214" r="5.53996" fill="#023163"/>
<path d="M124.186 91.7597C121.991 91.4837 118.547 91.5744 114.941 91.8471C107.503 92.4098 107.362 96.4119 114.36 98.9948C120.279 101.18 125.656 103.255 125.656 103.255C125.656 103.255 126.245 94.5103 124.186 91.7597Z" fill="#FFD133"/>
<path d="M340.6 311.62C337.583 311.62 334.958 311.062 332.726 309.946C330.494 308.789 328.758 307.197 327.518 305.172C326.319 303.105 325.72 300.708 325.72 297.98V278.76C325.72 276.032 326.319 273.655 327.518 271.63C328.758 269.563 330.494 267.972 332.726 266.856C334.958 265.699 337.583 265.12 340.6 265.12C343.659 265.12 346.283 265.699 348.474 266.856C350.706 267.972 352.421 269.563 353.62 271.63C354.86 273.655 355.48 276.032 355.48 278.76V297.98C355.48 300.708 354.86 303.105 353.62 305.172C352.421 307.197 350.706 308.789 348.474 309.946C346.283 311.062 343.659 311.62 340.6 311.62ZM340.6 303.56C342.46 303.56 343.845 303.085 344.754 302.134C345.705 301.142 346.18 299.757 346.18 297.98V278.76C346.18 276.941 345.725 275.557 344.816 274.606C343.907 273.655 342.501 273.18 340.6 273.18C338.699 273.18 337.293 273.655 336.384 274.606C335.475 275.557 335.02 276.941 335.02 278.76V297.98C335.02 299.757 335.475 301.142 336.384 302.134C337.335 303.085 338.74 303.56 340.6 303.56ZM363.268 311V265.74H378.706C381.888 265.74 384.658 266.339 387.014 267.538C389.411 268.737 391.25 270.411 392.532 272.56C393.854 274.709 394.516 277.231 394.516 280.124C394.516 282.976 393.854 285.497 392.532 287.688C391.209 289.837 389.37 291.511 387.014 292.71C384.658 293.909 381.888 294.508 378.706 294.508H372.568V311H363.268ZM372.568 286.138H378.706C380.69 286.138 382.26 285.601 383.418 284.526C384.616 283.41 385.216 281.943 385.216 280.124C385.216 278.305 384.616 276.859 383.418 275.784C382.26 274.668 380.69 274.11 378.706 274.11H372.568V286.138ZM401.312 311V265.74H429.212V273.676H410.426V283.844H427.042V291.78H410.426V303.064H429.212V311H401.312ZM437.247 311V265.74H448.097L459.815 300.77C459.691 299.241 459.547 297.484 459.381 295.5C459.216 293.475 459.071 291.47 458.947 289.486C458.865 287.461 458.823 285.745 458.823 284.34V265.74H467.007V311H456.157L444.563 275.97C444.687 277.293 444.811 278.863 444.935 280.682C445.059 282.501 445.163 284.34 445.245 286.2C445.369 288.06 445.431 289.713 445.431 291.16V311H437.247ZM472.253 311L483.351 265.74H495.131L506.353 311H496.867L494.697 300.77H483.909L481.739 311H472.253ZM485.459 293.33H493.085L490.915 282.418C490.626 280.847 490.316 279.297 489.985 277.768C489.696 276.197 489.468 274.978 489.303 274.11C489.138 274.978 488.91 276.177 488.621 277.706C488.373 279.235 488.084 280.785 487.753 282.356L485.459 293.33ZM521.829 311V274.42H510.359V265.74H542.599V274.42H531.129V311H521.829ZM563.655 311.62C560.637 311.62 558.013 311.062 555.781 309.946C553.549 308.789 551.813 307.197 550.573 305.172C549.374 303.105 548.775 300.708 548.775 297.98V278.76C548.775 276.032 549.374 273.655 550.573 271.63C551.813 269.563 553.549 267.972 555.781 266.856C558.013 265.699 560.637 265.12 563.655 265.12C566.713 265.12 569.338 265.699 571.529 266.856C573.761 267.972 575.476 269.563 576.675 271.63C577.915 273.655 578.535 276.032 578.535 278.76V297.98C578.535 300.708 577.915 303.105 576.675 305.172C575.476 307.197 573.761 308.789 571.529 309.946C569.338 311.062 566.713 311.62 563.655 311.62ZM563.655 303.56C565.515 303.56 566.899 303.085 567.809 302.134C568.759 301.142 569.235 299.757 569.235 297.98V278.76C569.235 276.941 568.78 275.557 567.871 274.606C566.961 273.655 565.556 273.18 563.655 273.18C561.753 273.18 560.348 273.655 559.439 274.606C558.529 275.557 558.075 276.941 558.075 278.76V297.98C558.075 299.757 558.529 301.142 559.439 302.134C560.389 303.085 561.795 303.56 563.655 303.56ZM584.834 311V265.74H595.312L599.466 280C599.921 281.488 600.252 282.79 600.458 283.906C600.706 285.022 600.851 285.807 600.892 286.262C600.934 285.807 601.058 285.022 601.264 283.906C601.512 282.79 601.843 281.488 602.256 280L606.348 265.74H616.826V311H608.332V298.6C608.332 296.327 608.374 293.95 608.456 291.47C608.58 288.949 608.725 286.448 608.89 283.968C609.056 281.488 609.242 279.173 609.448 277.024C609.655 274.833 609.841 272.932 610.006 271.32L604.798 291.78H596.924L591.468 271.32C591.675 272.849 591.882 274.689 592.088 276.838C592.295 278.946 592.481 281.24 592.646 283.72C592.853 286.159 593.018 288.659 593.142 291.222C593.266 293.785 593.328 296.244 593.328 298.6V311H584.834ZM675.43 311.62C672.413 311.62 669.767 311.062 667.494 309.946C665.221 308.789 663.443 307.197 662.162 305.172C660.922 303.105 660.302 300.708 660.302 297.98V278.76C660.302 275.991 660.922 273.593 662.162 271.568C663.443 269.543 665.221 267.972 667.494 266.856C669.767 265.699 672.413 265.12 675.43 265.12C678.489 265.12 681.134 265.699 683.366 266.856C685.639 267.972 687.396 269.543 688.636 271.568C689.917 273.593 690.558 275.991 690.558 278.76H681.258C681.258 276.941 680.741 275.557 679.708 274.606C678.716 273.655 677.29 273.18 675.43 273.18C673.57 273.18 672.123 273.655 671.09 274.606C670.098 275.557 669.602 276.941 669.602 278.76V297.98C669.602 299.757 670.098 301.142 671.09 302.134C672.123 303.085 673.57 303.56 675.43 303.56C677.29 303.56 678.716 303.085 679.708 302.134C680.741 301.142 681.258 299.757 681.258 297.98H690.558C690.558 300.708 689.917 303.105 688.636 305.172C687.396 307.197 685.639 308.789 683.366 309.946C681.134 311.062 678.489 311.62 675.43 311.62ZM699.648 311V265.74H708.948V302.32H727.238V311H699.648ZM749.534 311.62C744.946 311.62 741.308 310.38 738.622 307.9C735.976 305.42 734.654 302.031 734.654 297.732V265.74H743.954V297.67C743.954 299.571 744.429 301.039 745.38 302.072C746.372 303.064 747.756 303.56 749.534 303.56C751.27 303.56 752.634 303.064 753.626 302.072C754.618 301.039 755.114 299.571 755.114 297.67V265.74H764.414V297.732C764.414 301.989 763.07 305.379 760.384 307.9C757.738 310.38 754.122 311.62 749.534 311.62ZM772.201 311V265.74H786.771C791.359 265.74 795.017 266.794 797.745 268.902C800.473 270.969 801.837 273.779 801.837 277.334C801.837 279.318 801.362 281.054 800.411 282.542C799.502 284.03 798.262 285.187 796.691 286.014C795.162 286.841 793.488 287.254 791.669 287.254V287.44C793.695 287.399 795.534 287.771 797.187 288.556C798.882 289.341 800.246 290.519 801.279 292.09C802.313 293.661 802.829 295.603 802.829 297.918C802.829 300.563 802.189 302.878 800.907 304.862C799.667 306.805 797.89 308.313 795.575 309.388C793.261 310.463 790.512 311 787.329 311H772.201ZM781.191 303.498H786.957C788.983 303.498 790.574 302.961 791.731 301.886C792.889 300.811 793.467 299.323 793.467 297.422C793.467 295.521 792.889 294.033 791.731 292.958C790.574 291.842 788.983 291.284 786.957 291.284H781.191V303.498ZM781.191 283.968H786.647C788.466 283.968 789.892 283.493 790.925 282.542C791.959 281.55 792.475 280.227 792.475 278.574C792.475 276.879 791.959 275.577 790.925 274.668C789.892 273.717 788.466 273.242 786.647 273.242H781.191V283.968Z" fill="white"/>
<path d="M316.94 231V70.4H344.44V134.86H387.56V70.4H415.06V231H387.56V160.38H344.44V231H316.94ZM497.914 233.2C482.221 233.2 469.901 228.947 460.954 220.44C452.154 211.787 447.754 200.053 447.754 185.24V70.4H475.474V185.02C475.474 192.647 477.381 198.587 481.194 202.84C485.007 207.093 490.581 209.22 497.914 209.22C505.101 209.22 510.601 207.093 514.414 202.84C518.374 198.587 520.354 192.647 520.354 185.02V70.4H548.074V185.24C548.074 200.053 543.674 211.787 534.874 220.44C526.074 228.947 513.754 233.2 497.914 233.2ZM630.268 233.2C619.268 233.2 609.735 231.367 601.668 227.7C593.601 224.033 587.368 218.827 582.968 212.08C578.715 205.187 576.515 197.12 576.368 187.88H603.868C603.868 194.48 606.215 199.687 610.908 203.5C615.748 207.167 622.275 209 630.488 209C638.408 209 644.568 207.167 648.968 203.5C653.515 199.833 655.788 194.773 655.788 188.32C655.788 182.893 654.175 178.2 650.948 174.24C647.868 170.133 643.395 167.347 637.528 165.88L619.048 160.82C606.435 157.593 596.681 151.8 589.788 143.44C583.041 135.08 579.668 124.96 579.668 113.08C579.668 103.987 581.721 96.0667 585.828 89.32C589.935 82.5733 595.728 77.3667 603.208 73.7C610.835 70.0333 619.781 68.2 630.048 68.2C645.595 68.2 657.915 72.2333 667.008 80.3C676.101 88.22 680.721 98.9267 680.868 112.42H653.368C653.368 106.113 651.315 101.2 647.208 97.68C643.101 94.0133 637.308 92.18 629.828 92.18C622.641 92.18 617.068 93.8667 613.108 97.24C609.148 100.613 607.168 105.38 607.168 111.54C607.168 117.113 608.635 121.88 611.568 125.84C614.648 129.653 619.048 132.367 624.768 133.98L643.908 139.26C656.668 142.487 666.421 148.28 673.168 156.64C679.915 164.853 683.288 175.047 683.288 187.22C683.288 196.313 681.088 204.38 676.688 211.42C672.288 218.313 666.128 223.667 658.208 227.48C650.288 231.293 640.975 233.2 630.268 233.2ZM747.882 231V95.92H705.862V70.4H817.622V95.92H775.602V231H747.882Z" fill="white"/>
</svg>

