<?xml version="1.0" encoding="UTF-8"?>
<svg id="_图层_2" data-name="图层 2" xmlns="http://www.w3.org/2000/svg" width="85.29mm" height="20mm" viewBox="0 0 241.76 56.69">
  <defs>
    <style>
      .cls-1, .cls-2 {
        fill: #fff;
        stroke-width: 0px;
      }

      .cls-2 {
        fill-rule: evenodd;
      }
    </style>
  </defs>
  <g id="_图层_1-2" data-name="图层 1">
    <g>
      <g>
        <path class="cls-1" d="m37.37,56.69C16.76,56.69,0,43.98,0,28.35S16.76,0,37.37,0s37.36,12.72,37.36,28.35-16.76,28.35-37.36,28.35Zm0-55.96C17.17.74.74,13.12.74,28.35s16.43,27.61,36.63,27.61,36.63-12.39,36.63-27.61S57.56.74,37.37.74Z"/>
        <g>
          <polyline class="cls-2" points="24.03 30.43 25.71 24.72 27.98 24.72 27 28.23 27.76 28.23 28.81 24.72 31.09 24.72 29.47 30.43 27.15 30.43 27.55 28.91 26.78 28.91 26.37 30.43 24.03 30.43"/>
          <polyline class="cls-2" points="31.9 24.74 30.18 30.48 35.59 30.48 37.17 24.74 34.95 24.74 33.45 29.77 32.67 29.77 34.11 24.74 31.9 24.74"/>
          <path class="cls-2" d="m21.29,32.24l18.75.04c1.28-.9,2.59-2.85,2.25-4.22-.45-.88-1.31-1.43-2.85-2.66-.54-.6-1.1-1.17-1.69-1.72-1.61-1.03-3.21-2.11-4.78-3.26-.92-.71-.54-1.68,1.36-1.44,5.25.42,9.87,1.53,13.86,3.34.84.46.58.68-.11.76l-4.29-.04c-1.01.07-1.67.62-2.34,1.72h2.46l-2.2,7.51h2.77l2.18-7.46h1.61c.95-.86,1.85-1.9,2.72-3.01.7-1.19.65-2.56-.65-3.26-2.9-1.36-6.12-1.64-8.52-1.74-3.94.11-6.93.41-8.4,1.27l-.78.66c-2.45,0-3.68.99-2.67,2.26.66.87,3.34,1.84,6.57,3.15,2.49.84,3.12,2.76,1.71,4.65-.97,1.4-2.87,2.18-5.6,2.4-2.93.2-5.86.17-8.79-.15-1.03.38-1.95.76-2.56,1.2"/>
        </g>
        <path class="cls-1" d="m37.21,40.04v1.64h-.35l-.21-.75v.75h-.33v-1.64h.33l.22.74v-.74h.33m-1.47,1.06c-.02-.19-.04-.42-.06-.69-.04.31-.07.54-.08.69h.14Zm.21-1.06l.23,1.64h-.41l-.02-.3h-.14l-.02.3h-.41l.2-1.64h.58Zm-.92,0v1.64h-.4v-.69h-.12v.69h-.4v-1.64h.4v.59h.12v-.59h.4Zm-1.14,0v1.1c0,.12,0,.21-.01.26,0,.05-.03.1-.07.16-.04.05-.09.09-.15.12-.06.03-.13.04-.22.04-.09,0-.17-.02-.24-.05-.07-.03-.12-.07-.16-.13-.03-.05-.06-.11-.06-.16,0-.06,0-.18,0-.37v-.97h.4v1.23c0,.07,0,.12.01.14,0,.02.02.03.04.03.03,0,.04-.01.05-.03,0-.02.01-.07.01-.16v-1.21h.4Zm-1.06,0l-.18,1.64h-.5c-.05-.25-.09-.54-.12-.86-.02.14-.05.42-.11.86h-.5l-.18-1.64h.39l.04.57.04.55c.01-.29.05-.66.11-1.13h.42s.02.23.04.54l.04.62c.02-.4.06-.79.11-1.17h.39Z"/>
        <path class="cls-1" d="m43.01,41.1c-.02-.19-.04-.42-.06-.69-.04.31-.07.54-.08.69h.14m.22-1.06l.23,1.64h-.42l-.02-.3h-.15l-.02.3h-.42l.21-1.64h.59Zm-.94,0v1.64h-.36l-.21-.75v.75h-.34v-1.64h.34l.23.74v-.74h.34Zm-1.14,0v1.64h-.41v-1.64h.41Zm-.64,0v1.64h-.41v-.69h-.12v.69h-.41v-1.64h.41v.59h.12v-.59h.41Zm-1.15.72h-.41v-.29c0-.08,0-.14-.01-.16,0-.02-.03-.03-.06-.03-.03,0-.05.01-.06.04,0,.03-.01.08-.01.16v.76c0,.08,0,.13.01.16,0,.02.03.04.06.04s.05-.01.06-.04c0-.02.01-.08.01-.17v-.21h.41v.06c0,.17-.01.29-.03.36-.02.07-.07.13-.15.19s-.18.08-.29.08-.22-.02-.29-.07c-.08-.05-.13-.11-.15-.19-.03-.08-.04-.2-.04-.36v-.48c0-.12,0-.21.01-.27,0-.06.03-.12.07-.17.04-.05.09-.1.16-.13.07-.03.15-.05.23-.05.12,0,.22.02.3.07.08.05.13.11.15.18.02.07.04.19.04.34v.16Z"/>
        <path class="cls-1" d="m37.44,45.95c-14.67,0-26.61-7.89-26.61-17.58s11.94-17.58,26.61-17.58,26.61,7.89,26.61,17.58-11.94,17.58-26.61,17.58Zm0-34.76c-14.45,0-26.21,7.71-26.21,17.18s11.76,17.18,26.21,17.18,26.21-7.71,26.21-17.18-11.76-17.18-26.21-17.18Z"/>
        <path class="cls-1" d="m37.45,45.77c-12.01,0-21.78-7.78-21.78-17.34s9.77-17.34,21.78-17.34,21.78,7.78,21.78,17.34-9.77,17.34-21.78,17.34Zm0-34.28c-11.79,0-21.38,7.6-21.38,16.94s9.59,16.94,21.38,16.94,21.38-7.6,21.38-16.94-9.59-16.94-21.38-16.94Z"/>
        <rect class="cls-1" x="22.86" y="13.67" width="29.06" height=".4"/>
        <rect class="cls-1" x="23.16" y="42.81" width="28.63" height=".4"/>
        <path class="cls-2" d="m12.72,46.36l-.1.13-.98-.75.1-.13.06.05c.05.04.12.05.19.03.05-.01.11-.06.19-.13.05-.05.17-.19.36-.43l2.45-3.13c.19-.24.3-.4.34-.47.04-.07.06-.14.06-.21,0-.07-.02-.12-.07-.16l-.06-.05.1-.13.98.75-.1.13-.06-.05c-.05-.04-.12-.05-.19-.03-.05.02-.11.06-.19.13-.05.05-.17.19-.36.43l-2.45,3.13c-.19.24-.3.4-.34.47-.04.07-.06.14-.06.21,0,.07.02.12.07.16l.06.05"/>
        <path class="cls-2" d="m18.78,43.34l-.1.15c-.1-.02-.23.05-.41.19-.13.11-.4.4-.83.84l-3.05,3.17-.05-.03,1.77-4.27c.25-.6.42-.94.46-1.05.03-.11.02-.21-.04-.28l.1-.15.98.65-.1.15-.03-.02c-.09-.06-.17-.07-.24-.03-.05.03-.1.08-.15.16-.03.05-.07.11-.1.18-.04.07-.13.27-.28.59l-1.41,3.05,2.04-2.19c.25-.27.41-.45.49-.54.08-.09.14-.18.19-.25.05-.08.09-.16.12-.23.03-.07.03-.14.02-.19-.01-.08-.05-.14-.12-.18l.1-.15.67.44"/>
        <path class="cls-2" d="m19.87,44.18l-1.22,1.99.04.02c.12.07.44.41.73.14.18-.17.1-.13.35-.46l.15.04-1.1,1.83-.16-.06c.18-.26.16-.18.23-.39s.09-.26.07-.36c-.01-.09-.41-.33-.51-.38l-.86,1.44c-.17.28-.27.46-.3.52-.03.07-.04.13-.04.19,0,.06.03.1.09.14l.12.07c.19.11.42.09.67-.06.25-.15.32-.16.64-.58l.15.16-.94,1.17-1.8-1.05.08-.14.07.04c.06.04.13.04.19,0,.05-.02.1-.07.17-.15.05-.05.15-.21.3-.47l2.02-3.36c.14-.23.22-.37.25-.43.04-.09.06-.17.07-.24,0-.09-.03-.16-.1-.2l-.07-.04.08-.14,1.74,1.02-.63,1.25-.17-.08c.19-.39.14-.36.18-.56.04-.19.04-.36-.02-.49-.03-.08-.12-.16-.28-.26l-.21-.13"/>
        <path class="cls-2" d="m21.87,45.24l-1.22,2.31.09.04c.14.06.27.08.37.04.11-.04.22-.13.36-.29.13-.16.27-.37.42-.65.21-.4.33-.72.36-.94.03-.23-.04-.37-.21-.45l-.16-.07m-1.36,2.59l-.78,1.48c-.15.29-.24.47-.26.55-.02.08-.03.15-.02.21.01.06.07.11.16.15l-.08.14-1.07-.47.08-.14c.1.04.17.05.23.02.06-.03.11-.08.17-.15.05-.07.15-.24.3-.53l1.8-3.43c.15-.29.24-.47.26-.55.03-.08.03-.15.02-.21-.01-.06-.07-.11-.16-.15l.08-.15.97.42c.25.11.41.24.48.37.07.14.08.34.03.61-.05.27-.16.56-.33.88-.2.39-.43.69-.68.89-.16.13-.32.21-.49.23l-.44,2.01c-.06.26-.08.42-.09.49,0,.1.03.16.08.2l-.08.14-.66-.29.59-2.7-.14-.06Z"/>
        <path class="cls-2" d="m24.8,45.97l-.65,1.87-.07-.02c.14-.48.19-.88.16-1.21-.03-.33-.12-.51-.27-.56-.12-.04-.24,0-.36.14-.12.13-.22.29-.29.49-.04.12-.07.24-.08.34-.01.14,0,.28.02.43.02.11.09.31.2.6.16.41.23.77.23,1.09,0,.32-.08.66-.21,1.03-.17.47-.39.85-.67,1.14-.27.29-.53.4-.77.33-.07-.02-.14-.06-.19-.12-.05-.06-.11-.15-.18-.28-.04-.07-.07-.11-.11-.12-.03,0-.07,0-.12.05-.05.04-.11.12-.17.23l-.06-.02.76-2.11.06.02c-.16.61-.23,1.09-.2,1.45.03.36.13.56.3.61.13.04.26-.01.4-.16.14-.14.25-.33.33-.55.05-.13.08-.27.09-.4.01-.13.01-.26,0-.39-.02-.13-.07-.31-.16-.53-.12-.32-.2-.58-.23-.78-.03-.2-.03-.42,0-.66.03-.23.09-.48.18-.74.16-.45.37-.8.62-1.08.25-.27.48-.37.69-.31.08.02.14.07.2.13.04.05.09.13.13.25.05.11.09.18.12.18.03,0,.06,0,.09-.04.03-.04.09-.14.16-.3l.05.02"/>
        <path class="cls-2" d="m28.64,47.13l-.46,1.53-.06-.02c.07-.36.11-.63.11-.79,0-.17-.02-.3-.08-.42-.03-.06-.1-.11-.21-.14l-.18-.05-1.32,4.35c-.09.29-.14.47-.14.55,0,.08,0,.15.02.21.02.07.07.11.14.12l.08.02-.05.15-1.25-.32.05-.15.08.02c.07.02.13,0,.19-.05.04-.03.09-.09.13-.18.03-.06.09-.23.18-.52l1.32-4.35-.17-.04c-.16-.04-.3,0-.42.15-.17.2-.33.5-.49.91l-.07-.02.46-1.53,2.14.55"/>
        <path class="cls-2" d="m31.46,47.66l-.03.16c-.09.01-.16.06-.22.14-.08.11-.24.43-.47.95l-.92,2.04-.25,1.42c-.05.3-.08.49-.08.57,0,.07.02.14.05.2.03.06.08.1.15.11l.14.02-.03.16-1.41-.2.03-.16.13.02c.07.01.14-.01.19-.07.04-.04.08-.1.11-.2.03-.07.06-.25.12-.54l.21-1.18-.15-2.6c-.03-.51-.06-.82-.1-.91-.03-.1-.09-.15-.17-.16l.03-.16,1.2.17-.03.16h-.05c-.07-.02-.13,0-.17.04-.04.04-.06.09-.07.15-.02.1-.01.37.01.8l.11,2.01.76-1.7c.19-.42.29-.69.32-.84.01-.08,0-.14-.01-.2-.03-.08-.1-.13-.21-.16l.03-.16.77.11"/>
        <path class="cls-2" d="m34.12,48.34c-.23-.02-.43.23-.61.76-.15.43-.28,1.07-.38,1.9-.12.99-.13,1.73-.04,2.22.06.34.19.52.37.54.13.01.24-.05.34-.18.13-.17.25-.45.36-.85.11-.39.2-.91.28-1.56.09-.77.13-1.34.12-1.73-.01-.39-.06-.66-.13-.83-.08-.17-.17-.26-.3-.27m.01-.28c.4,0,.69.31.86.91.18.6.21,1.33.11,2.19-.09.74-.26,1.37-.51,1.91-.33.72-.72,1.05-1.17,1.01-.44-.05-.75-.44-.9-1.17-.12-.58-.14-1.25-.05-2.02.1-.86.32-1.57.64-2.11.32-.55.66-.79,1.02-.71Z"/>
        <path class="cls-2" d="m36.07,48.62l-.04,2.41h.07c.11,0,.2-.04.27-.11.07-.08.13-.21.18-.39.05-.18.09-.43.1-.75h.06s-.05,2.94-.05,2.94h-.06c-.01-.56-.07-.92-.17-1.1-.1-.18-.21-.27-.34-.27h-.07s-.03,1.79-.03,1.79c0,.3,0,.49.01.56.01.08.04.14.08.2.04.06.09.09.16.09h.08s0,.16,0,.16l-1.27-.02v-.16s.08,0,.08,0c.07,0,.13-.03.17-.09.03-.04.06-.11.08-.21.01-.07.02-.25.03-.54l.06-3.85c0-.3,0-.49-.01-.56-.01-.08-.04-.14-.08-.2-.04-.06-.09-.09-.16-.09h-.08s0-.16,0-.16l2.05.03-.03,1.68h-.07c0-.4-.05-.69-.11-.88-.07-.19-.16-.33-.29-.41-.07-.04-.2-.07-.4-.07h-.23"/>
        <path class="cls-2" d="m42.56,47.88l.39,2.03h-.07c-.16-.51-.33-.9-.53-1.15-.2-.26-.39-.37-.58-.33-.15.03-.28.16-.36.39-.09.23-.13.53-.12.88,0,.45.06.94.16,1.47.1.52.22,1,.36,1.42.14.42.29.73.45.93.16.2.34.28.53.25.16-.03.28-.13.38-.32.1-.18.18-.49.25-.91l.1.51c-.07.37-.17.64-.29.83-.12.18-.28.29-.48.33-.26.05-.52-.03-.77-.25-.25-.21-.48-.54-.68-.99-.2-.45-.35-.94-.45-1.47-.11-.56-.15-1.1-.12-1.63.03-.52.12-.95.27-1.26.16-.32.35-.49.59-.54.17-.03.37.02.6.17.13.08.21.12.24.12.04,0,.07-.05.08-.12.02-.07.01-.18,0-.33h.07"/>
        <path class="cls-2" d="m45.17,53.28l.03.16-1.21.25-.03-.16.08-.02c.07-.01.12-.06.14-.12.02-.05.03-.12.03-.22,0-.07-.03-.25-.08-.54l-.74-3.78c-.06-.29-.1-.48-.13-.55-.03-.07-.06-.13-.11-.18-.05-.05-.11-.06-.17-.05l-.08.02-.03-.16,1.21-.25.03.16-.08.02c-.07.01-.12.05-.15.12-.02.05-.03.12-.03.22,0,.07.03.25.09.54l.74,3.78c.06.29.1.48.13.55.03.07.07.13.11.18.05.05.11.07.17.05l.08-.02"/>
        <path class="cls-2" d="m60.33,40.76l2.65,3.8c.14.2.23.32.27.36.04.04.08.06.12.07.06.02.11,0,.17-.04.18-.13.23-.36.13-.7-.13-.46-.46-1.08-1-1.85-.44-.63-.83-1.09-1.18-1.4-.27-.24-.5-.38-.69-.4-.13-.02-.29.04-.47.17m2.35,5.19l-.09-.13.07-.05c.06-.05.1-.1.1-.17,0-.07-.01-.15-.05-.23-.02-.06-.12-.21-.3-.46l-2.23-3.2c-.17-.25-.29-.4-.34-.45-.06-.05-.12-.09-.19-.11-.07-.02-.14,0-.2.03l-.07.05-.09-.13,1-.69c.27-.19.54-.26.81-.21.33.06.69.24,1.06.56.38.32.74.73,1.08,1.23.24.34.43.68.58,1,.15.32.25.61.3.85.05.24.06.46.04.65-.03.19-.09.36-.2.53-.05.08-.14.16-.29.26l-1,.69Z"/>
        <path class="cls-2" d="m68.99,22.02l1.99-.52.48,2.07-.15.05-.02-.08c-.02-.07-.06-.11-.13-.14-.05-.02-.12-.02-.22,0-.07,0-.24.05-.53.14l-3.69,1.13c-.29.09-.46.15-.53.18-.07.03-.13.08-.17.13-.04.05-.06.11-.04.18l.02.08-.15.05-.29-1.24.15-.05.02.1c.02.07.06.11.12.14.05.02.12.02.22,0,.07,0,.24-.05.53-.14l3.58-1.1c.29-.09.47-.15.54-.19.08-.04.13-.08.16-.14.02-.04.01-.11-.01-.22l-.05-.19c-.03-.12-.11-.21-.23-.26-.12-.05-.31-.07-.55-.06-.24,0-.59.05-1.04.14l-.02-.07"/>
        <path class="cls-2" d="m10.02,16.58l-1.51-1.03c-.25-.17-.41-.27-.48-.3-.07-.03-.14-.04-.21-.04-.07,0-.13.04-.18.1l-.05.08-.13-.09.82-1.2.13.09-.05.08c-.05.07-.06.14-.03.21.01.05.06.11.13.19.05.05.19.16.44.33l3.2,2.19c.25.17.41.27.48.3.07.03.14.04.21.04.07,0,.13-.04.17-.1l.05-.08.13.09-.82,1.2-.13-.09.05-.08c.05-.07.06-.14.03-.21-.01-.05-.05-.11-.13-.19-.05-.05-.2-.16-.44-.33l-1.38-.94-.55.81,1.38.94c.25.17.41.27.48.3.07.03.14.04.21.04.07,0,.13-.04.18-.11l.05-.07.13.09-.82,1.19-.13-.09.05-.07c.05-.07.06-.14.03-.21-.01-.05-.06-.11-.13-.19-.05-.05-.2-.16-.44-.33l-3.2-2.19c-.25-.17-.41-.27-.48-.3-.07-.03-.14-.04-.21-.04-.07,0-.13.04-.18.11l-.05.07-.13-.09.82-1.19.13.09-.05.07c-.05.07-.06.14-.03.21.01.05.06.11.13.19.05.05.19.16.44.33l1.51,1.03.55-.81"/>
        <path class="cls-2" d="m11.3,20.04l-.8,1.2-.14-.09.04-.06c.06-.09.08-.17.06-.23-.02-.06-.06-.12-.12-.18-.06-.06-.24-.19-.52-.38l-2.44-1.63c-.45-.3-.75-.48-.92-.54-.17-.06-.32-.09-.46-.09-.14,0-.25.07-.32.18-.08.13-.09.27-.03.44.06.17.19.35.37.53.18.19.54.46,1.07.81l2.03,1.35c.22.15.39.24.5.29.11.04.19.06.25.05.09-.01.17-.07.23-.16l.14.09-.54.8-.14-.09.03-.05c.04-.07.05-.14.02-.22-.03-.08-.09-.17-.19-.26-.07-.07-.2-.17-.41-.3l-1.89-1.26c-.59-.39-1-.69-1.23-.9-.24-.21-.42-.46-.54-.74-.13-.29-.11-.55.05-.79.13-.2.3-.32.48-.35.26-.04.53-.02.81.08.29.1.64.29,1.05.57l2.44,1.63c.29.19.47.3.55.33.08.03.15.04.22.03.07,0,.13-.06.19-.16l.14.09"/>
        <path class="cls-2" d="m6.27,21.72l1.81.36-1.47-1-.34.63m-.38-.08l.4-.86-.71-.52c-.16-.12-.2-.2-.31-.26-.15-.07-.28-.1-.37-.08-.06.01-.12.08-.19.19l-.15-.07.33-.81.15.07c0,.1.05.21.16.33.11.12.25.32.63.6l3.95,2.88-.07.12-4.73-1.28c-.46-.12-.75-.18-.89-.17-.1,0-.26.04-.31.1l-.15-.07.57-1.18.15.07-.02.05c-.04.09-.04.18,0,.24.03.05.09.09.17.13.05.02.1.04.15.06.03,0,.14.02.32.09l.9.36Z"/>
        <path class="cls-2" d="m9.02,25.57l-5.25-2.43-.08.47c-.04.22-.04.38.02.48.08.16.25.32.5.47.26.15.62.29,1.08.41v.07s-2.11-.48-2.11-.48l.4-2.24,5.26,2.43.07-.36c.03-.14.03-.24.02-.28-.02-.09-.08-.18-.18-.28-.1-.09-.23-.18-.41-.26-.17-.08-.4-.16-.68-.24v-.07s1.71.37,1.71.37l-.35,1.93"/>
        <path class="cls-2" d="m5.68,26.42l-1.83-.22c-.3-.04-.49-.05-.57-.05-.08,0-.15.03-.21.06-.06.04-.1.09-.1.16v.09s-.17-.02-.17-.02l.15-1.36.16.02v.09c-.02.08,0,.14.06.19.04.04.1.07.2.1.07.02.25.05.55.09l3.88.46c.3.04.49.05.57.05.08,0,.15-.03.21-.06.06-.04.1-.09.1-.16v-.09s.17.02.17.02l-.15,1.36-.16-.02v-.09c.02-.08,0-.14-.06-.19-.04-.04-.1-.07-.2-.1-.07-.02-.25-.05-.55-.09l-1.67-.2-.1.92,1.67.2c.3.04.49.05.57.05.08,0,.15-.03.21-.06.06-.04.1-.09.1-.16v-.08s.17.02.17.02l-.15,1.36-.16-.02v-.08c.02-.08,0-.14-.06-.19-.04-.04-.1-.07-.2-.1-.07-.02-.25-.05-.55-.09l-3.88-.46c-.3-.04-.49-.05-.57-.05-.08,0-.15.03-.21.06-.06.04-.1.09-.11.16v.08s-.17-.02-.17-.02l.15-1.36.16.02v.08c-.02.08,0,.14.06.19.04.04.1.07.2.1.07.02.25.05.55.09l1.83.22.1-.92"/>
        <path class="cls-2" d="m8.44,29.79c-.02-.22-.32-.38-.89-.47-.47-.07-1.13-.08-1.99-.03-1.02.06-1.77.17-2.24.35-.33.12-.49.27-.47.46.01.12.09.22.25.3.2.1.51.16.93.2.42.04.96.04,1.62,0,.79-.04,1.38-.11,1.77-.19.39-.08.66-.17.81-.28.15-.1.22-.21.21-.34m.28-.04c.07.39-.18.72-.75,1-.57.28-1.3.44-2.19.49-.76.04-1.43-.01-2.03-.16-.79-.2-1.2-.52-1.24-.96-.04-.44.29-.8,1-1.08.56-.22,1.23-.36,2.02-.4.89-.05,1.64.03,2.25.25.62.22.92.5.92.87Z"/>
        <path class="cls-2" d="m8.93,31.57l-3.27,2.11,2.47-.55c.34-.08.57-.15.68-.22.15-.1.21-.22.17-.37l.16-.04.2.88-.16.04c-.06-.11-.11-.17-.17-.2-.06-.03-.15-.04-.26-.04-.12,0-.31.04-.58.1l-4.78,1.07v-.07s4.37-2.87,4.37-2.87l-3.65.82c-.33.07-.54.16-.64.25-.1.1-.14.19-.12.28v.06s-.14.03-.14.03l-.21-.95.16-.03c.04.15.12.23.26.26.14.03.36.01.67-.06l4.05-.91.14-.09c.14-.09.23-.16.27-.22.04-.05.05-.12.04-.2l.16-.04.21.95"/>
        <path class="cls-2" d="m10.15,35.04l-1.91.86-.02-.06c.49-.31.85-.6,1.06-.87.21-.27.29-.49.22-.67-.07-.17-.23-.26-.5-.27-.27,0-.62.05-1.04.19-.42.14-.85.3-1.28.49-.52.23-.96.46-1.33.69-.37.23-.63.44-.77.63-.14.2-.18.37-.12.53.02.05.06.1.11.15.05.05.11.09.19.12l1.88-.72c.22-.08.35-.16.41-.2.06-.04.11-.09.14-.15.04-.06.04-.12.02-.17l-.02-.06.15-.07.38,1-.15.07c-.05-.08-.1-.12-.15-.14-.05-.01-.13,0-.23.02-.05.01-.18.06-.38.15l-1.83.82c-.21-.08-.39-.17-.52-.29-.14-.12-.24-.26-.31-.43-.08-.21-.08-.42,0-.63.09-.2.22-.41.4-.62.19-.21.41-.41.67-.6.34-.24.73-.47,1.19-.67.81-.37,1.55-.55,2.2-.57.65-.01,1.05.16,1.19.52.04.11.06.22.05.33,0,.06-.03.17-.09.32-.06.15-.08.24-.07.26.01.03.05.05.12.05.06,0,.18-.02.34-.07l.02.06"/>
        <path class="cls-2" d="m11.14,36.39l.86,1.16-.13.1-.04-.06c-.06-.09-.13-.13-.19-.14-.06,0-.13.01-.21.05-.08.04-.26.16-.53.36l-2.35,1.75c-.43.32-.7.55-.82.68-.12.13-.19.27-.24.41-.04.14-.02.26.06.37.09.12.23.18.41.18.18,0,.39-.06.63-.17.24-.11.61-.36,1.12-.74l1.96-1.46c.21-.16.36-.29.44-.38.08-.09.12-.16.13-.22.02-.09,0-.18-.08-.27l.13-.1.58.78-.13.1-.03-.05c-.05-.06-.11-.1-.2-.1-.09,0-.19.03-.31.09-.09.04-.23.14-.42.28l-1.82,1.36c-.56.42-.99.71-1.26.86-.28.15-.57.24-.88.26-.31.02-.55-.08-.73-.32-.14-.19-.2-.38-.17-.57.04-.26.16-.5.35-.74.19-.24.49-.5.89-.8l2.35-1.75c.28-.21.44-.34.5-.41.06-.06.09-.13.11-.19.01-.07-.02-.14-.09-.24l.13-.1"/>
        <path class="cls-2" d="m13.86,39.49l-1.78,3.46,1.86-1.71c.26-.24.42-.42.48-.54.08-.16.07-.3-.04-.4l.12-.11.61.67-.12.11c-.1-.06-.18-.09-.25-.09-.06,0-.15.04-.24.1-.1.06-.25.19-.46.37l-3.61,3.32-.05-.05,2.36-4.68-2.76,2.53c-.25.23-.39.41-.43.54-.04.13-.03.23.03.3l.04.05-.12.11-.65-.71.12-.11c.1.11.22.14.36.1.14-.04.32-.17.55-.38l3.06-2.81.08-.15c.08-.15.12-.25.12-.32,0-.07-.02-.13-.07-.2l.12-.11.65.71"/>
        <path class="cls-2" d="m24.4,51.93l-.05.15-1.18-.36.05-.15.07.02c.07.02.13,0,.19-.04.04-.03.09-.09.13-.18.03-.06.1-.23.19-.51l1.23-3.68c.1-.29.15-.47.16-.54.01-.08,0-.14-.01-.21-.02-.06-.06-.11-.12-.13l-.08-.02.05-.15,1.18.35-.05.15-.07-.02c-.07-.02-.13,0-.19.04-.04.03-.09.09-.13.18-.03.06-.1.23-.19.51l-1.23,3.68c-.1.29-.15.47-.16.54-.01.08,0,.14.01.21.02.07.06.11.12.13l.07.02"/>
        <path class="cls-2" d="m39.9,48.06l.38,1.95-.08.02c-.13-.48-.29-.86-.49-1.13-.2-.27-.38-.39-.55-.35-.13.03-.22.13-.26.3-.05.17-.05.36-.02.57.02.13.06.24.1.34.06.13.14.25.25.37.08.08.25.22.51.42.36.28.63.56.79.83.16.28.27.61.34,1,.09.49.08.93-.02,1.32-.1.39-.29.61-.55.66-.08.02-.16.01-.24,0-.08-.02-.18-.08-.31-.16-.07-.05-.13-.06-.17-.06-.03,0-.06.04-.09.11-.03.07-.04.16-.04.28h-.07s-.4-2.21-.4-2.21h.07c.17.6.36,1.05.58,1.35.22.3.42.43.6.39.14-.03.24-.14.29-.33.05-.19.06-.41.02-.64-.03-.14-.07-.27-.12-.39-.06-.12-.13-.24-.21-.34-.09-.1-.23-.23-.43-.39-.28-.22-.49-.41-.63-.57-.14-.16-.25-.36-.35-.57-.1-.22-.17-.46-.22-.74-.08-.47-.08-.88.01-1.24.09-.36.25-.56.48-.61.08-.02.17-.01.26.02.07.02.15.07.25.15.1.08.17.11.21.1.03,0,.05-.04.07-.09.01-.05,0-.16,0-.34h.06"/>
        <path class="cls-2" d="m45.4,47.7l.46,2.29h.05c.13-.04.6-.01.63-.4.02-.25-.01-.17-.06-.58l.14-.07.45,2.09-.16.07c-.05-.31,0-.24-.1-.45-.09-.2-.11-.25-.19-.31-.07-.06-.52.04-.63.07l.35,1.64c.07.32.12.52.14.59.03.07.06.12.1.16.04.04.09.05.16.04l.14-.03c.22-.05.37-.22.45-.5.08-.28.12-.33.07-.86h.22s.11,1.51.11,1.51l-2.03.46-.03-.16.08-.02c.07-.02.12-.06.14-.13.02-.05.03-.12.03-.22,0-.07-.03-.25-.1-.55l-.82-3.84c-.06-.26-.09-.43-.11-.48-.03-.1-.07-.17-.11-.22-.06-.07-.13-.1-.21-.08l-.08.02-.03-.16,1.97-.44.39,1.34-.18.06c-.12-.41-.15-.36-.25-.53-.1-.17-.21-.29-.34-.35-.08-.04-.2-.04-.38,0l-.24.05"/>
        <path class="cls-2" d="m47.57,46.9l2.4,3.12-.74-2.43c-.1-.34-.2-.56-.28-.67-.11-.14-.24-.19-.39-.14l-.05-.16.9-.25.05.15c-.11.06-.17.12-.19.18-.02.06-.03.15-.02.26.01.12.06.31.14.57l1.43,4.7-.07.02-3.26-4.18,1.09,3.59c.1.32.2.53.31.63.11.1.21.13.3.1l.06-.02.05.15-.96.27-.05-.15c.15-.04.23-.14.25-.28.02-.14-.01-.36-.11-.66l-1.21-3.99-.1-.13c-.1-.13-.18-.22-.24-.25-.06-.03-.13-.04-.21-.02l-.05-.15.96-.27"/>
        <path class="cls-2" d="m51.5,45.61l.64,1.97-.07.02c-.22-.5-.44-.86-.67-1.09-.23-.23-.43-.32-.61-.26-.15.05-.25.19-.31.44-.06.24-.06.54-.01.89.06.45.18.93.34,1.44.16.51.34.96.53,1.36.19.4.38.69.56.87.18.18.37.24.55.18.15-.05.26-.17.34-.37.07-.2.12-.51.13-.93l.16.49c-.03.37-.09.66-.19.86-.1.2-.24.32-.44.39-.25.08-.52.03-.8-.15-.28-.18-.54-.48-.8-.9-.25-.42-.47-.89-.63-1.4-.18-.54-.28-1.07-.32-1.6-.04-.52,0-.95.12-1.28.12-.33.29-.53.52-.61.17-.05.37-.02.62.09.14.07.23.1.26.09.04-.01.06-.06.07-.13,0-.07,0-.18-.05-.33l.07-.02"/>
        <path class="cls-2" d="m52.68,45.57l.85,2.17.04-.02c.13-.05.59-.1.55-.5-.02-.25-.04-.16-.16-.56l.13-.1.8,1.98-.15.09c-.1-.3-.05-.24-.18-.42-.12-.18-.16-.23-.24-.27-.08-.05-.51.13-.61.18l.63,1.56c.12.3.2.49.24.55.04.06.08.11.13.14.05.03.1.03.16,0l.13-.06c.21-.09.32-.28.35-.57.03-.29.06-.35-.08-.86l.22-.02.36,1.46-1.92.81-.06-.15.07-.03c.06-.03.1-.08.12-.15.01-.05,0-.12-.01-.22-.01-.07-.08-.24-.19-.52l-1.48-3.64c-.1-.25-.17-.4-.2-.46-.05-.09-.1-.16-.15-.19-.07-.06-.14-.07-.22-.04l-.07.03-.06-.15,1.86-.78.62,1.25-.17.09c-.19-.39-.21-.33-.34-.48s-.26-.24-.4-.28c-.08-.02-.21,0-.37.07l-.23.1"/>
        <path class="cls-2" d="m57.89,46.56l-1.27-1.33.63,1.66.64-.32m.26.28l-.82.47.28.84c.06.19.05.28.11.39.08.15.17.24.26.28.05.02.14,0,.27-.05l.08.14-.73.47-.08-.14c.06-.08.08-.2.06-.36-.02-.16-.02-.41-.18-.85l-1.59-4.62.13-.06,3.14,3.76c.3.36.52.58.63.65.08.06.24.12.31.09l.08.14-1.14.64-.08-.14.04-.03c.09-.06.13-.12.13-.2,0-.06-.02-.12-.07-.2-.03-.05-.06-.09-.09-.14-.02-.02-.11-.09-.21-.26l-.53-.81Z"/>
        <path class="cls-2" d="m57.64,42.4l3.26,2.21-1.47-2.07c-.2-.29-.36-.47-.47-.54-.15-.1-.29-.1-.42-.01l-.09-.13.77-.52.09.13c-.08.09-.12.17-.13.24,0,.06.02.15.06.26.05.11.15.27.31.5l2.84,4.01-.06.04-4.42-2.94,2.17,3.06c.2.28.36.44.49.5.13.06.24.06.31,0l.05-.04.09.13-.83.56-.09-.13c.13-.09.18-.2.15-.35-.02-.14-.13-.34-.31-.59l-2.41-3.4-.14-.09c-.14-.09-.24-.15-.31-.16-.07-.01-.14,0-.21.04l-.09-.13.83-.56"/>
        <path class="cls-2" d="m63.29,36.9l1.27.97-.04.05c-.32-.19-.55-.32-.7-.38-.16-.06-.29-.08-.42-.07-.07,0-.13.06-.2.15l-.11.15,3.61,2.77c.24.18.39.29.46.33.07.03.14.05.2.05.07,0,.12-.03.16-.08l.05-.07.13.1-.74,1.05-.13-.1.05-.07c.04-.06.05-.12.03-.2-.01-.05-.05-.11-.12-.19-.05-.05-.19-.17-.42-.35l-3.61-2.77-.1.15c-.09.14-.1.28,0,.45.13.23.35.49.68.77l-.04.06-1.27-.97,1.27-1.81"/>
        <path class="cls-2" d="m64.17,36.16l1.97,1.25.02-.04c.07-.12.41-.43.15-.73-.16-.19-.13-.11-.46-.36l.05-.15,1.82,1.12-.07.16c-.26-.18-.18-.16-.39-.24-.21-.08-.26-.09-.35-.08-.09.01-.33.41-.39.5l1.43.88c.28.17.45.27.52.3.07.03.13.04.19.04.06,0,.1-.03.14-.09l.07-.12c.12-.19.1-.41-.05-.67-.15-.25-.15-.32-.57-.65l.16-.15,1.15.96-1.08,1.79-.14-.09.04-.07c.04-.06.04-.12,0-.19-.02-.05-.07-.11-.14-.17-.05-.05-.21-.15-.46-.31l-3.34-2.06c-.23-.14-.37-.23-.43-.25-.09-.04-.17-.07-.24-.07-.09,0-.16.03-.2.09l-.04.07-.14-.09,1.04-1.73,1.24.64-.08.17c-.38-.2-.36-.14-.55-.19-.19-.05-.35-.04-.49,0-.08.03-.17.12-.26.28l-.13.21"/>
        <path class="cls-2" d="m65.28,33.22l1.97.62-.02.07c-.53-.11-.96-.14-1.28-.08-.32.06-.51.17-.57.35-.05.15.01.32.18.51.17.19.4.36.72.52.4.21.86.39,1.38.55.51.16.98.28,1.42.35.44.08.78.09,1.03.04.25-.05.41-.16.47-.35.05-.15.01-.31-.1-.49-.12-.17-.34-.39-.68-.65l.49.15c.29.24.49.45.59.65.1.19.12.39.06.58-.08.25-.28.44-.58.56-.31.12-.71.16-1.2.13-.49-.04-1-.13-1.51-.3-.54-.17-1.04-.39-1.49-.66-.45-.27-.78-.55-.98-.84-.2-.29-.27-.54-.2-.77.05-.17.2-.32.43-.45.14-.08.21-.13.22-.16.01-.04-.01-.08-.07-.13-.06-.05-.16-.1-.3-.15l.02-.07"/>
        <path class="cls-2" d="m68.6,32.77l1.79.41c.3.07.48.1.56.11.08,0,.15-.01.21-.04.07-.03.11-.08.12-.15l.02-.08.16.04-.29,1.34-.16-.04.02-.08c.02-.07,0-.14-.05-.2-.03-.04-.1-.08-.19-.12-.06-.03-.24-.08-.53-.14l-3.81-.88c-.3-.07-.48-.1-.56-.11-.08,0-.15,0-.21.04-.06.03-.1.08-.12.15l-.02.08-.16-.04.29-1.34.16.04-.02.08c-.02.07,0,.14.05.2.03.04.1.08.19.12.07.03.24.08.53.14l1.64.38.2-.9-1.64-.38c-.3-.07-.48-.1-.56-.11-.08,0-.15.01-.21.04-.06.03-.1.08-.12.15l-.02.08-.16-.04.29-1.33.16.04-.02.08c-.02.08,0,.14.05.2.03.04.1.08.19.12.07.03.24.08.53.14l3.81.88c.3.07.48.1.56.11.08,0,.15-.01.21-.04.07-.03.11-.08.12-.15l.02-.08.16.04-.29,1.33-.16-.04.02-.08c.02-.08,0-.14-.05-.2-.03-.04-.1-.08-.19-.12-.06-.03-.24-.08-.53-.14l-1.79-.41-.2.9"/>
        <path class="cls-2" d="m66.1,29.15l3.74-1.24-2.54-.1c-.35-.01-.59,0-.72.04-.17.06-.26.17-.26.32h-.16s.05-.94.05-.94h.16c.02.13.06.21.11.25.05.04.13.08.24.11.11.03.31.05.59.06l4.91.2v.07s-5.03,1.71-5.03,1.71l3.75.15c.34.01.57-.01.69-.08.12-.07.19-.15.2-.25v-.07s.16,0,.16,0l-.06,1h-.16c0-.16-.05-.27-.18-.34-.13-.07-.35-.11-.66-.12l-4.16-.17-.16.05c-.16.05-.26.1-.32.15-.05.04-.08.11-.09.19h-.16s.06-1,.06-1"/>
        <path class="cls-2" d="m66.27,26.24c.03.23.34.36.91.41.47.04,1.13,0,1.97-.11,1.01-.13,1.74-.3,2.2-.51.32-.15.47-.31.44-.5-.02-.12-.11-.22-.26-.28-.2-.08-.51-.13-.93-.13-.42,0-.95.03-1.61.11-.78.1-1.36.2-1.74.31-.38.11-.64.22-.79.34-.15.11-.21.23-.19.35m-.27.06c-.09-.39.13-.74.68-1.06.55-.32,1.26-.53,2.14-.65.75-.1,1.42-.09,2.02.02.79.15,1.22.44,1.29.88.07.44-.24.83-.93,1.16-.54.26-1.2.45-1.98.55-.88.11-1.63.08-2.25-.09-.62-.17-.95-.44-.96-.81Z"/>
        <path class="cls-2" d="m63.02,19.45l1.78-1.18.04.06c-.44.39-.75.74-.92,1.04-.17.3-.2.54-.1.7.1.15.29.21.56.17.28-.04.62-.16,1.02-.37.41-.21.81-.45,1.21-.71.48-.32.89-.63,1.23-.92.34-.29.56-.54.66-.76.11-.22.11-.4.02-.54-.03-.05-.08-.09-.14-.13-.06-.04-.13-.06-.21-.09l-1.77,1.05c-.2.12-.32.22-.37.27-.05.05-.09.11-.12.17-.02.07-.02.12,0,.18l.03.05-.14.09-.57-.92.14-.09c.06.07.12.1.18.11.06,0,.14-.02.24-.06.05-.02.17-.09.36-.22l1.7-1.13c.23.04.42.1.59.2.16.09.29.22.39.37.12.2.16.4.11.62-.05.22-.15.44-.3.68-.15.24-.34.48-.57.71-.3.3-.66.59-1.08.87-.76.5-1.47.82-2.13.95-.66.13-1.1.03-1.31-.3-.06-.1-.1-.21-.12-.32,0-.06,0-.17.03-.33.03-.16.04-.25.03-.27-.02-.03-.06-.04-.13-.03-.07,0-.18.05-.33.12l-.04-.06"/>
        <path class="cls-2" d="m61.3,17.09l.13-.1c.07.05.16.07.26.05.14-.02.47-.15.99-.37l2.07-.86,1.15-.86c.25-.18.4-.3.45-.36.05-.05.09-.12.11-.18.02-.07.01-.13-.03-.18l-.09-.11.13-.1.89,1.11-.13.1-.08-.1c-.05-.06-.11-.09-.19-.08-.05,0-.12.02-.22.07-.06.03-.22.14-.46.31l-.96.71-1.67,1.99c-.33.39-.51.64-.56.73-.04.09-.04.17.01.23l-.13.1-.76-.95.13-.1.03.04c.05.06.1.08.16.08.06,0,.11-.03.15-.06.08-.06.27-.26.54-.59l1.29-1.54-1.72.72c-.42.17-.69.3-.81.39-.06.05-.11.1-.13.16-.03.08-.02.16.04.26l-.13.1-.48-.61"/>
        <path class="cls-2" d="m65.06,22.21c.1.21.42.24.98.12.45-.1,1.07-.33,1.84-.69.92-.42,1.57-.8,1.95-1.14.26-.24.35-.44.27-.61-.05-.11-.17-.18-.33-.19-.22-.02-.52.03-.92.15-.4.12-.9.31-1.5.59-.71.33-1.24.6-1.56.82-.33.22-.54.4-.65.56-.1.15-.13.28-.08.39m-.24.14c-.2-.34-.09-.75.34-1.21.43-.47,1.04-.89,1.84-1.25.68-.31,1.33-.51,1.93-.58.79-.1,1.29.06,1.48.46.19.4.01.86-.54,1.39-.44.41-1.01.78-1.73,1.11-.8.37-1.52.56-2.16.58-.64.02-1.03-.14-1.15-.49Z"/>
        <g>
          <path class="cls-1" d="m22.04,36.11c0-.07-.02-.12-.05-.15-.02-.02-.05-.04-.09-.04-.05,0-.09.02-.13.06-.02.01-.03.04-.04.09-.02.08,0,.14.05.17.05.02.1.06.15.13.02.05.03.09.03.13,0,.03-.02.04-.05.05-.02.01-.07.03-.16.05-.07.02-.1.05-.1.09,0,.04-.01.08-.02.11,0,.01,0,.02,0,.03,0,0,0,.02,0,.03.03-.02.07-.04.11-.05l.12-.07s.02-.02.03-.02c.09-.04.14-.1.14-.17,0-.22,0-.35,0-.37,0-.02-.01-.04-.01-.07Z"/>
          <path class="cls-1" d="m26.55,37.42s.15,0,.35,0c0,0,0,0,0-.02,0,0-.01-.02-.02-.03-.04-.04-.09-.08-.13-.11l-.27.06s-.02,0-.02.01.02.03.06.07c0,0,0,0,.02.02Z"/>
          <path class="cls-1" d="m31.6,36.43l.02.02s.24-.03.64-.08c.03.02.05.04.08.06h.03c.06-.05.09-.14.09-.28,0-.07-.02-.11-.05-.13-.03-.02-.08-.03-.13-.03-.16,0-.26.01-.32.04l-.14.05c-.1.04-.15.06-.16.06-.05.01-.07.02-.07.03-.01.01-.01.09,0,.24,0,0,0,.02,0,.02Zm.06-.22s.03-.01.08-.02c0,0,0,0,.05-.01.17-.05.29-.08.35-.08.05,0,.08.03.08.08,0,.04-.01.07-.03.09-.09.06-.21.09-.35.09-.07,0-.12,0-.13-.02v-.02s-.05-.05-.06-.07c0-.02.01-.03.02-.04Z"/>
          <path class="cls-1" d="m27,37.51s-.05.03-.11.08c-.07.05-.12.07-.16.08-.05,0-.08.02-.1.03h-.02s-.06-.03-.1-.08c-.06-.07-.1-.14-.11-.21-.02-.05-.04-.08-.07-.08-.03,0-.05,0-.05.02-.01.01-.02.04-.02.07,0,.18.02.3.07.35.06.08.25.12.57.12.11,0,.18-.02.22-.04.02-.03.04-.05.04-.07,0-.07-.03-.14-.09-.23-.02-.03-.04-.05-.05-.05Z"/>
          <path class="cls-1" d="m26.91,36.79s.03,0,.05,0c.02,0,.03,0,.05-.01.07-.04.11-.13.13-.27,0-.05-.02-.08-.06-.09-.03,0-.05,0-.05,0-.06,0-.09.02-.1.07-.01.04-.02.08-.03.1,0,.01,0,.02,0,.03,0,.02,0,.04,0,.06-.02.04-.03.06-.03.08,0,.04.02.06.06.06Z"/>
          <path class="cls-1" d="m21.98,36.97h0s0,.01-.01.01c-.06.03-.12.07-.19.13-.03.02-.04.03-.04.03,0,0,.01.01.01.01.09.04.17.05.25.05.03,0,.04-.02.04-.06,0-.11-.01-.17-.04-.19-.02,0-.03,0-.03,0Z"/>
          <path class="cls-1" d="m26.54,36.75s.05-.02.08-.05c.03-.03.05-.1.05-.21-.01,0-.04-.01-.09-.01s-.08.02-.11.06v.13c0,.06.02.09.07.09Z"/>
          <path class="cls-1" d="m43.88,35.74s-.07-.06-.11-.06c-.08,0-.14.03-.2.08-.04.04-.07.07-.06.08,0,.01,0,.02.02.03.08-.01.13-.02.16-.03.02,0,.03,0,.03,0,.02,0,.04,0,.05.02.01.08,0,.13-.02.17-.02.02-.1.05-.25.11-.05.02-.07.04-.07.07,0,.02.02.03.05.03h.02c.18-.02.27-.02.27,0,.02.08.03.12.05.12.02,0,.03.01.04.01.03,0,.04-.02.04-.05,0-.37-.01-.56-.03-.59Z"/>
          <path class="cls-1" d="m26.19,36.81s.04,0,.06,0c.02-.01.04-.02.04-.03-.01-.03-.02-.06-.04-.11-.02-.05-.05-.07-.1-.07-.02,0-.04,0-.07.02-.01.01-.02.03-.02.05,0,.04.01.07.04.1.02.03.05.04.09.04Z"/>
          <path class="cls-1" d="m51.64,37.16s-.04,0-.08,0c-.04,0-.06.01-.07.03-.01.01-.02.06-.02.13,0,.01,0,.02,0,.04-.01.04-.02.09-.02.14h0s.03.05.05.06c.03.02.08.02.13.02.06,0,.1-.01.12-.03.02-.01.03-.03.03-.06.01-.19,0-.3-.03-.35-.05,0-.08,0-.11.01Z"/>
          <path class="cls-1" d="m48.12,36.95c.08,0,.13.01.16.05,0,0,0,.03.01.07,0,.02.03.04.08.04s.08-.01.1-.03c.04-.05.06-.1.06-.18,0-.04,0-.07,0-.1,0-.02,0-.04-.02-.05-.05-.02-.1-.01-.16,0-.21.11-.31.17-.31.18,0,0,.01.01.02.01.02,0,.03,0,.04,0Z"/>
          <path class="cls-1" d="m43.48,36.89s-.07.01-.09.04c-.04.03-.06.07-.06.12,0,.05.02.08.04.1.08.07.15.1.2.1.02,0,.02-.01.02-.03v-.19c-.02-.09-.05-.13-.11-.13Z"/>
          <path class="cls-1" d="m17.46,34.7c.69,1.6,1.66,3.06,2.95,4.34h34.11c1.14-1.27,2.16-2.69,2.98-4.34H17.46Zm34.47.56s.08-.05.12-.05h.01s.05.07.05.07c.13.16.17.3.14.43-.06.02-.1.03-.12.03-.1,0-.18-.03-.26-.1-.04-.04-.06-.07-.06-.1,0-.12.04-.21.12-.28Zm-2.64,1.07s0,0,.01,0c.18.02.28.05.31.08.01,0,.02.01.02.02-.05.17-.08.28-.08.34,0,.11-.03.19-.08.22-.03.02-.06.03-.1.03-.03,0-.05-.02-.07-.05-.03-.04-.06-.11-.06-.2l-.02-.33s-.01-.03-.01-.04c0-.05.03-.07.08-.07Zm-8.5-.58s.02-.03.06-.04c0,0,.01,0,.02,0,.04.02.08.04.11.06.16.06.26.11.28.15.04.03.05.07.05.13-.01,0-.02,0-.02.01-.05,0-.11,0-.17,0-.05,0-.09-.01-.13-.01-.01,0-.02,0-.03,0,0,0-.01,0-.02,0-.01,0-.02,0-.03,0-.07,0-.11-.02-.12-.05,0-.15,0-.24,0-.25Zm-5.85-.22c.07-.02.13-.05.2-.07,0,0,.01,0,.02,0,.17-.04.26-.07.29-.07.02,0,.03.01.03.02-.01.03-.02.06-.03.09-.09.12-.14.22-.16.29-.02.02-.04.03-.05.03-.06,0-.13-.03-.2-.08-.09-.05-.13-.11-.13-.17,0-.02.02-.03.05-.04Zm-.54.14s.07-.04.12-.04c.02,0,.08.03.17.1.15.11.22.19.22.23,0,.06-.05.09-.15.09-.03,0-.11-.01-.22-.01-.1,0-.16-.03-.16-.06-.04-.15-.03-.25.02-.3Zm-8.57.76c.23-.05.39-.09.48-.13.02-.02.04-.05.04-.07,0-.02-.02-.03-.04-.03-.08,0-.22.02-.42.06-.02,0-.04-.01-.06-.04,0,0-.01-.02-.02-.04-.01-.02-.03-.05-.05-.08,0-.01-.01-.02-.01-.03,0-.01.02-.04.06-.07l.05.05s0,0,.01,0c.17-.06.28-.1.32-.1.11-.02.17-.04.21-.06l.05-.16s0-.04.01-.08c0-.03.02-.07.02-.12.01-.07.03-.1.03-.11.04-.02.06-.03.08-.03.04,0,.09.01.14.04.02.01.03.02.03.03-.01.04-.02.08-.03.11l-.05.26s.02.04.04.04c.03,0,.05-.01.05-.01.06-.01.15-.02.26-.03h.05s.01-.02.02-.02c.05-.02.09-.03.1-.03.02,0,.06.03.11.07.03.03.05.06.06.09v.13s-.02.02-.05.02h-.4s-.08,0-.16.03c-.03,0-.05.01-.08.02-.04,0-.07.03-.07.06,0,.03.02.04.05.04,0,0,.03,0,.08-.01.33-.02.58.02.77.1.06.03.09.06.09.08,0,.01-.01.03-.03.06-.09.09-.14.16-.15.21-.04.04-.07.09-.1.13-.06.09-.11.15-.14.18-.01,0-.02.01-.02.02-.08.05-.17.05-.25-.02-.09-.1-.28-.1-.57,0-.08.03-.15.05-.21.06-.02,0-.06-.02-.12-.07-.05-.04-.08-.07-.11-.09-.15-.18-.22-.31-.22-.38,0-.03.05-.05.13-.07Zm-.86-.12s.04-.08.07-.14c.01-.04.05-.1.11-.16.04-.08.09-.14.14-.18.02-.03.04-.06.06-.08.04-.04.07-.07.11-.07s.09.03.15.09c.06.05.09.08.09.1,0,.03-.07.1-.21.21.01,0,.02-.02.04-.03-.02,0-.03.02-.04.03,0,0,0,0,0,0-.07.05-.14.09-.19.14-.14.11-.24.16-.3.16-.02,0-.04-.01-.04-.04,0,0,0-.01,0-.03Zm-.98-.67c-.09.13-.14.33-.14.62,0,.09,0,.18,0,.28.01.1.02.18.02.24,0,.49.02.87.06,1.14,0,.06,0,.1.02.14.01.01.02.02.02.03,0,.03-.02.05-.06.05-.04,0-.09-.01-.14-.03-.17-.06-.3-.1-.38-.11-.28-.1-.44-.18-.48-.22-.02-.03-.03-.05-.03-.06,0-.02.07-.02.22,0,.23.02.36.02.39,0,.02-.02.02-.05.02-.1,0-.12,0-.26-.01-.42-.02-.14-.03-.51-.03-1.12h0c-.02-.18-.04-.28-.07-.3-.02-.02-.05-.03-.09-.03-.06,0-.12.01-.18.03-.08.03-.11.08-.11.15v.1s0,.04.02.04c.06-.01.12-.02.18-.03.07,0,.11.03.11.1,0,.01,0,.02,0,.04-.01.05-.09.12-.24.19-.07.04-.11.1-.11.18,0,.02.02.03.04.03.02,0,.12-.02.28-.03.02,0,.04,0,.05.02,0,0,.02.03.02.08,0,.08,0,.13-.02.15-.01.01-.06.03-.15.05-.02.01-.03.02-.03.02,0,0-.01,0-.02,0-.16.1-.26.17-.3.2,0,0,0,.01,0,.01-.03.03-.05.06-.06.09-.18.31-.27.48-.27.52,0,.03-.03.06-.07.08-.24.12-.4.17-.49.17-.04,0-.05-.01-.05-.03,0,0,.03-.03.07-.07.01,0,.02-.02.03-.03,0-.01.03-.03.07-.05.15-.12.22-.19.22-.21,0-.01-.03-.03-.07-.04-.09-.02-.24-.11-.46-.25-.04-.05-.07-.07-.09-.08-.01,0-.06.02-.13.07-.08.07-.13.1-.14.11l-.21.18s-.1-.03-.19-.1c-.06-.04-.09-.07-.09-.1,0-.02.05-.05.14-.08.02,0,.06-.03.12-.06.12-.09.18-.14.18-.17-.05-.19-.07-.56-.07-1.08,0-.04.06-.07.17-.1.14-.05.37-.1.7-.16.19,0,.32.02.37.07.01.01,0,.07-.07.16-.04.07-.07.13-.07.19,0,.02-.02.18-.02.47,0,.15,0,.29-.02.41-.04.05-.03.17,0,.37,0,0,0,.01,0,.01h0v.02h.02s0,0,0,0c.03-.09.05-.14.09-.16.09-.16.14-.3.14-.41,0-.03.01-.05.01-.07,0-.09.02-.2.05-.35.03-.22.03-.45,0-.66,0-.03.02-.05.06-.07.02,0,.04-.01.06-.01.1,0,.21-.02.35-.05.12-.04.22-.06.32-.06.07-.01.23,0,.5.06.02.01.02.02.02.04,0,0,0,0,0,.01Zm1.34,1.93c-.02.07-.02.21-.01.41,0,.06-.03.1-.1.1-.07,0-.12-.01-.14-.03-.01-.01-.02-.04-.02-.08,0-.32.01-.5.04-.54.01-.02,0-.08-.02-.18-.01-.02-.02-.03-.04-.03-.01,0-.02,0-.03,0,0,0-.02.01-.05.04-.07.05-.22.11-.42.18-.02,0-.04.01-.05.01-.05,0-.07-.01-.07-.03,0-.08.14-.24.4-.47.03-.03.05-.04.05-.05.04-.04.08-.08.12-.12.03-.04.06-.08.08-.1,0,0,.07-.1.19-.27.13-.13.2-.2.21-.2.02,0,.05.02.1.04.07.06.11.09.11.11,0,.06-.07.13-.18.2-.01.01-.03.03-.07.06-.01.01-.02.02-.02.02-.12.11-.18.17-.18.17,0,0,0,0,0,.01-.03.07.02.13.16.16.05.02.08.03.09.05,0,.02-.02.1-.06.22-.04.04-.06.14-.07.3Zm2.25.55s-.06.02-.14.02c-.05,0-.09,0-.1,0-.06,0-.11,0-.16,0,0,0,0,0,0,0-.02,0-.05,0-.07,0,.02,0,.05,0,.07,0-.28-.02-.44-.03-.49-.03-.1,0-.22,0-.34-.03-.02,0-.04,0-.06-.01-.08-.05-.15-.17-.2-.35,0-.03,0-.08-.02-.13-.02-.08-.04-.12-.06-.12-.01,0-.04.04-.08.11,0,0,0,.02-.01.02-.04.05-.06.11-.08.16-.02.04-.03.08-.03.11,0,.03-.02.04-.06.04-.01,0-.08-.02-.2-.06-.08-.03-.11-.05-.11-.07,0-.01,0-.02.01-.03,0,0,.03-.04.08-.09.04-.05.11-.11.2-.17.04-.03.07-.05.1-.06.07-.04.1-.06.1-.08,0-.02-.04-.08-.1-.16,0-.02.03-.03.07-.03.06,0,.12,0,.17-.02.1-.03.2-.05.29-.06.02,0,.04,0,.03,0,.15-.04.3-.06.45-.06.13.02.21.07.25.17,0,.02-.02.03-.05.04-.02,0-.04.01-.07.01-.02,0-.03,0-.03.02,0,.01.02.02.04.04.04.03.08.05.11.08.14.13.21.21.21.23.03.02.07.06.12.12,0,.02.03.04.06.08.07.08.11.17.13.29,0,.01,0,.02-.02.03Zm.5-.5s-.03.06-.06.06c-.01,0-.08-.02-.2-.06-.08-.04-.14-.08-.17-.09-.24-.14-.35-.23-.35-.25,0-.03.04-.05.12-.05.06,0,.11,0,.17.01.05,0,.14.01.27.04.05.01.09.02.13.03.03,0,.05.02.06.04.04.1.06.19.04.27Zm2.44-.32c0,.06-.01.1-.03.13-.04.04-.08.07-.12.09-.02,0-.03.02-.03.02l-.34.2c-.09.04-.14.06-.16.06-.05,0-.09,0-.11,0,0-.04.12-.15.35-.33.01-.02.03-.03.04-.04,0,0,0,0,0-.01.08-.07.2-.2.36-.41.04-.07.09-.16.16-.26,0-.01.01-.02.02-.03.03-.05.05-.09.06-.13,0,0,.01,0,.01,0l.14-.3s.01-.05.03-.09l.03-.1s.02-.07.03-.09c0-.03.01-.05.01-.07,0-.14.03-.27.07-.38,0-.02.03-.03.08-.03.02,0,.04,0,.06,0,.04.02.07.03.1.03.02,0,.16-.01.43-.05.15-.04.31-.07.47-.09.14-.03.22-.05.25-.05s.05,0,.08.03c.03.02.04.04.06.06,0,.02.02.03.03.04.05.05.07.09.07.11,0,.02-.01.04-.03.04-.2,0-.43.04-.67.11-.22,0-.36.02-.42.04-.11.03-.17.04-.17.04-.01,0-.02.01-.03.02-.01.05-.02.09-.02.13,0,0,.02,0,.03,0,.43-.1.7-.16.83-.16.27-.05.5-.03.68.05.08.04.13.07.13.1-.1.1-.2.26-.28.5,0,0,0,0,0,0-.03.05-.05.08-.06.1-.02.01-.05.02-.09.02,0,0-.05-.02-.13-.04-.11-.03-.27-.02-.5.02-.26.07-.4.1-.42.1-.07-.03-.17-.15-.31-.37,0,0-.01,0-.01,0,0,0,0,0,0,0-.03.03-.04.06-.06.11,0,0-.02.02-.03.03-.01.01-.02.02-.03.03-.01.03-.05.11-.11.21-.03.03-.05.07-.08.11-.1.12-.15.18-.15.19-.12.16-.18.26-.18.32Zm2.88.1s-.1,0-.22-.04c-.18-.04-.3-.06-.33-.06-.29,0-.44.01-.47.04-.01.02-.01.14,0,.36,0,0,0,0,0,0-.02.1-.03.15-.03.16-.05.17-.07.26-.07.27-.02.02-.04.03-.08.03,0,0-.02,0-.03,0l-.2-.02s-.03,0-.03,0c-.41-.11-.64-.2-.7-.26-.05-.04-.07-.07-.07-.08.07,0,.16.01.28.03l.27.04c.07,0,.11,0,.13,0,.03,0,.06-.01.08-.01.06-.01.1-.03.11-.05.03-.06.04-.16.04-.31,0-.09-.02-.14-.04-.15,0,0-.01,0-.01,0-.51.06-.9.13-1.17.21-.03,0-.05,0-.06-.02-.05-.04-.07-.09-.07-.14,0-.02.04-.03.1-.03.03,0,.06,0,.11-.01.09-.03.22-.06.39-.09.17-.04.37-.09.61-.16,0,0,0,0,0,0v-.02c-.09-.06-.12-.1-.12-.12.01-.03.08-.04.2-.04.08,0,.14-.02.17-.05.04-.05.06-.09.06-.12,0,0-.01,0-.02,0-.02,0-.06,0-.13.02-.09.04-.14.05-.14.05-.22.05-.42.13-.61.23-.05.03-.08.04-.1.04-.03,0-.05-.01-.07-.03-.12-.11-.17-.16-.17-.17,0-.02,0-.02.02-.03.01,0,.03-.01.05-.01.05,0,.15-.02.31-.04,0,0,0,0,0,0,.09-.02.17-.04.26-.06l.22-.05c.18-.05.29-.07.3-.07.2,0,.34.02.42.06.02,0,.04.02.08.03.05.02.07.04.07.06s-.02.04-.05.06l-.31.14s-.04.03-.04.05c0,.02,0,.03,0,.04,0,0,0,0,.01.01.03,0,.06,0,.06,0,.1-.01.36-.01.8,0,.01,0,.03.02.04.02.06.08.12.14.17.19,0,.05,0,.08-.03.1Zm.53-.53c-.15-.03-.22-.07-.22-.11h0c.02-.07.06-.13.14-.19.11-.08.21-.11.28-.11.04,0,.06.01.06.03-.03.13-.03.25,0,.34,0,0,0,.01,0,.01,0,.04-.04.07-.1.07-.03,0-.08-.01-.17-.03Zm2.83-.32h-.08c-.2.04-.41.05-.63.05-.07.03-.13.07-.18.11-.04.03-.09.04-.13.05-.05.02-.1.03-.14.05,0,.03,0,.06,0,.09.01.03.03.05.05.05.37-.05.63-.06.79-.03.05.02.08.06.09.12,0,.03.01.06.02.09.02.05.02.08.02.09,0,.05-.03.07-.07.07,0,0-.09-.02-.24-.06-.23-.02-.35-.03-.36-.02-.14,0-.22,0-.23.02-.02,0-.04.15-.07.42-.04.27-.09.45-.15.52-.02.02-.04.03-.06.03h0c-.21-.03-.43-.1-.67-.21-.12-.05-.18-.1-.18-.15,0-.01,0-.02.02-.03.1.03.21.05.35.07,0,0,.02,0,.02,0,.07-.01.15-.02.23-.03.02-.02.04-.03.07-.05.02-.06.04-.12.06-.18v-.29s-.01-.05-.04-.05h0c-.55.08-.91.15-1.06.22-.08-.1-.11-.16-.09-.19,0-.01.2-.06.57-.16.21-.07.39-.11.54-.13.04-.01.07-.03.07-.05l-.08-.15s.02-.04.05-.05c.09,0,.16-.03.22-.08.06-.06.09-.1.09-.12,0-.03-.02-.05-.05-.05-.07,0-.13.03-.18.09-.04.04-.08.07-.1.08-.15.04-.25.07-.28.08-.12.08-.19.12-.21.12-.02,0-.05,0-.07-.02-.09-.06-.14-.13-.14-.2,0-.02.01-.04.03-.04,0,0,.02,0,.03,0,.53-.17.85-.25.95-.25.04,0,.19.04.46.13.02,0,.07-.03.16-.08.06-.05.09-.1.09-.15,0-.04-.03-.08-.08-.1-.08-.03-.13-.05-.16-.05,0,0-.01,0-.02,0-.33.05-.55.1-.67.14-.13.02-.32.07-.58.14-.12,0-.25.03-.39.08-.02,0-.04-.01-.06-.03-.02-.02-.03-.05-.03-.07h0s.05-.06.13-.07c.26-.1.45-.18.58-.22.18-.06.3-.11.36-.14.09-.07.23-.25.44-.54.06-.08.11-.11.14-.11h0c.09.01.19.08.3.21,0,.01-.05.04-.14.09-.02.01-.07.06-.15.13-.13.13-.2.19-.2.19,0,.01.01.02.03.02.25.03.39.05.42.06,0,0,0,0,.02,0,.41.21.62.37.62.47,0,.03-.02.05-.05.05Zm2.15,1.24s-.06-.02-.09-.05c-.11-.1-.17-.15-.17-.17,0-.03.06-.06.18-.1.1-.05.22-.1.36-.16,0,0,0,0,.01,0,.19-.1.29-.15.32-.16.14-.08.23-.13.27-.13.02,0,.03,0,.03.03,0,.02-.02.04-.05.06-.02.02-.16.14-.43.36l-.31.22c-.06.07-.1.1-.13.1Zm.73-.83s0,.04-.02.05c-.01,0-.03.01-.05.01-.21.03-.35.03-.42,0-.04-.03-.06-.07-.06-.12,0-.08.02-.14.04-.17.01-.02.03-.03.04-.03.02,0,.03,0,.03,0,0,0,.01,0,.01.01.01.02.03.03.04.04.18.07.28.11.3.13,0,0,.03.03.07.06h0s0,0,0,0Zm2.35.64c-.06.03-.14.05-.25.06-.31,0-.5,0-.58,0-.14,0-.22-.03-.22-.08-.05-.1-.09-.16-.13-.18l-.14-.09s-.03-.01-.04-.02c-.2-.1-.32-.16-.35-.16-.02,0-.03,0-.04.02v.42c0,.1.02.2.03.29.01.05.02.1.03.15,0,.04,0,.06-.02.07-.02,0-.03,0-.03,0-.04,0-.1-.02-.2-.05-.04-.02-.07-.03-.1-.04-.28-.09-.45-.15-.5-.19-.03-.02-.04-.03-.05-.03-.04-.02-.08-.04-.12-.09v-.02s.06,0,.08,0c.13.03.22.05.28.05h0c.1.01.17,0,.22-.02,0,0,.02-.01.02-.02.02-.03.02-.21,0-.55-.02-.12-.03-.2-.03-.25-.02-.03-.02-.14-.02-.33h-.02s-.09-.02-.16-.01c-.25.03-.4.05-.44.08-.06.02-.1.04-.11.04,0,0-.02,0-.03-.02,0,0-.01,0-.01-.01-.08-.07-.12-.14-.12-.21h0s.02-.03.02-.04l.25-.03c.19-.02.3-.03.31-.03.04-.02.1-.03.18-.04.08-.02.13-.04.15-.05.04-.24.06-.37.06-.38,0-.06,0-.12.01-.18.01-.14.03-.21.05-.23.03,0,.06,0,.09.01,0,0,0,0,0,0h.02l.02.02c.1.02.16.04.19.07v.02s-.04.03-.06.05c0,0,0,.01,0,.01-.03.02-.05.19-.05.51,0,.03.02.04.04.04l.32-.06s.03,0,.04.02c.1.12.16.19.16.21s-.01.03-.03.04c-.03,0-.06,0-.11,0,0,0-.02,0-.02,0-.19.05-.3.08-.33.09-.02,0-.03,0-.03,0-.03.01-.05.04-.05.09,0,.11,0,.18.02.19.02.03.04.05.08.05.01,0,.06-.02.13-.06.02,0,.03-.02.05-.03.22-.14.34-.22.36-.23,0,0,0,0,.02-.01.04-.03.06-.04.08-.04.04,0,.08.02.12.07.03.03.04.06.04.1-.08.03-.14.04-.16.06-.02,0-.06.02-.11.06-.24.12-.36.19-.36.21.22.18.45.33.69.43.01,0,.02,0,.04,0l.41.09s.01,0,.02,0h0c.2.04.32.08.36.13,0,.01,0,.02,0,.03Zm3.65.38c-.08.02-.15.04-.23.06-.02,0-.12,0-.32,0-.17-.01-.27-.02-.32-.02-.03-.01-.12-.02-.25-.02-.08,0-.13-.02-.14-.05-.02-.05-.02-.11-.06-.15-.01-.02-.05-.06-.05-.06-.07-.07-.18-.12-.33-.14-.13-.02-.26-.06-.4-.13-.34-.09-.53-.11-.56-.07-.06.05-.09.11-.09.17-.02.04-.05.07-.09.08-.02,0-.04.01-.06.02-.15.06-.31.09-.47.09-.11,0-.16-.02-.16-.05,0-.03.05-.05.14-.08l.33-.12s.06-.04.09-.05c.11-.11.18-.17.21-.2.1-.12.16-.22.16-.27,0-.04-.02-.05-.05-.05-.01,0-.02,0-.02,0-.34.04-.56.1-.65.16-.03,0-.06-.02-.11-.06-.01-.01-.02-.02-.02-.02-.04-.08-.04-.12,0-.12.63-.17,1.12-.27,1.47-.31.15-.03.24-.05.24-.05,0,0-.03-.02-.09-.06-.05-.03-.09-.05-.14-.06-.02,0-.15.04-.39.13-.06,0-.1-.03-.12-.08,0,0,0-.04-.02-.09-.09-.37-.12-.6-.09-.69.01-.04.04-.05.07-.06.03,0,.06-.01.08-.02.42-.09.74-.13.96-.12.15,0,.24.03.26.07-.03.06-.05.12-.06.17-.06.42-.09.66-.09.71,0,.04.02.06.05.06l.32-.04s.08.02.11.06c.05.07.07.14.07.19,0,0,0,.02,0,.03,0,.03-.02.05-.06.05-.1-.02-.33-.02-.71,0-.02,0-.04,0-.05,0-.04,0-.06.02-.07.04,0,.02-.01.03-.01.04,0,.03.02.04.05.04.05,0,.08,0,.08,0,.18,0,.28,0,.29.02,0,.01.01.03.01.05,0,.02,0,.03,0,.02.01.03.02.05.02.06,0,.02-.01.04-.03.04-.16,0-.29.03-.39.08-.03.01-.06.05-.09.12,0,.02,0,.03,0,.04,0,.03.02.06.06.07.35.13.53.19.55.2.56.11.93.2,1.12.25.06.02.09.04.09.06,0,.02-.02.04-.05.04Zm3.36-1.7s-.07.03-.13.04c-.06,0-.12-.01-.19-.07-.07-.05-.14-.08-.19-.08-.03,0-.06.01-.1.04-.05.04-.08.07-.12.11-.05.03-.08.07-.12.12-.12.14-.17.23-.17.26,0,.02.01.03.03.03.02,0,.08-.03.19-.08,0,0,.07-.03.17-.07.21-.07.38-.07.53,0,.04.02.06.04.06.05,0,.05-.02.09-.05.11,0,.02,0,.03,0,.05,0,.01,0,.04-.02.07-.02.07-.04.11-.04.12l-.06.12s-.01.01-.02.03c-.07.11-.15.16-.23.16-.16-.02-.25-.02-.26,0-.03.02-.05.08-.07.18-.03.11-.02.19.02.23.04.03.08.04.12.04s.11,0,.19-.03c.04-.01.07-.04.09-.08.03-.05.04-.11.04-.16,0-.08.04-.12.08-.12.01,0,.02,0,.03.02l.08.21c.02.06.04.13.05.22,0,.04-.01.07-.03.08-.03.02-.06.03-.11.04-.01,0-.02,0-.03,0-.33.06-.52.06-.57.02-.14-.07-.22-.16-.23-.28,0-.02.03-.24.08-.66,0-.03,0-.05-.02-.06l-.11-.02s0,0-.01,0l-.07.05c-.07.04-.12.07-.15.1-.03.02-.05.04-.07.04-.02,0-.04.01-.06.02-.12.05-.19.08-.21.08-.08.02-.14.03-.19.04-.01,0-.02,0-.03,0,0,0,0,0-.01,0-.02,0-.03,0-.04,0-.02,0-.02,0-.02-.02,0-.01,0-.02.02-.03.03-.03.06-.05.07-.08,0-.01.02-.04.06-.07.01,0,.02,0,.02-.02.27-.22.52-.46.76-.73l.4-.47s.02-.03.03-.04c.15-.16.24-.24.27-.24.02,0,.05.02.09.07.01.01.02.02.03.03.03.03.04.06.05.08,0,.01-.06.08-.17.2,0,.03.03.05.08.06,0,0,.07.02.18.03.14.02.21.06.21.11,0,.03-.05.07-.14.12Zm1.27,1.89c-.09,0-.26-.05-.51-.14-.02,0-.04-.02-.06-.02-.09-.03-.17-.06-.23-.09-.22-.11-.33-.2-.33-.26.03,0,.07.02.13.05.05.04.21.08.48.11.11,0,.18-.01.2-.03,0,0,0-.27-.03-.79,0-.19,0-.32,0-.39,0-.02,0-.05,0-.07v-1s0-.07.03-.08c.02-.01.04-.02.06-.02.01,0,.08.02.21.07.09.03.14.07.14.1,0,0,0,.01,0,.02,0,0,0,0,0,0-.08.08-.1.47-.05,1.16-.04.18,0,.61.09,1.29,0,.06-.04.09-.1.09Zm1.72-.33s-.05.04-.09.04c-.05,0-.16-.04-.34-.11-.01,0-.02-.01-.02-.01l-.02-.02c-.12-.1-.2-.09-.25.02-.02.03-.05.04-.09.04-.02,0-.09-.02-.2-.07-.04-.02-.06-.05-.06-.07,0-.03.08-.13.23-.29.02-.02.03-.03.05-.05.02-.02.02-.03.02-.03.02-.02.03-.03.05-.05,0,0,0-.01,0-.02,0,0,0,0,0,0h-.01c-.21.04-.34.07-.37.09h-.04c-.05-.01-.09-.04-.1-.07-.02-.03-.03-.06-.02-.08,0-.02.04-.03.09-.04.27-.07.41-.11.44-.11.09-.04.18-.07.28-.1l.16-.04s.02-.02.02-.03c0-.02,0-.03-.02-.04,0-.01-.02-.02-.04-.02-.15,0-.28.03-.39.08-.03,0-.05,0-.07-.02-.04-.02-.07-.08-.09-.16.02-.03.04-.04.06-.04.01,0,.03,0,.04,0,.02-.01.05-.02.08-.03.33-.1.51-.17.54-.2.09-.09.14-.16.14-.21,0-.03-.01-.05-.04-.05-.07,0-.13.04-.19.12-.09.12-.16.19-.22.21-.02,0-.03.01-.04.01,0,0-.01,0-.02,0-.04,0-.06-.03-.06-.07,0-.03,0-.05.02-.06.04-.08.08-.16.12-.23-.03-.01-.07-.01-.12,0-.06.02-.11.03-.17.05-.05-.07-.08-.13-.08-.17.03-.02.27-.08.72-.17.27-.08.46-.09.57-.04h0s0,.01,0,.01c0,.08-.05.13-.15.16-.04,0-.07.02-.09.03,0,.01,0,.02,0,.02.01,0,.02.01.03.01.03.02.06.03.09.04.1.05.09.11-.03.17-.07.03-.11.06-.11.09,0,0,0,.01,0,.02.01,0,.03,0,.04.01.05,0,.09.01.11.02.02.02.03.04.03.07,0,.05-.05.1-.15.14-.11.04-.17.06-.19.08,0,.02-.01.03-.01.04,0,.02.01.04.04.05.12-.03.19-.05.23-.05.02,0,.05.01.09.04.04.04.07.08.07.12,0,.03-.05.06-.15.08-.02,0-.03,0-.04.01-.02,0-.09,0-.21.03-.04.01-.06.03-.06.05v.02s.06.03.13.06c.1.04.15.08.15.13,0,.02-.02.05-.05.07,0,0,0,0,0,0-.02,0-.11.01-.27.01,0,0,0,.04,0,.11,0,0,0-.01,0-.02.03.17.03.29,0,.36Zm2.11-1.09s-.06,0-.09,0c0,0,0,0-.01,0-.25-.02-.38-.01-.39,0-.03.02-.05.05-.06.09-.04.14-.05.24-.04.28-.01.06-.01.24,0,.53,0,.25,0,.44.01.58,0,.06-.06.08-.17.08-.04,0-.06,0-.08-.01-.05-.03-.07-.17-.07-.44,0-.18,0-.29,0-.32-.03-.47-.05-.72-.08-.74,0,0-.02-.01-.04-.01-.04,0-.08.01-.11.03-.18.07-.26.19-.26.36.02.07,0,.16-.09.28-.12.12-.27.19-.45.19v-.02s.07-.1.16-.2l.13-.18s.01-.03.02-.04c.01-.02.04-.11.1-.27l.04-.17c0-.06.02-.13.03-.19,0-.31,0-.47.02-.47.01-.02.11-.05.3-.08,0,0,0,0,0,0,.3-.1.5-.15.59-.15.04,0,.08.01.11.04.04.04.05.08.05.11,0,.02,0,.04,0,.06-.01.02-.09.05-.22.09-.08.04-.13.06-.15.06-.2.02-.32.05-.36.12-.09.09-.12.17-.1.23h.04c.47-.12.76-.18.86-.19.07,0,.12-.01.16-.01.02,0,.06.02.1.06.02.02.05.07.11.15.03.05.04.09.04.11,0,.04-.03.06-.08.06Z"/>
        </g>
        <path class="cls-2" d="m35.53,4.47c-.01-.08-.03-.17-.1-.18-.08.02-.03.27-.03.31-.05.22-.12.51-.31.65-.04,0-.05-.09-.06-.13-.03-.28,0-.68,0-.97,0-.03,0-.06,0-.09.14-.8.06-1.34-.88-1.42-.25.21-.09.58,0,.83.06.14.11.47.12.62.09.51.1,1.2.18,1.71,0,.05.01.21-.04.24-.06.05-.34.3-.41.33h-.03c-.02-.1.08-.22.1-.3v-.21c-.04-.29-.42-.46-.4-.75.08-.27.2-.62.1-.9-.11-.23-.99-.92-.95-.33.08.33.39.63.61.87.09.19-.04.45-.04.65.07.17.14.41.21.59.08.15.09.38.05.54-.05.15-.21.41-.18.57.12.19.38.12.55.03,0,0,.28-.27.28-.27.03-.03.17-.23.22-.22.09.78.19,1.87.27,2.66.03.19-.02.39.25.36.12-.04.24-.25.26-.37.1-.66-.06-1.72-.06-1.92-.04-.31-.06-.78-.1-1.1-.02-.25.03-.34.22-.5.09-.13.57-.56.53-.74-.05-.11-.15-.24-.24-.34-.06-.07-.1-.16-.12-.25Zm15.83,5.92c-.31-.18-.62-.46-.8-.78-.11-.19-.3-.59-.34-.8-.05-.15-.08-.43-.28-.42-.13.05-.15.12-.12.25,0,.11.02.32.03.43.06.49.13,1.04.2,1.52.28.49.4.21.84.26.32-.08.69,0,.99-.12.02-.23-.37-.26-.52-.35Zm9.66-1.81c-.09-.13-.23-.33-.4-.33-.41.02-.9,0-1.3,0-.11.03-.4.16-.41-.04.59-.23.87-.09.53-.85-.08-.21-.28-.4-.46-.16-.02.12-.28.27-.38.33-.05.02-.16.04-.21,0-.08-.07-.28-.23-.36-.3-.1-.08-.19-.11-.28,0-.08.12.09.3.13.42.21.37-.18.31-.42.39-.24-.02-.21-.06-.21-.27-.03-.46-.14-.97-.47-1.31-.12-.09-.28-.07-.25.11.05.17.15.53.19.7-.01.23.04.66-.09.85l-.06-.02c-.05-.27-.16-.84-.49-.88-.15.09-.01.46,0,.59-.02.16-.08.96-.09,1.13-.02.67.38.33.45-.08.15-.12.18.11.21.21.05.14.13.39.32.35.15-.04.28-.2.3-.35-.03-.15.01-.4.03-.56-.03-.23.09-.19.25-.24.13.01.5-.09.58.06,0,.07-.18.14-.23.16l-.25.19c-.09.11-.15.29-.19.44-.01.05,0,.1.02.14.04.06.09.14.09.14.27.27.45.38.84.26.46-.12.6-.59.54-1.02.12-.07.33-.02.46,0,.75,0,.88.28.18.64-.37.2-.8.56-1.22.62-.16-.02-.5-.03-.66-.02-.35-.01-.82-.05-1.17-.07,0,0-.36-.02-.36-.02-.09,0-.27-.05-.24.11.12.13.3.4.5.36.19.04.5-.01.69-.04.11,0,.32,0,.43,0,.13.01.43-.08.43.13-.23.25-.56.49-.88.59-.76.04-1.63.03-2.41.04-.13,0-.47-.02-.59-.02-.19-.03-.43-.1-.62-.07-.07.14.18.45.22.58.12.16.27.5.49.55.51-.09,1.08-.35,1.6-.46.18-.02.68-.19.85-.09.04.09-.06.21-.09.29-.26.52-.61,1.19-.95,1.67-.34.19-.81-.18-1.11-.32-.04-.02-.08.02-.1.04.06.18.34.38.45.54.11.16.36.45.5.59l.11.09s.09.05.13.05c.06,0,.13,0,.13,0,.28-.05.44-.37.55-.6.04-.12.57-1.33.57-1.33.11-.22.43-.84.57-1.03.06-.01.18-.03.24-.02.12.04.17.1.15.22-.03.1-.34.4-.12.44.22-.05.53-.04.75.02.14-.03.45-.04.42-.25-.11-.29-.31-.65-.61-.75-.07-.02-.22-.03-.2-.14.28-.13.72-.15,1.03-.21.06-.01.17-.05.2-.12.07-.15-.08-.38-.12-.53-.02-.03-.09-.13-.09-.17.35-.17.8-.23,1.19-.23.31,0,.73.11.89-.24.17-.27.09-.66-.1-.9Zm-2.73.71c-.06-.04-.16-.12-.2-.18-.02-.11-.01-.22.09-.28.05-.02.21-.11.27-.07.11,0,.09.15.09.22-.05.12-.08.29-.24.3Zm-27.72-4.72l.18-.04c.34-.22.78-.57,1.16-.71.19-.08.49-.09.61-.27.22-.32,0-.84-.36-.94-.06-.01-.09.04-.12.1.1.15-.51.56-.58.65-.33.28-.7.74-.96,1.08-.01.02-.18.15-.14.18.06.03.15-.04.2-.06Zm2.27,1.39c-.05.06-.27.29-.3.35-.14.01-.07-.18-.06-.25l.04-.36c.03-.24.18-.55.29-.76,0-.13-.14-.26-.23-.33-.08-.14-.32-.25-.48-.26-.18.08-.19.32-.23.49-.41.72-1.29,1.14-1.88,1.7.1.13.29.22.45.23.04,0,.11,0,.16,0,.51-.04.9-.94,1.23-1.12.07,0,.06.47.06.47,0,0,0,.2,0,.31,0,.01,0,.03,0,.04,0,.1.04.51.04.54,0,.03-.09.16-.12.18-.03.02-.09,0-.09,0,0-.03.04-.06.04-.11,0-.05-.08-.4-.24-.27-.13.32-.51.62-.46,1,.09.15.07.4.24.5.14,0,.28-.26.37-.34.03-.04.22-.3.28-.29.07.08.06.28.08.38.05.08.21.11.28.15.11,0,.24-.05.31-.14.06-.08-.03-.19-.04-.27.01-.18-.04-.39-.07-.56-.04-.28.26-.6.38-.84.09-.16.26-.51.33-.68.03-.06,0-.17-.04-.22-.13.06-.25.35-.35.47Zm18.29,1.8c.13-.01.42-.04.55-.04l.12-.1c.08-.25-.24-.51-.48-.52-.12,0-.29.08-.38.16-.07.02-.52.17-.59.16-.09-.05.16-.53.17-.59.08-.15.29-.51.37-.66.07-.05.13-.17.15-.25.04-.25-.27-.58-.39-.78-.05-.07-.21-.36-.31-.37l-.15.08s-.06.15-.06.15c-.02.12-.06.3-.05.43-.17.69-.46,1.54-.8,2.17-.51.11-1.23.32-1.76.34-.2,0-.59-.15-.75,0-.04.12.15.31.21.38,0,0,.19.26.19.26.11.13.27.33.46.31.33-.12.75-.38,1.1-.42.06.14-.16.3-.24.39-.11.17-.76.48-.93.58-.27.1-.71.14-1,.19-.09.02-.33-.02-.37.09-.03.08.46.2.49.23.17.05.52.12.69.1,1.1-.03,1.9-1.09,2.47-1.92.12-.09.35-.11.49-.17l.81-.2Zm-6.29.41c-.88.06-1.3-.31-1.86-.91.05-.2.35-.52.47-.7l.14-.12s.05-.18.09-.2c-.05-.2-.28-.34-.46-.42-.07-.02-.16.02-.23,0,0-.22.18-.54.3-.72.14-.2.28-.56.51-.66.14-.04.33-.17.46-.24.05-.04.08-.1.06-.17l-.14-.23s-.11-.04-.14-.07c-.01-.27-.34-.46-.54-.6l-.12-.04-.12.05c-.04.09-.05.31-.05.41l-.1.28-.12.31-.19.15c-.47.2-.96.55-1.45.72-.03.2.39.29.54.32.23-.03.52-.33.73-.41,0,.21-.22.56-.29.77-.03.06-.15.22-.13.29,0,.05.03.15.06.19.03.06.09.14.16.15.09-.02.21-.12.3-.16l.07.04c.04.16-.25.47-.32.59-.09-.04-.2-.23-.31-.26-.11-.06-.29-.22-.42-.14-.05.15.13.38.19.5.04.08.12.26.17.34.07.08-.09.24-.12.32-.14.14-.52.56-.71.65-.17.09-.56.32-.67.05.13-1.16.3-2.49.74-3.57.12-.1.38-.28.51-.36,0,0,.18-.12.18-.12l.02-.12c-.06-.06-.14-.37-.27-.2l-.04-.03c.18-.17-.38-.64-.52-.73-.07-.01-.19.08-.24.11,0,0-.04.22-.04.22-.03.18-.12.54-.19.7l-.62.33c-.09-.01-.23.02-.3.07-.02.05.11.25.13.3.06.07.19.27.3.27,0,0,.09-.01.09-.01.04-.04.1-.13.17-.09-.05.11-.12.41-.14.54-.1.29-.5.52-.7.73-.19.19-.58.55-.78.73-.06.06-.19.14-.27.14-.41.22-.35.22-.08.55.06.04.18.09.26.11.02,0,.04,0,.05,0,.18-.09.43-.28.59-.43.04-.03.07-.07.09-.12.06-.12.17-.27.24-.35.12-.15.29-.44.43-.57l.05.02c-.03.1-.13.53-.15.65-.05.16-.06,1.24-.28,1.29-.08,0-.24-.02-.32-.03-.16-.06-.29-.13-.45-.01v.07c.28.19.61.35.86.58l.11.1c.02.07.05.1.12.11.2-.05.4-.26.43-.47h.04c.22.34.27.29.61.14.41-.24.94-.62,1.25-.97.16.13.34.45.45.62.06.1.14.3.27.31.35.06.77-.1,1.1-.2.18-.09.64-.15.74-.33-.05-.09-.12-.07-.2-.07Zm-18.07-3.51c-.09.02-.35.12-.44.15-.12.07-.34.31-.43.42-.11.13-.33.39-.43.53-.05.06-.13.24-.22.13-.07-.18-.11-.4-.14-.59-.04-.23.07-.6-.22-.67-.11-.03-.34-.1-.45-.11-.07-.01-.22-.06-.27,0-.07.13-.28.42-.26.57.11.21.35.4.48.6.11.31.33.73.41,1.04-.02.01-.53.99-.58.92-.16-.12-.31-.32-.43-.51-.05-.07-.1-.14-.17-.2-.05-.05-.11-.11-.13-.16-.24-.04-.22.18-.24.34-.01.14-.02.41,0,.55,0,.28-.06.67.13.91.25.12.69.38.94.16.14-.41.31-.9.52-1.28.17-.52.58,1.58.69,1.91.01.04.03.09.03.14.06.43.09.93.34,1.28.08.19.34.36.51.45.13.05.22-.06.29-.16.07-.33-.11-.86-.26-1.16-.11-.33-.73-2.05-.68-2.16.03-.05.06-.08.11-.07.04,0,.16-.05.2-.06.16-.14.39-.36.57-.49.08-.03.17-.28.21-.35,0,0,0-.08-.02-.1l-.1-.06c-.3-.1-.42-.1-.34-.46.12-.32.36-.66.63-.87.29-.31.2-.71-.27-.68Zm-.77,1.8c.02.17.05.41-.08.56-.1.09-.27.39-.37.13-.01-.16-.1-.36-.15-.5,0-.2.23-.45.35-.6.03-.04.12-.16.18-.16.1.13.05.43.07.58Zm-6.19,1.97c-.15-.03-.31.01-.42.12-.17.23-.36.59-.56.8-.15,0,.04-.56.03-.64.04-.12.17-.23.22-.34.06-.11.17-.31.08-.42-.1-.05-.25-.06-.35-.02-.14-.03-.36-.09-.5-.11-.11.03-.14.11-.15.22l.09.18c.04.08.06.27.06.36-.02.16-.15.33-.26.45-.09.08-.27-.05-.36-.08-.03-.01-.16-.02-.16-.06,0,0,.09-.34.09-.34.08-.42.09-.42.43-.68.13-.13.34-.48.42-.65.05-.2.05-.39-.11-.54-.23-.07-.73-.33-.97-.24-.17.27-.17.68-.12.98.05.32.08.62-.3.73-.04-.05-.06-.22-.06-.29-.02-.04-.13-.27-.12-.31-.02-.04-.12-.28-.18-.31-.05-.03-.79-.11-.86-.07-.2.06-.29.1-.18.33.07.08.59.28.75.38.1.1.39.3.52.29l.03.05c-.01.09-.32.23-.39.27-.21.12-.46.25-.66.37-.16.05-.39.22-.54.28-.23.34.39.4.6.47.16.05.28-.07.35-.2,0,0,.31-.33.31-.33.17-.11.63-.69.83-.59.02.03-.02.36-.02.39-.04.06-.15.04-.21.05-.05.01-.14,0-.16.08-.03.07-.07.18-.02.25.12.13.31.28.36.46l-.03.05c-.12,0-.27-.06-.39-.05-.06.07,0,.22-.07.29-.24-.03-.54-.14-.79-.16-.12-.02-.3-.09-.3.1.09.22.39.39.54.58.03.11-.11.24-.17.31l.03.07c.23.03.6.13.82.2.32-.16.24-.8.51-1.04.16,0,.23.31.29.42-.08.16-.31.33-.43.47-.6.62-1.3,1.19-1.98,1.73.02.1.05.22.17.23.24,0,.7.03.91-.1.32-.24.47-.74.76-1.02.13-.18.43-.59.58-.75.12-.21.2-.28.32-.03.04.23-.17.43-.28.6-.31.45-.61,1.05-.77,1.58-.13.31-.04.33.26.32.21-.03.45-.35.6-.48.21-.22.54-.72.8-.87,0,0,.17.37.21.44.06.08.13.24.18.32.07.13.37.72.43.82.04.06.12.15.17.19.07.02.22.07.29.07.07,0,.14-.31.14-.36.02-.35-.12-.65-.16-.76-.07-.21-.33-.58-.42-.78-.05-.09-.25-.49-.29-.58.15-.3.53-.57.72-.85.17-.36-.13-.31-.37-.33-.13-.01-.44-.02-.56-.05-.04-.08,0-.09.09-.23.14-.19.3-.39.42-.55.16-.27.54-.61.62-.9-.06-.14-.27-.22-.41-.25Zm-2.09-1.26s.01-.12.04-.15c.11-.03.22.06.24.17,0,.08-.06.21-.11.27-.03.05-.12.1-.17.04-.03-.04,0-.28,0-.33Zm.71,4.46c.03.07,0,.15-.05.2-.11.14-.36.41-.49.54-.05.05-.21.25-.29.26v-.03c.15-.39.47-.76.66-1.14.09-.03.14.1.16.16Zm-.4-2.31c-.04-.1,0-.21.13-.19.09-.03.21-.12.3-.05.05.16.15.35.13.52,0,.08-.06.2-.12.25-.03.03-.08.07-.12.05-.14-.14-.2-.42-.31-.58Zm1.13,1.71s-.11.06-.11.06h0c-.07-.05-.24-.34-.19-.43.11.05.32.11.37.22,0,0-.02.11-.06.15Zm-.02-1.31c-.03.09-.13.25-.19.32-.08.19-.16.36-.4.24.05-.22.32-.39.44-.57.07-.1.18-.3.32-.29.03.1-.09.23-.16.3Z"/>
      </g>
      <path class="cls-2" d="m158.51,17.07c0-.32-.06-.65-.31-.7-.29.05-.21.98-.25,1.17-.28.79-.66,1.85-1.41,2.32-.16-.05-.17-.38-.17-.49,0-1.07.29-2.53.4-3.63.01-.11.03-.21.06-.32.84-2.93.79-5-2.74-5.68-1.01.69-.56,2.13-.35,3.12.16.54.21,1.79.2,2.36.14,1.93-.12,4.52-.02,6.46-.03.19-.05.78-.25.89-.26.15-1.41,1-1.67,1.08l-.12-.07c-.05-.33.37-.74.48-1.04l.04-.77c.02-1.08-1.34-1.88-1.15-2.97.41-.99.99-2.23.73-3.32-.31-.89-3.34-3.84-3.41-1.61.17,1.25,1.2,2.52,1.94,3.5.27.76-.35,1.67-.42,2.41.21.66.36,1.61.54,2.28.25.6.19,1.45-.02,2.06-.24.54-.95,1.45-.9,2.06.38.78,1.38.61,2.03.34,0,0,1.15-.88,1.15-.88.11-.09.72-.81.9-.73.03,2.98-.06,7.08-.05,10.08.03.73-.23,1.44.81,1.44.47-.12,1.02-.84,1.14-1.27.66-2.42.48-6.45.54-7.22-.02-1.18.1-2.96.07-4.15.02-.95.26-1.24,1.03-1.77.38-.45,2.38-1.85,2.27-2.54-.14-.42-.45-.94-.76-1.38-.2-.29-.32-.64-.33-1Zm54.79,12.61c-1.31-.3-2.77-.95-3.76-1.88-.61-.55-1.74-1.78-2.14-2.5-.34-.47-.76-1.44-1.48-1.19-.41.32-.41.61-.14,1.04.13.39.43,1.15.59,1.52.78,1.69,1.66,3.57,2.45,5.25,1.57,1.43,1.69.31,3.32-.03,1.06-.65,2.51-.76,3.43-1.55-.2-.86-1.62-.5-2.27-.65Zm26.49-21c-.53-.28-1.34-.68-1.93-.38-1.3.81-2.98,1.6-4.33,2.32-.3.3-1.04,1.24-1.43.58,1.54-1.82,2.72-1.88.24-3.76-.64-.53-1.65-.8-1.79.3.14.45-.45,1.41-.66,1.78-.15.15-.45.42-.69.36-.38-.08-1.33-.26-1.72-.34-.48-.1-.82-.03-.95.5-.04.56.85.83,1.2,1.15,1.37.87-.05,1.35-.67,2.04-.83.38-.79.19-1.2-.52-.92-1.46-2.21-2.94-3.91-3.49-.57-.07-1.04.28-.61.82.48.47,1.43,1.48,1.88,1.98.37.79,1.32,2.13,1.24,2.98l-.23.04c-.67-.8-2.03-2.49-3.2-2.04-.34.59.79,1.55,1.05,1.98.23.55,1.46,3.31,1.73,3.92,1.13,2.24,1.85.42,1.33-1.07.3-.66.8.04,1.07.32.41.37,1.13,1.05,1.69.59.42-.4.55-1.17.36-1.71-.37-.46-.68-1.37-.9-1.92-.52-.7-.03-.79.41-1.25.46-.2,1.5-1.21,2.02-.84.12.25-.35.78-.48.96l-.48,1.08c-.09.53,0,1.22.15,1.79.05.18.16.34.33.43.23.13.55.3.55.3,1.4.41,2.18.44,3.25-.65,1.31-1.22.92-3.04-.05-4.34.25-.45,1.04-.67,1.51-.83,2.49-1.35,3.43-.67,1.77,1.79-.87,1.34-1.64,3.27-2.94,4.24-.56.23-1.69.8-2.22,1.1-1.17.58-2.81,1.3-3.98,1.88,0,0-1.23.58-1.23.58-.32.14-.98.33-.61.79.63.23,1.71.8,2.31.31.71-.22,1.63-.94,2.21-1.39.37-.16,1.07-.56,1.4-.78.45-.19,1.3-1.04,1.66-.36-.29,1.24-.96,2.61-1.84,3.54-2.46,1.51-5.37,3.02-7.89,4.46-.44.21-1.58.79-2,1-.67.23-1.6.46-2.17.88.01.6,1.39,1.18,1.77,1.52.7.32,1.81,1.16,2.62.95,1.54-1.21,2.96-3.11,4.45-4.39.56-.39,1.92-1.85,2.66-1.82.3.22.17.81.24,1.13.07,2.2.13,5.05-.15,7.24-.79,1.25-2.99.87-4.25.95-.17,0-.22.2-.27.33.52.51,1.81.65,2.45.96.64.35,2.01.85,2.72,1.03l.52.1c.18.04.37,0,.54-.07.2-.1.45-.22.45-.22.83-.66.8-2.01.75-2.98-.08-.48-.51-5.42-.51-5.42-.02-.93-.08-3.54.05-4.42.17-.16.54-.41.76-.48.45-.09.74.04.9.47.07.39-.4,1.95.39,1.68.62-.55,1.7-1.07,2.5-1.29.43-.35,1.43-.93.93-1.57-.89-.75-2.18-1.59-3.39-1.39-.26.05-.8.29-.92-.09.69-.95,2.11-1.8,3.01-2.55.19-.15.48-.47.44-.74-.04-.62-.95-1.13-1.36-1.51-.13-.07-.55-.27-.6-.41.85-1.17,2.24-2.22,3.52-2.91,1.02-.54,2.63-.96,2.51-2.4.09-1.19-.9-2.35-1.96-2.79Zm-7.78,7.26c-.26-.02-.76-.12-1-.22-.26-.31-.42-.69-.22-1.07.14-.17.48-.75.76-.7.36-.19.57.33.71.58.07.48.25,1.12-.26,1.42Zm-92.12-.54l.69-.08c1.37-.7,3.14-1.83,4.65-2.19.74-.21,1.89-.13,2.4-.78.95-1.1.36-3.14-.96-3.66-.23-.07-.37.11-.48.33.31.62-2.14,1.9-2.42,2.21-1.37.9-2.94,2.47-4.05,3.67-.06.08-.73.47-.61.64.21.13.57-.07.78-.14Zm7.93,6.13c-.21.19-1.12.99-1.27,1.21-.52,0-.18-.7-.14-.96l.31-1.34c.22-.88.91-1.99,1.38-2.75.06-.49-.43-1.02-.74-1.34-.25-.57-1.1-1.07-1.7-1.16-.7.22-.86,1.14-1.05,1.74-1.84,2.54-5.32,3.76-7.74,5.6.33.53,1.01.93,1.6,1.06.16.04.42.03.59.04,1.91.05,3.75-3.17,5.07-3.68.25.03.05,1.77.05,1.77,0,0-.07.77-.11,1.17,0,.05,0,.09,0,.15,0,.36-.05,1.95-.07,2.04-.02.11-.38.57-.52.63-.14.06-.33-.05-.33-.05,0-.13.18-.19.2-.38s-.15-1.52-.8-1.12c-.63,1.15-2.16,2.12-2.12,3.54.27.61.11,1.54.69,1.96.51.06,1.17-.84,1.53-1.12.14-.13.94-1.02,1.15-.97.24.33.1,1.08.15,1.47.16.33.73.48,1,.69.41.04.93-.1,1.21-.41.27-.27-.03-.71-.04-1.04.12-.66,0-1.47-.02-2.13-.03-1.08,1.22-2.14,1.76-2.98.4-.56,1.2-1.8,1.51-2.41.12-.22.06-.63-.06-.85-.53.18-1.09,1.22-1.5,1.61Zm61.61-1.07c.46-.2,1.46-.61,1.93-.78l.31-.51c-.02-.99-1.43-1.54-2.31-1.31-.45.13-.96.61-1.18,1-.22.16-1.68,1.2-1.92,1.24-.38-.1-.03-2.07-.05-2.3.13-.62.47-2.18.56-2.79.2-.25.28-.77.23-1.07-.15-.96-1.62-1.78-2.29-2.36-.25-.18-1.18-1.06-1.53-.98l-.46.47s-.04.61-.04.61c.06.45.12,1.15.29,1.59.16,2.69.11,6.04-.42,8.69-1.72.98-4.07,2.56-5.93,3.23-.74.2-2.27.14-2.7.87,0,.46.88.93,1.19,1.14,0,0,.97.73.97.73.53.33,1.36.89,2.01.59,1.04-.81,2.26-2.22,3.46-2.77.39.45-.25,1.28-.43,1.68-.19.74-2.17,2.6-2.69,3.15-.86.66-2.4,1.33-3.37,1.81-.29.17-1.21.31-1.21.75,0,.33,1.89.2,2.02.26.67,0,1.99-.17,2.61-.42,3.94-1.35,5.59-6.07,6.67-9.7.32-.47,1.14-.79,1.57-1.17l2.7-1.64Zm-20.32,6.89c-3.27.59-4.98-.62-7.34-2.64.09-.76,1.11-2.1,1.46-2.81l.47-.5c.04-.11.12-.71.25-.78-.25-.75-1.19-1.15-1.88-1.37-.27-.04-.59.14-.84.12-.11-.82.44-2.1.83-2.81.44-.8.83-2.21,1.66-2.68.5-.21,1.18-.76,1.63-1.07.19-.18.25-.4.17-.65l-.64-.8c-.14-.03-.43-.12-.54-.19-.16-1.02-1.47-1.59-2.27-2.03l-.46-.1-.43.24c-.1.35-.06,1.18-.03,1.54l-.26,1.1-.31,1.2-.64.63c-1.67.94-3.39,2.45-5.13,3.3-.04.77,1.58.93,2.17.98.84-.22,1.81-1.45,2.55-1.83.05.8-.61,2.19-.78,3.02-.1.22-.48.89-.38,1.15.03.2.16.55.32.69.12.2.39.49.65.5.35-.12.76-.54,1.07-.72l.29.11c.21.59-.73,1.84-.96,2.36-.36-.11-.85-.78-1.26-.85-.45-.18-1.16-.72-1.64-.37-.14.59.63,1.36.91,1.81.18.3.56.91.76,1.19.31.29-.24.94-.33,1.24-.47.6-1.73,2.32-2.38,2.7-.61.39-1.97,1.42-2.5.45,0-4.4.12-9.46,1.32-13.69.41-.41,1.3-1.19,1.76-1.55,0,0,.63-.52.63-.52l.02-.46c-.26-.21-.68-1.32-1.1-.63l-.18-.1c.62-.71-1.7-2.25-2.24-2.53-.25-.02-.67.37-.83.52,0,0-.08.84-.08.84-.05.67-.24,2.06-.41,2.7l-2.18,1.48c-.33-.01-.86.15-1.1.39-.06.19.51.91.6,1.06.24.24.84.95,1.24.89,0,0,.33-.08.33-.08.13-.18.31-.51.59-.42-.15.44-.29,1.6-.31,2.08-.24,1.13-1.65,2.15-2.34,3.01-.64.77-1.96,2.31-2.63,3.06-.19.24-.65.6-.97.64-1.47.98-1.21.98-.07,2.11.24.11.72.25,1.03.3.07.01.14,0,.2-.04.66-.4,1.49-1.23,2.03-1.86.12-.14.22-.3.28-.47.17-.46.51-1.1.75-1.41.39-.62.93-1.75,1.38-2.31l.18.05c-.06.4-.26,2.05-.31,2.48-.14.61.29,4.69-.53,4.95-.29.02-.9.03-1.19.03-.63-.15-1.16-.38-1.7.15l.03.25c1.12.59,2.41,1.07,3.45,1.81l.44.33c.11.25.22.35.51.36.74-.29,1.39-1.13,1.4-1.94l.16-.05c.95,1.22,1.13,1.01,2.35.31,1.43-1.05,3.25-2.72,4.3-4.13.67.42,1.45,1.56,1.96,2.15.25.36.63,1.06,1.15,1.04,1.32.08,2.85-.67,4.03-1.2.64-.41,2.35-.82,2.65-1.55-.2-.31-.47-.22-.78-.18Zm-57.89-14.09c-.33-.04-1.39.05-1.74.05-.52.13-1.55.75-2,1.05-.54.34-1.61,1.06-2.12,1.44-.26.15-.73.74-.93.22-.04-.72.04-1.55.14-2.28.11-.87.91-2.07-.05-2.67-.35-.25-1.11-.73-1.51-.89-.23-.12-.71-.46-1-.28-.4.39-1.46,1.2-1.57,1.77.16.88.81,1.81,1.05,2.67.06,1.23.37,2.98.32,4.2-.08.02-3,2.96-3.1,2.68-.45-.6-.76-1.5-.99-2.3-.09-.31-.23-.61-.39-.89-.14-.24-.27-.53-.29-.72-.8-.41-.99.39-1.25.96-.2.48-.53,1.47-.61,1.98-.29,1.03-.97,2.35-.53,3.42.76.71,2.07,2.12,3.2,1.63.95-1.31,2.12-2.9,3.3-4.01,1.19-1.7.35,6.35.38,7.66,0,.18,0,.35-.04.53-.25,1.6-.69,3.45-.19,4.99.07.76.82,1.66,1.33,2.2.43.32.87.04,1.23-.23.62-1.12.57-3.22.35-4.45-.03-1.31-.35-8.19-.07-8.54.15-.15.29-.22.49-.12.16.04.62,0,.79-.01.74-.33,1.82-.87,2.6-1.12.33-.02.93-.81,1.14-1.03,0,0,.08-.27.04-.38l-.29-.32c-.99-.7-1.41-.81-.7-2.03.79-1.02,2.02-1.97,3.22-2.44,1.37-.8,1.51-2.33-.21-2.75Zm-4.75,5.65c-.13.65-.29,1.54-.91,1.91-.47.23-1.4,1.09-1.46.06.13-.58.03-1.4.02-1.98.21-.74,1.33-1.36,1.92-1.79.17-.11.6-.45.83-.38.21.58-.29,1.59-.4,2.18Zm-17.79.23c-.43-.39-1.06-.51-1.62-.34-.98.45-2.25,1.32-3.29,1.64-.47-.29,1.14-1.79,1.24-2.06.34-.32.98-.45,1.34-.74.39-.25,1.11-.71,1.03-1.25-.24-.35-.72-.63-1.13-.68-.4-.36-1.02-.93-1.45-1.25-.43-.11-.68.11-.9.46l-.04.75c0,.34-.29,1-.45,1.3-.35.51-1.09.83-1.66,1.01-.43.1-.79-.65-1.05-.9-.07-.09-.51-.34-.41-.5,0,0,.92-.95.92-.95,1.01-1.25,1.06-1.22,2.63-1.47.67-.19,1.97-.98,2.55-1.38.52-.57.87-1.19.61-1.99-.65-.64-1.8-2.41-2.78-2.53-1.04.58-1.79,1.96-2.15,3.05-.4,1.14-.86,2.21-2.31,1.89-.02-.24.21-.85.31-1.07.01-.18.06-1.11.16-1.26,0-.17.1-1.17-.04-1.36-.11-.19-2.42-1.77-2.71-1.76-.77-.15-1.16-.19-1.19.76.09.38,1.47,1.99,1.82,2.62.15.53.76,1.72,1.19,1.9v.21c-.22.28-1.48.19-1.78.2-.91.03-1.96,0-2.86.03-.61-.14-1.67.02-2.31-.04-1.36.7.58,2.02,1.13,2.63.43.44,1.06.27,1.52-.02,0,0,1.62-.55,1.62-.55.75-.08,3.34-1.15,3.81-.45.01.12-.7,1.16-.76,1.28-.24.15-.56-.11-.77-.21-.2-.06-.49-.23-.65-.03-.24.18-.56.45-.53.79.16.65.52,1.5.36,2.18l-.19.11c-.4-.24-.77-.68-1.21-.85-.32.13-.4.74-.75.85-.75-.54-1.53-1.43-2.33-1.93-.34-.29-.85-.83-1.17-.21-.09.91.6,2.01.74,2.9-.09.4-.8.6-1.13.73l-.04.27c.72.52,1.75,1.51,2.36,2.16,1.36.05,2.23-2.21,3.55-2.54.52.32.19,1.43.21,1.92-.55.4-1.61.54-2.26.79-3.11.99-6.45,1.62-9.66,2.18-.11.38-.24.81.16,1.05.8.46,2.25,1.36,3.21,1.3,1.49-.22,2.89-1.58,4.35-2.02.76-.38,2.48-1.17,3.27-1.44.78-.47,1.16-.57,1.12.5-.27.82-1.33,1.11-2.01,1.5-1.84.95-3.9,2.4-5.39,3.84-.97.79-.73,1.01.29,1.51.74.29,2.13-.35,2.85-.52,1.08-.36,3.09-1.42,4.21-1.46,0,0-.09,1.55-.09,1.86.06.38-.01,1.03.03,1.4,0,.54-.06,3.05-.06,3.49.02.27.13.7.21.95.18.19.61.65.85.76.23.1,1.03-.78,1.12-.93.7-1.13.77-2.38.85-2.79.14-.82-.06-2.52.01-3.32.01-.39.06-2.09.09-2.44,1.06-.73,2.78-.93,3.92-1.52,1.21-.87.12-1.28-.65-1.75-.4-.28-1.43-.86-1.77-1.19.01-.35.19-.29.72-.59.8-.38,1.68-.74,2.39-1.05,1.03-.59,2.87-1.04,3.68-1.87.04-.58-.49-1.21-.89-1.57Zm-4.67-7.92c.07-.15.26-.38.42-.43.41.11.64.6.5.99-.16.26-.56.61-.86.69-.19.1-.58.11-.63-.16-.04-.19.48-.93.57-1.09Zm-5.69,16.05c0,.28-.3.48-.52.59-.62.27-1.94.72-2.59.92-.25.08-1.14.45-1.41.34v-.11c1.25-.98,2.96-1.65,4.26-2.56.36.06.27.58.25.82Zm2.84-8.38c.06-.39.39-.69.76-.41.34.07.93-.02,1.07.39-.11.63-.14,1.42-.51,1.97-.14.27-.56.53-.85.59-.15.04-.39.1-.49-.07-.23-.72.1-1.73.02-2.48Zm.65,7.71c-.2.07-.48,0-.48,0v-.07c-.16-.25-.22-1.52.12-1.72.27.36.85.94.83,1.4,0,0-.26.32-.47.39Zm2.29-4.37c-.27.24-.89.6-1.22.73-.61.48-1.2.91-1.76.06.57-.64,1.74-.72,2.47-1.1.39-.2,1.13-.67,1.57-.4-.1.39-.71.61-1.06.71Z"/>
      <g>
        <path class="cls-1" d="m87.46,49.45v-.1l.48-.26v-3.41l-.48-.26v-.1h1.77v.1l-.44.26v1.48h1.56v-1.48l-.45-.26v-.1h1.77v.1l-.47.26v3.41l.47.26v.1h-1.77v-.1l.45-.26v-1.59h-1.56v1.59l.44.26v.1h-1.77Z"/>
        <path class="cls-1" d="m93.96,49.51c-.33,0-.61-.06-.86-.18-.25-.12-.44-.31-.58-.58-.14-.27-.21-.63-.21-1.08v-1.99l-.48-.26v-.1h1.82v.1l-.48.26v2c0,.35.05.62.14.82.1.2.23.34.39.42.16.08.34.13.54.13.17,0,.32-.04.46-.11s.26-.2.34-.37c.09-.17.13-.39.13-.67v-2.23l-.53-.24v-.1h1.41v.1l-.48.25v2c0,.45-.07.81-.2,1.08-.13.27-.32.46-.56.58-.24.12-.52.18-.84.18Z"/>
        <path class="cls-1" d="m95.81,49.45v-.1l.34-.21,1.47-3.85h.5l1.45,3.83.38.22v.1h-1.78v-.1l.49-.22-.38-1.04h-1.33l-.38,1.04.47.22v.1h-1.22Zm1.27-1.71h1.07l-.53-1.46-.54,1.46Z"/>
        <path class="cls-1" d="m100.16,49.45v-.2l1.92-3.58h-1.34l-.42.93h-.09v-1.28h2.87v.2l-1.93,3.58h1.46l.45-.99h.09v1.34h-3Z"/>
        <path class="cls-1" d="m103.54,49.45v-.1l.48-.26v-3.41l-.48-.26v-.1h1.77v.1l-.44.26v1.48h1.56v-1.48l-.45-.26v-.1h1.77v.1l-.47.26v3.41l.47.26v.1h-1.77v-.1l.45-.26v-1.59h-1.56v1.59l.44.26v.1h-1.77Z"/>
        <path class="cls-1" d="m109.88,49.51c-.28,0-.53-.05-.77-.16-.24-.11-.44-.25-.62-.44-.17-.19-.31-.41-.41-.67s-.15-.54-.15-.85.05-.59.15-.85c.1-.26.23-.48.41-.67.17-.19.38-.34.62-.44.24-.11.49-.16.77-.16s.54.05.78.16c.24.11.44.25.62.44.17.19.31.41.41.67.1.26.15.54.15.85s-.05.59-.15.85-.23.48-.41.67c-.17.19-.38.34-.62.44-.24.11-.5.16-.78.16Zm.09-.33c.19,0,.35-.07.5-.2.14-.13.26-.32.34-.56s.12-.53.12-.85c0-.4-.05-.75-.15-1.05-.1-.3-.23-.53-.4-.7-.17-.16-.36-.25-.57-.25-.19,0-.35.07-.5.2-.15.13-.26.32-.35.56-.08.24-.13.53-.13.85,0,.4.05.75.15,1.05.1.3.24.53.41.7s.36.25.57.25Z"/>
        <path class="cls-1" d="m112,49.45v-.1l.48-.26v-3.41l-.48-.26v-.1h1.07l2.18,2.74v-2.39l-.64-.25v-.1h1.51v.1l-.47.26v3.8h-.35l-2.43-3.01v2.63l.64.26v.1h-1.51Z"/>
        <path class="cls-1" d="m118.24,49.51c-.27,0-.52-.05-.76-.15s-.44-.24-.62-.43c-.18-.18-.32-.4-.42-.65-.1-.25-.15-.52-.15-.81,0-.32.06-.62.17-.88.11-.27.27-.5.47-.7s.43-.35.68-.46c.26-.11.52-.16.8-.16.2,0,.37.01.51.04.14.02.27.06.38.11.11.05.22.1.33.16l.06,1.1h-.1l-.54-.91c-.1-.07-.2-.12-.29-.15s-.2-.04-.32-.04c-.24,0-.45.08-.64.23s-.34.36-.46.63c-.11.27-.17.58-.17.94s.05.7.16.97.26.48.44.62c.19.15.39.22.62.22.06,0,.13,0,.21,0,.07,0,.15-.02.23-.03v-1.16l-.5-.29v-.1h1.77v.1l-.42.3v1.01c-.12.11-.26.2-.42.28s-.33.14-.51.18-.35.07-.51.07Z"/>
        <path class="cls-1" d="m123.39,49.51c-.33,0-.61-.06-.86-.18-.25-.12-.44-.31-.58-.58-.14-.27-.21-.63-.21-1.08v-1.99l-.48-.26v-.1h1.82v.1l-.48.26v2c0,.35.05.62.14.82.1.2.23.34.39.42.16.08.34.13.54.13.17,0,.32-.04.46-.11s.26-.2.34-.37c.09-.17.13-.39.13-.67v-2.23l-.53-.24v-.1h1.41v.1l-.48.25v2c0,.45-.07.81-.2,1.08-.13.27-.32.46-.56.58-.24.12-.52.18-.84.18Z"/>
        <path class="cls-1" d="m125.62,49.45v-.1l.48-.26v-3.41l-.48-.26v-.1h1.07l2.18,2.74v-2.39l-.64-.25v-.1h1.51v.1l-.47.26v3.8h-.35l-2.43-3.01v2.63l.64.26v.1h-1.51Z"/>
        <path class="cls-1" d="m129.87,49.45v-.1l.48-.26v-3.41l-.48-.26v-.1h1.81v.1l-.48.26v3.41l.48.26v.1h-1.81Z"/>
        <path class="cls-1" d="m133.6,49.48l-1.5-3.81-.4-.24v-.1h1.76v.1l-.46.24,1,2.56h.04l.99-2.56-.46-.24v-.1h1.2v.1l-.33.2-1.53,3.86h-.33Z"/>
        <path class="cls-1" d="m135.81,49.45v-.1l.48-.26v-3.41l-.48-.26v-.1h3.07v1.08h-.09l-.42-.74h-1.23v1.48h.87l.32-.54h.09v1.41h-.09l-.32-.53h-.87v1.61h1.37l.44-.93h.09v1.28h-3.22Z"/>
        <path class="cls-1" d="m139.31,49.45v-.1l.48-.26v-3.41l-.48-.26v-.1h1.92c.39,0,.7.09.93.27.23.18.34.43.34.75,0,.23-.07.43-.21.59s-.32.3-.55.39l1.04,1.78.4.25v.1h-1.22l-1.04-1.91h-.3v1.55l.42.26v.1h-1.75Zm1.55-3.78h-.22v1.56h.26c.23,0,.42-.07.55-.22.14-.15.2-.34.2-.57,0-.25-.07-.44-.2-.57-.13-.14-.33-.2-.59-.2Z"/>
        <path class="cls-1" d="m144.34,49.51c-.25,0-.47-.03-.66-.08-.19-.06-.37-.13-.55-.23l-.06-1.06h.1l.4.77c.1.09.21.16.33.21s.24.07.36.07c.2,0,.37-.05.49-.16.13-.11.19-.26.19-.47,0-.14-.03-.26-.09-.35-.06-.09-.15-.18-.29-.26-.13-.08-.32-.18-.56-.3-.27-.13-.47-.28-.61-.46-.14-.18-.21-.4-.21-.67,0-.17.04-.33.12-.48.08-.15.18-.29.31-.41.13-.12.27-.21.43-.28s.32-.1.49-.1c.19,0,.38.02.55.07s.34.12.49.21l.06,1h-.1l-.39-.71c-.1-.08-.19-.15-.28-.19-.09-.04-.2-.07-.31-.07-.15,0-.28.05-.38.16-.1.11-.15.25-.15.43s.06.31.17.42c.11.11.3.23.58.37.34.18.59.35.75.54s.24.43.24.73c0,.27-.07.5-.21.69s-.32.34-.53.44c-.22.1-.44.15-.68.15Z"/>
        <path class="cls-1" d="m145.95,49.45v-.1l.48-.26v-3.41l-.48-.26v-.1h1.81v.1l-.48.26v3.41l.48.26v.1h-1.81Z"/>
        <path class="cls-1" d="m148.63,49.45v-.1l.6-.26v-3.43h-.8l-.45,1.03h-.09v-1.38h3.54v1.38h-.09l-.45-1.03h-.8v3.43l.6.26v.1h-2.04Z"/>
        <path class="cls-1" d="m152.5,49.45v-.1l.51-.26v-1.57l-1.23-1.86-.38-.24v-.1h1.74v.1l-.42.23v.02l.98,1.47.88-1.46v-.02l-.43-.24v-.1h1.28v.1l-.38.21-1.19,1.89v1.58l.5.26v.1h-1.86Z"/>
        <path class="cls-1" d="m158.48,49.51c-.28,0-.53-.05-.77-.16-.24-.11-.44-.25-.62-.44-.17-.19-.31-.41-.41-.67s-.15-.54-.15-.85.05-.59.15-.85c.1-.26.23-.48.41-.67.17-.19.38-.34.62-.44.24-.11.49-.16.77-.16s.54.05.78.16c.24.11.44.25.62.44.17.19.31.41.41.67.1.26.15.54.15.85s-.05.59-.15.85-.23.48-.41.67c-.17.19-.38.34-.62.44-.24.11-.5.16-.78.16Zm.09-.33c.19,0,.35-.07.5-.2.14-.13.26-.32.34-.56s.12-.53.12-.85c0-.4-.05-.75-.15-1.05-.1-.3-.23-.53-.4-.7-.17-.16-.36-.25-.57-.25-.19,0-.35.07-.5.2-.15.13-.26.32-.35.56-.08.24-.13.53-.13.85,0,.4.05.75.15,1.05.1.3.24.53.41.7s.36.25.57.25Z"/>
        <path class="cls-1" d="m160.61,49.45v-.1l.48-.26v-3.41l-.48-.26v-.1h3.01v1.08h-.09l-.38-.74h-1.21v1.5h.81l.32-.54h.09v1.37h-.09l-.32-.53h-.81v1.62l.57.26v.1h-1.9Z"/>
        <path class="cls-1" d="m166.17,49.51c-.25,0-.47-.03-.66-.08-.19-.06-.37-.13-.55-.23l-.06-1.06h.1l.4.77c.1.09.21.16.33.21s.24.07.36.07c.2,0,.37-.05.49-.16.13-.11.19-.26.19-.47,0-.14-.03-.26-.09-.35-.06-.09-.15-.18-.29-.26-.13-.08-.32-.18-.56-.3-.27-.13-.47-.28-.61-.46-.14-.18-.21-.4-.21-.67,0-.17.04-.33.12-.48.08-.15.18-.29.31-.41.13-.12.27-.21.43-.28s.32-.1.49-.1c.19,0,.38.02.55.07s.34.12.49.21l.06,1h-.1l-.39-.71c-.1-.08-.19-.15-.28-.19-.09-.04-.2-.07-.31-.07-.15,0-.28.05-.38.16-.1.11-.15.25-.15.43s.06.31.17.42c.11.11.3.23.58.37.34.18.59.35.75.54s.24.43.24.73c0,.27-.07.5-.21.69s-.32.34-.53.44c-.22.1-.44.15-.68.15Z"/>
        <path class="cls-1" d="m169.84,49.51c-.39,0-.74-.09-1.04-.27-.3-.18-.53-.42-.69-.73-.16-.31-.25-.65-.25-1.04,0-.31.06-.6.17-.87s.27-.5.46-.7c.19-.2.41-.36.66-.47s.5-.17.77-.17c.2,0,.36.01.5.04.13.02.25.06.35.11s.21.1.32.16l.06,1.17h-.1l-.53-.97c-.09-.07-.18-.11-.26-.14-.08-.03-.18-.04-.3-.04-.23,0-.43.08-.62.23-.18.15-.33.37-.43.64s-.16.6-.16.97.05.68.15.94c.1.26.24.47.41.61s.37.22.59.22c.14,0,.26-.02.37-.06.11-.04.22-.09.32-.15l.51-.84h.1l-.08,1.06c-.15.1-.34.18-.55.24-.22.06-.46.09-.73.09Z"/>
        <path class="cls-1" d="m171.52,49.45v-.1l.48-.26v-3.41l-.48-.26v-.1h1.81v.1l-.48.26v3.41l.48.26v.1h-1.81Z"/>
        <path class="cls-1" d="m173.49,49.45v-.1l.48-.26v-3.41l-.48-.26v-.1h3.07v1.08h-.09l-.42-.74h-1.23v1.48h.87l.32-.54h.09v1.41h-.09l-.32-.53h-.87v1.61h1.37l.44-.93h.09v1.28h-3.22Z"/>
        <path class="cls-1" d="m176.98,49.45v-.1l.48-.26v-3.41l-.48-.26v-.1h1.07l2.18,2.74v-2.39l-.64-.25v-.1h1.51v.1l-.47.26v3.8h-.35l-2.43-3.01v2.63l.64.26v.1h-1.51Z"/>
        <path class="cls-1" d="m183.24,49.51c-.39,0-.74-.09-1.04-.27-.3-.18-.53-.42-.69-.73-.16-.31-.25-.65-.25-1.04,0-.31.06-.6.17-.87s.27-.5.46-.7c.19-.2.41-.36.66-.47s.5-.17.77-.17c.2,0,.36.01.5.04.13.02.25.06.35.11s.21.1.32.16l.06,1.17h-.1l-.53-.97c-.09-.07-.18-.11-.26-.14-.08-.03-.18-.04-.3-.04-.23,0-.43.08-.62.23-.18.15-.33.37-.43.64s-.16.6-.16.97.05.68.15.94c.1.26.24.47.41.61s.37.22.59.22c.14,0,.26-.02.37-.06.11-.04.22-.09.32-.15l.51-.84h.1l-.08,1.06c-.15.1-.34.18-.55.24-.22.06-.46.09-.73.09Z"/>
        <path class="cls-1" d="m184.91,49.45v-.1l.48-.26v-3.41l-.48-.26v-.1h3.07v1.08h-.09l-.42-.74h-1.23v1.48h.87l.32-.54h.09v1.41h-.09l-.32-.53h-.87v1.61h1.37l.44-.93h.09v1.28h-3.22Z"/>
        <path class="cls-1" d="m189.33,49.45v-.1l.34-.21,1.47-3.85h.5l1.45,3.83.38.22v.1h-1.78v-.1l.49-.22-.38-1.04h-1.33l-.38,1.04.47.22v.1h-1.22Zm1.27-1.71h1.07l-.53-1.46-.54,1.46Z"/>
        <path class="cls-1" d="m193.48,49.45v-.1l.48-.26v-3.41l-.48-.26v-.1h1.07l2.18,2.74v-2.39l-.64-.25v-.1h1.51v.1l-.47.26v3.8h-.35l-2.43-3.01v2.63l.64.26v.1h-1.51Z"/>
        <path class="cls-1" d="m197.72,49.45v-.1l.48-.26v-3.41l-.48-.26v-.1h1.92c.45,0,.83.08,1.14.24.31.16.55.39.71.67.16.28.24.6.24.96,0,.33-.05.63-.16.9-.11.28-.26.51-.45.71-.19.2-.42.36-.68.47s-.54.17-.85.17h-1.88Zm1.69-3.78h-.36v3.44h.44c.44,0,.77-.16,1.01-.47s.35-.73.35-1.25-.12-.94-.36-1.26-.6-.47-1.08-.47Z"/>
        <path class="cls-1" d="m203.67,49.45v-.1l.6-.26v-3.43h-.8l-.45,1.03h-.09v-1.38h3.54v1.38h-.09l-.45-1.03h-.8v3.43l.6.26v.1h-2.04Z"/>
        <path class="cls-1" d="m206.57,49.45v-.1l.48-.26v-3.41l-.48-.26v-.1h3.07v1.08h-.09l-.42-.74h-1.23v1.48h.87l.32-.54h.09v1.41h-.09l-.32-.53h-.87v1.61h1.37l.44-.93h.09v1.28h-3.22Z"/>
        <path class="cls-1" d="m212.06,49.51c-.39,0-.74-.09-1.04-.27-.3-.18-.53-.42-.69-.73-.16-.31-.25-.65-.25-1.04,0-.31.06-.6.17-.87s.27-.5.46-.7c.19-.2.41-.36.66-.47s.5-.17.77-.17c.2,0,.36.01.5.04.13.02.25.06.35.11s.21.1.32.16l.06,1.17h-.1l-.53-.97c-.09-.07-.18-.11-.26-.14-.08-.03-.18-.04-.3-.04-.23,0-.43.08-.62.23-.18.15-.33.37-.43.64s-.16.6-.16.97.05.68.15.94c.1.26.24.47.41.61s.37.22.59.22c.14,0,.26-.02.37-.06.11-.04.22-.09.32-.15l.51-.84h.1l-.08,1.06c-.15.1-.34.18-.55.24-.22.06-.46.09-.73.09Z"/>
        <path class="cls-1" d="m213.73,49.45v-.1l.48-.26v-3.41l-.48-.26v-.1h1.77v.1l-.44.26v1.48h1.56v-1.48l-.45-.26v-.1h1.77v.1l-.47.26v3.41l.47.26v.1h-1.77v-.1l.45-.26v-1.59h-1.56v1.59l.44.26v.1h-1.77Z"/>
        <path class="cls-1" d="m218.09,49.45v-.1l.48-.26v-3.41l-.48-.26v-.1h1.07l2.18,2.74v-2.39l-.64-.25v-.1h1.51v.1l-.47.26v3.8h-.35l-2.43-3.01v2.63l.64.26v.1h-1.51Z"/>
        <path class="cls-1" d="m224.32,49.51c-.28,0-.53-.05-.77-.16-.24-.11-.44-.25-.62-.44-.17-.19-.31-.41-.41-.67s-.15-.54-.15-.85.05-.59.15-.85c.1-.26.23-.48.41-.67.17-.19.38-.34.62-.44.24-.11.49-.16.77-.16s.54.05.78.16c.24.11.44.25.62.44.17.19.31.41.41.67.1.26.15.54.15.85s-.05.59-.15.85-.23.48-.41.67c-.17.19-.38.34-.62.44-.24.11-.5.16-.78.16Zm.09-.33c.19,0,.35-.07.5-.2.14-.13.26-.32.34-.56s.12-.53.12-.85c0-.4-.05-.75-.15-1.05-.1-.3-.23-.53-.4-.7-.17-.16-.36-.25-.57-.25-.19,0-.35.07-.5.2-.15.13-.26.32-.35.56-.08.24-.13.53-.13.85,0,.4.05.75.15,1.05.1.3.24.53.41.7s.36.25.57.25Z"/>
        <path class="cls-1" d="m226.45,49.45v-.1l.48-.26v-3.41l-.48-.26v-.1h1.86v.1l-.53.26v3.43h1.24l.46-1.18h.09v1.53h-3.11Z"/>
        <path class="cls-1" d="m231.74,49.51c-.28,0-.53-.05-.77-.16-.24-.11-.44-.25-.62-.44-.17-.19-.31-.41-.41-.67s-.15-.54-.15-.85.05-.59.15-.85c.1-.26.23-.48.41-.67.17-.19.38-.34.62-.44.24-.11.49-.16.77-.16s.54.05.78.16c.24.11.44.25.62.44.17.19.31.41.41.67.1.26.15.54.15.85s-.05.59-.15.85-.23.48-.41.67c-.17.19-.38.34-.62.44-.24.11-.5.16-.78.16Zm.09-.33c.19,0,.35-.07.5-.2.14-.13.26-.32.34-.56s.12-.53.12-.85c0-.4-.05-.75-.15-1.05-.1-.3-.23-.53-.4-.7-.17-.16-.36-.25-.57-.25-.19,0-.35.07-.5.2-.15.13-.26.32-.35.56-.08.24-.13.53-.13.85,0,.4.05.75.15,1.05.1.3.24.53.41.7s.36.25.57.25Z"/>
        <path class="cls-1" d="m236,49.51c-.27,0-.52-.05-.76-.15s-.44-.24-.62-.43c-.18-.18-.32-.4-.42-.65-.1-.25-.15-.52-.15-.81,0-.32.06-.62.17-.88.11-.27.27-.5.47-.7s.43-.35.68-.46c.26-.11.52-.16.8-.16.2,0,.37.01.51.04.14.02.27.06.38.11.11.05.22.1.33.16l.06,1.1h-.1l-.54-.91c-.1-.07-.2-.12-.29-.15s-.2-.04-.32-.04c-.24,0-.45.08-.64.23s-.34.36-.46.63c-.11.27-.17.58-.17.94s.05.7.16.97.26.48.44.62c.19.15.39.22.62.22.06,0,.13,0,.21,0,.07,0,.15-.02.23-.03v-1.16l-.5-.29v-.1h1.77v.1l-.42.3v1.01c-.12.11-.26.2-.42.28s-.33.14-.51.18-.35.07-.51.07Z"/>
        <path class="cls-1" d="m238.83,49.45v-.1l.51-.26v-1.57l-1.23-1.86-.38-.24v-.1h1.74v.1l-.42.23v.02l.98,1.47.88-1.46v-.02l-.43-.24v-.1h1.28v.1l-.38.21-1.19,1.89v1.58l.5.26v.1h-1.86Z"/>
      </g>
    </g>
  </g>
</svg>
