<?xml version="1.0" encoding="UTF-8"?>
<svg id="_图层_2" data-name="图层 2" xmlns="http://www.w3.org/2000/svg" width="154.84mm" height="37.22mm" viewBox="0 0 438.91 105.5">
  <defs>
    <style>
      .cls-1 {
        stroke-width: 1.11px;
      }

      .cls-1, .cls-2, .cls-3, .cls-4, .cls-5 {
        fill: none;
        stroke-miterlimit: 22.93;
      }

      .cls-1, .cls-3, .cls-4, .cls-5 {
        stroke: #0066b1;
      }

      .cls-6, .cls-7, .cls-8, .cls-9, .cls-10 {
        stroke-width: 0px;
      }

      .cls-6, .cls-10 {
        fill: #0066b1;
      }

      .cls-7 {
        fill: #e60819;
      }

      .cls-7, .cls-8, .cls-10 {
        fill-rule: evenodd;
      }

      .cls-2 {
        stroke: #0064af;
        stroke-width: 2.04px;
      }

      .cls-3 {
        stroke-width: 1.11px;
      }

      .cls-8 {
        fill: #64615f;
      }

      .cls-9 {
        fill: #fff;
      }

      .cls-4 {
        stroke-width: 1.11px;
      }

      .cls-5 {
        stroke-width: 1.11px;
      }
    </style>
  </defs>
  <g id="_图层_1-2" data-name="图层 1">
    <g>
      <path class="cls-10" d="m32.62,64.51h74.01c-1.51,3.05-3.39,5.67-5.5,8.02h-63.06c-2.38-2.37-4.18-5.06-5.45-8.02"/>
      <path class="cls-2" d="m69.42,1.02c37.77,0,68.4,23.16,68.4,51.73s-30.63,51.73-68.4,51.73S1.02,81.32,1.02,52.75,31.65,1.02,69.42,1.02Z"/>
      <polyline class="cls-10" points="44.78 56.6 47.88 46.04 52.08 46.04 50.27 52.54 51.67 52.54 53.6 46.04 57.82 46.04 54.82 56.6 50.54 56.6 51.28 53.79 49.86 53.79 49.1 56.6 44.78 56.6"/>
      <polyline class="cls-10" points="59.31 46.08 56.14 56.69 66.14 56.69 69.07 46.08 64.96 46.08 62.19 55.38 60.74 55.38 63.4 46.08 59.31 46.08"/>
      <path class="cls-10" d="m39.7,59.96l34.67.08c2.37-1.67,4.79-5.27,4.16-7.79-.84-1.63-2.42-2.64-5.27-4.93-.99-1.11-2.04-2.16-3.12-3.18-2.98-1.91-5.93-3.91-8.84-6.02-1.7-1.3-1.01-3.1,2.52-2.66,9.7.77,18.24,2.83,25.63,6.18,1.56.85,1.07,1.25-.2,1.4l-7.94-.07c-1.86.13-3.1,1.15-4.33,3.19h4.54l-4.06,13.89h5.11l4.02-13.8h2.98c1.76-1.6,3.42-3.51,5.03-5.57,1.29-2.21,1.2-4.73-1.2-6.03-5.36-2.51-11.32-3.03-15.76-3.21-7.29.2-12.8.76-15.54,2.34l-1.45,1.22c-4.53-.02-6.81,1.82-4.94,4.17,1.21,1.61,6.17,3.41,12.16,5.82,4.61,1.54,5.77,5.11,3.17,8.6-1.8,2.58-5.3,4.03-10.35,4.44-5.42.37-10.83.31-16.25-.28-1.91.71-3.61,1.41-4.73,2.21"/>
      <path class="cls-9" d="m42.31,69.02s.02,0,.05-.02c.05.04.07.16.07.37,0,.07-.03.1-.09.11-.14,0-.3-.03-.47-.1,0,0,0-.01-.02-.03,0,0,.03-.03.08-.07.13-.1.24-.18.35-.24.02,0,.02,0,.02-.03h0m.12-.79c0,.14-.09.25-.27.32-.02,0-.04.02-.06.04l-.23.14c-.08.03-.15.06-.2.1,0-.03,0-.05,0-.06,0-.02,0-.04,0-.06,0-.05.02-.12.03-.2,0-.08.07-.14.19-.17.18-.04.28-.07.31-.1.05-.01.08-.05.09-.1,0-.08-.02-.16-.05-.25-.09-.12-.19-.2-.29-.24-.11-.05-.14-.16-.1-.32.02-.08.04-.14.07-.16.06-.08.14-.12.24-.12.06,0,.12.02.16.07.06.05.09.14.09.28,0,.05,0,.09.02.13-.01.04-.02.28,0,.7Zm3.44-.54c0-.54.09-.94.27-1.18,0-.01,0-.02,0-.03,0-.03-.01-.06-.05-.08-.51-.1-.84-.14-.96-.12-.18.01-.38.05-.6.12-.27.05-.49.08-.67.09-.05,0-.09,0-.12.02-.08.03-.12.07-.12.13.05.41.04.83,0,1.26-.05.28-.08.51-.09.67,0,.04,0,.09-.02.14,0,.22-.09.48-.26.79-.06.04-.12.14-.16.31,0,0,0,0,0,.01h-.04v-.02h0s0-.03,0-.04c-.08-.38-.08-.61-.02-.7.02-.23.03-.5.04-.79.02-.54.03-.84.05-.89,0-.1.04-.22.13-.36.11-.18.15-.28.13-.31-.1-.09-.33-.14-.7-.14-.62.12-1.07.22-1.34.3-.21.06-.31.12-.32.19,0,1,.04,1.68.13,2.06,0,.05-.11.16-.34.32-.11.07-.19.11-.23.12-.18.06-.27.1-.27.15,0,.04.06.1.17.18.16.12.28.18.35.19l.4-.34s.1-.07.26-.2c.14-.08.22-.12.25-.13.03.01.09.07.16.16.41.27.7.43.88.48.08.03.13.05.13.08,0,.04-.14.17-.41.41-.07.04-.11.08-.13.1-.02.02-.03.04-.05.05-.08.08-.13.13-.13.14,0,.03.03.05.1.05.16,0,.47-.11.93-.33.08-.04.12-.1.13-.16,0-.08.17-.41.52-.99.02-.05.06-.11.11-.17,0,0,0-.01.02-.03.08-.07.27-.19.58-.38,0,0,.01,0,.03-.01,0,0,.02-.01.05-.03.17-.04.27-.07.29-.09.04-.04.05-.14.04-.29-.02-.09-.03-.14-.05-.15-.02-.03-.04-.04-.09-.04-.31.03-.49.05-.54.06-.05,0-.07-.02-.08-.06,0-.16.07-.27.21-.35.28-.14.43-.26.46-.36,0-.03,0-.05,0-.07,0-.12-.07-.18-.21-.19-.11.01-.22.03-.34.05-.03,0-.05-.03-.05-.08v-.19c0-.13.08-.22.23-.28.11-.04.22-.06.34-.07.06,0,.12.02.16.05.06.04.11.22.14.54v.03c0,1.16.02,1.88.05,2.13.01.31.02.58.02.8,0,.08-.02.14-.05.18-.06.04-.31.05-.74.01-.28-.03-.42-.03-.42.01,0,.01.02.05.05.11.08.09.39.23.92.43.16.03.4.1.72.21.11.04.2.06.27.06.08,0,.12-.03.12-.1,0-.02,0-.04-.03-.06-.02-.07-.03-.15-.04-.26-.08-.51-.12-1.23-.12-2.17,0-.12-.01-.27-.04-.46,0-.18,0-.36,0-.53Z"/>
      <path class="cls-9" d="m52.97,69.57c-.1,0-.21-.01-.32-.02-.16,0-.24.03-.23.1,0,.04.22.19.67.47.06.03.17.09.33.17.24.08.37.12.39.12.05,0,.08-.04.11-.12.03-.16,0-.33-.08-.52-.02-.04-.05-.06-.11-.07-.08-.01-.16-.03-.25-.05-.24-.05-.41-.08-.51-.08m-1.35-1.26s0-.03,0-.05c.01-.04.04-.1.06-.19.02-.08.09-.12.2-.13.02,0,.05,0,.1.01.08.03.12.08.12.18-.03.27-.11.44-.25.51-.04,0-.07.01-.1.02-.02,0-.05,0-.09.02-.08,0-.12-.04-.12-.12,0-.03.02-.08.06-.15,0-.04,0-.07,0-.11Zm-.79-.12c.06-.08.13-.11.21-.11.08,0,.14,0,.17.03,0,.2-.03.34-.09.4-.06.06-.11.1-.15.1-.09,0-.14-.06-.14-.17v-.25Zm-.6.11c.08,0,.14.05.18.14.03.08.06.15.08.2,0,.02-.02.04-.07.06-.03,0-.07,0-.11.01-.06,0-.12-.03-.17-.08-.05-.06-.07-.13-.07-.2,0-.04.01-.07.03-.09.05-.03.09-.04.13-.04Zm2.29-.95s.08-.01.1-.03v-.25c-.03-.05-.07-.11-.12-.17-.09-.09-.16-.14-.21-.14-.03,0-.1.02-.2.06-.01,0-.03,0-.04.01l-.09.02c-.22.01-.39.03-.5.06-.02,0-.05,0-.1.02-.05,0-.07-.03-.08-.08l.09-.49c.02-.07.04-.14.06-.22,0-.01-.02-.03-.06-.05-.09-.04-.18-.07-.26-.07-.04,0-.09.02-.16.06-.01.01-.04.08-.06.21-.01.1-.03.18-.05.24,0,.09-.01.14-.02.16l-.09.3c-.06.05-.19.09-.4.12-.08,0-.28.06-.61.19-.02,0-.02,0-.02,0l-.1-.1c-.08.06-.12.11-.12.13,0,.02,0,.04.02.06.03.06.06.1.09.15.01.04.03.07.04.08.03.05.07.08.11.08.38-.08.65-.11.8-.11.05,0,.07.02.08.06,0,.05-.02.1-.07.14-.16.08-.47.16-.91.25-.16.04-.24.09-.25.14,0,.13.14.37.42.71.05.04.12.1.21.17.12.08.19.12.23.13.12-.03.25-.07.4-.12.56-.2.92-.2,1.08-.01.16.13.32.14.48.04,0-.01.02-.03.04-.04.05-.06.14-.18.26-.34.05-.08.11-.16.18-.24.02-.1.11-.24.28-.41.04-.05.06-.09.06-.11,0-.04-.06-.09-.17-.15-.35-.15-.83-.21-1.46-.19-.08.01-.13.02-.15.03-.05,0-.08-.03-.09-.08,0-.06.04-.1.13-.11.05,0,.1-.02.15-.03.15-.04.25-.06.31-.06h.75Zm-1.55,2.5c-.08-.08-.12-.13-.12-.14s.01-.02.03-.03l.51-.11c.08.06.16.13.24.21.02.03.04.04.04.06,0,.01,0,.02-.02.03-.39.01-.61.02-.67,0-.02-.01-.03-.02-.03-.03Zm.37.52c.06-.01.16-.06.3-.15.11-.1.18-.16.21-.16.02,0,.05.03.09.09.11.17.17.31.17.43,0,.03-.02.07-.07.13-.06.05-.2.08-.41.08-.6,0-.96-.08-1.08-.24-.09-.1-.13-.33-.13-.67,0-.07.01-.12.03-.14.02-.02.05-.04.1-.04.06,0,.11.05.14.15.03.14.1.28.21.41.07.1.13.15.19.16h.03s.1-.04.2-.06Zm1.17.93s.1,0,.2-.01c.14,0,.23-.02.26-.04.03-.01.05-.03.05-.06-.03-.22-.11-.4-.25-.54-.06-.06-.1-.11-.12-.15-.09-.12-.17-.19-.24-.22,0-.04-.13-.18-.4-.43-.06-.05-.13-.1-.21-.15-.05-.03-.07-.05-.08-.07,0-.03.02-.04.06-.04.05,0,.09,0,.13-.02.06-.01.1-.04.1-.08-.08-.18-.24-.29-.48-.32-.29,0-.57.04-.86.11,0,0-.01,0-.06,0-.17.01-.36.05-.56.11-.09.02-.2.04-.32.04-.08,0-.12.02-.13.06.11.17.17.27.19.31,0,.03-.06.08-.19.15-.05.01-.11.05-.18.11-.16.12-.29.22-.37.32-.09.1-.14.16-.15.18-.02.01-.02.03-.02.05,0,.04.07.08.21.14.24.08.37.11.39.11.08,0,.12-.03.12-.08,0-.07.02-.14.06-.21.03-.1.08-.2.15-.31.02-.01.02-.03.02-.04.08-.14.13-.21.16-.22.05,0,.09.08.12.22.01.11.03.19.03.26.1.34.23.56.38.66.03.01.07.02.11.03.24.04.45.06.65.06.08,0,.39.02.93.06-.05,0-.09,0-.14,0,.14,0,.29,0,.44.02Zm-3.28-4.53c-.13-.12-.22-.18-.29-.18s-.14.04-.21.13c-.04.05-.08.1-.12.16-.09.08-.18.2-.26.35-.11.13-.18.23-.21.31-.05.12-.1.21-.13.26,0,.03-.01.04-.02.05,0,.04.02.07.07.07.12,0,.31-.1.57-.31.12-.1.26-.2.44-.31-.03.02-.06.04-.08.06.26-.22.39-.35.4-.4,0-.04-.06-.1-.17-.19Zm-.54,3.43c.01-.3.06-.49.13-.57.08-.23.12-.37.12-.42-.01-.03-.07-.06-.17-.09-.25-.06-.35-.17-.3-.31,0-.01,0-.02,0-.03,0-.01.12-.12.35-.33,0,0,.01,0,.03-.03.06-.06.11-.09.13-.11.22-.13.34-.26.35-.38,0-.04-.07-.11-.21-.22-.08-.05-.14-.08-.18-.08-.02,0-.15.13-.4.38-.22.32-.34.49-.36.5-.05.04-.1.1-.16.19-.08.08-.16.15-.23.23-.01.02-.05.05-.1.1-.51.43-.76.73-.77.89,0,.04.04.06.13.06.02,0,.05,0,.1-.02.4-.13.66-.25.81-.34.06-.04.1-.07.1-.07.01,0,.04,0,.06-.01.03,0,.06.02.08.05.05.19.06.31.03.34-.05.08-.07.42-.07,1.03,0,.08.01.13.03.15.05.04.14.06.27.06.12,0,.18-.06.18-.19-.02-.39-.01-.65.02-.78Z"/>
      <path class="cls-9" d="m59,69.31s-.01,0-.02.01c-.45.13-.84.23-1.16.3-.32.07-.57.12-.74.17-.1.01-.17.02-.22.03-.12,0-.18.02-.19.06,0,.11.04.2.13.27.03.03.07.04.12.04.52-.15,1.26-.29,2.22-.4,0,0,.01,0,.02,0,.05.03.07.12.08.29,0,.28-.03.48-.08.59-.02.04-.1.08-.22.1-.03,0-.08,0-.15.02-.04,0-.12,0-.24-.01l-.52-.08c-.23-.04-.4-.06-.53-.06,0,.03.04.08.13.16.11.12.56.28,1.33.49.02,0,.04,0,.07.01l.39.04s.03,0,.05.01c.07,0,.11-.02.15-.06,0-.01.05-.19.14-.52,0-.02.02-.12.05-.3,0,0,0,0,0-.01-.02-.42-.01-.65,0-.68.05-.04.35-.07.89-.07.07,0,.28.04.63.12.23.06.37.09.42.07.05-.04.06-.11.05-.19-.1-.09-.21-.21-.33-.36-.03-.02-.06-.03-.08-.05-.83-.03-1.33-.03-1.52,0-.02,0-.06,0-.12,0,0-.01-.01-.02-.02-.03,0-.03,0-.05-.02-.08,0-.04.03-.08.08-.1l.58-.26c.06-.04.1-.08.1-.12s-.04-.08-.13-.12c-.07-.03-.11-.05-.15-.06-.15-.08-.42-.11-.8-.11-.03,0-.22.05-.58.14l-.42.09c-.16.03-.33.07-.49.11,0,0,0,0,0,0-.3.05-.49.08-.59.08-.04,0-.07,0-.09.02-.02,0-.03.02-.03.05,0,.01.11.12.33.32.03.03.08.05.13.05.04,0,.1-.03.19-.08.36-.19.74-.34,1.16-.44.02,0,.11-.03.28-.1.13-.03.21-.04.24-.04,0,0,.02.01.03.02,0,.07-.04.14-.12.23-.07.06-.17.09-.33.1-.23,0-.35.03-.38.08,0,.03.07.1.21.22l.02.04m0-2.08c.1-.05.3-.08.6-.08.1,0,.18.02.24.06.05.03.08.11.09.24,0,.27-.06.45-.16.54h-.05c-.05-.05-.11-.09-.15-.12-.75.1-1.15.16-1.21.16l-.04-.03s0-.02-.02-.03c-.04-.28-.04-.44-.02-.46,0-.01.05-.03.14-.06.02,0,.12-.04.31-.12l.27-.1Zm-4.22,3.38s.12.03.21.01c.03,0,.14-.04.31-.11l.65-.37s.03-.03.06-.05c.07-.04.14-.1.22-.17.04-.04.06-.12.06-.24,0-.1.12-.3.35-.6,0-.01.09-.13.28-.35.05-.07.1-.14.15-.2.11-.21.18-.34.21-.41.02-.02.03-.04.06-.06.02-.03.03-.05.05-.06.02-.08.06-.14.11-.2,0,0,0,0,.02,0,0,0,.01,0,.02,0,.26.41.46.65.59.7.03,0,.3-.06.79-.19.43-.08.74-.09.94-.03.16.04.25.06.25.07.08,0,.14-.01.18-.04,0-.03.04-.09.11-.18,0,0,0,0,.02-.01.16-.44.34-.76.54-.94,0-.04-.09-.1-.24-.18-.34-.15-.77-.19-1.29-.1-.24,0-.77.1-1.58.3-.02,0-.04,0-.06,0,0-.06.01-.14.04-.24.02-.01.04-.03.06-.04,0,0,.11-.03.33-.08.11-.05.38-.08.79-.08.47-.13.9-.2,1.28-.2.04,0,.06-.02.07-.07,0-.04-.04-.11-.13-.21-.02-.02-.03-.04-.05-.07-.02-.04-.06-.08-.11-.12-.05-.04-.1-.06-.15-.06s-.2.03-.47.1c-.31.04-.6.09-.89.17-.5.07-.77.09-.81.09-.05-.01-.12-.03-.2-.06-.04,0-.08,0-.11-.01-.08,0-.13.02-.15.05-.08.21-.12.45-.13.72,0,.04-.01.08-.02.14,0,.04-.02.09-.05.17l-.05.19c-.04.07-.06.12-.07.17l-.26.56s-.01,0-.02.01c-.03.08-.07.16-.12.25,0,.01-.02.03-.03.06-.13.19-.23.36-.3.5-.3.39-.52.65-.68.78,0,.01,0,.02,0,.03-.03.02-.06.04-.08.07-.44.34-.67.55-.67.63Zm3.97-2.76c.28,0,.5-.05.67-.16.04-.04.06-.1.07-.17,0-.1-.05-.16-.15-.16-.11,0-.33.05-.66.16-.08.01-.11.02-.1.02-.09.02-.14.03-.15.04-.02.01-.03.04-.04.07.02.04.05.08.09.14l.02.04s.1.03.24.03Z"/>
      <path class="cls-9" d="m65.08,66.17c-.12.04-.25.08-.38.12-.06.02-.09.04-.09.08,0,.11.09.22.25.32.13.1.26.15.38.15.04,0,.07-.02.1-.05.05-.14.15-.32.31-.55.02-.05.03-.11.05-.17,0-.02-.02-.04-.05-.04-.04,0-.23.04-.54.12-.02,0-.03,0-.04.01m-.85.52c-.17-.13-.28-.19-.32-.19-.09,0-.17.02-.23.07-.09.09-.1.28-.03.57,0,.06.1.1.3.12.21,0,.35,0,.42.03.19,0,.29-.05.29-.16,0-.07-.14-.22-.43-.43Zm-.02,2.71c-.7.18-1.06.28-1.08.3-.03.05.03.17.17.36.28-.12.95-.26,2.01-.41h.02s.07.03.07.1v.56c-.05.11-.09.22-.12.34-.04.02-.09.05-.13.09-.15.01-.29.03-.43.05-.01,0-.03,0-.04,0-.25-.04-.47-.08-.66-.13-.02.01-.03.03-.03.05,0,.09.11.19.34.29.45.2.87.33,1.27.4h0s.08-.02.12-.06c.12-.15.21-.48.28-1,.04-.51.09-.78.13-.79.03-.03.18-.04.44-.04.03-.03.26-.01.69.03.28.08.43.11.45.11.08,0,.12-.05.13-.14,0-.03-.02-.08-.05-.17-.01-.05-.03-.11-.04-.17-.02-.11-.08-.19-.17-.22-.3-.05-.8-.03-1.5.06-.05,0-.09-.03-.1-.09,0-.05,0-.11,0-.16.07-.03.16-.06.27-.09.07-.01.15-.04.24-.09.11-.07.23-.15.35-.21.41,0,.81-.03,1.19-.07l.15-.02c.06,0,.09-.04.1-.09,0-.19-.39-.48-1.17-.89-.01-.01-.02-.02-.03-.02-.07-.02-.33-.05-.8-.11-.03,0-.05-.02-.05-.04,0,0,.13-.13.38-.37.15-.15.25-.23.29-.26.18-.09.27-.15.27-.17-.21-.25-.4-.38-.57-.41h0c-.06,0-.15.07-.26.22-.39.55-.66.9-.83,1.03-.11.07-.34.16-.68.27-.24.08-.61.22-1.11.41-.16.01-.25.05-.25.11v.03c0,.05.02.09.06.14.03.03.07.05.1.05.27-.1.52-.15.75-.15.49-.14.86-.23,1.1-.27.22-.09.65-.18,1.28-.27,0,0,.02,0,.03,0,.05,0,.15.02.31.09.1.05.16.11.16.19,0,.1-.05.2-.16.29-.16.09-.27.14-.31.14-.51-.17-.81-.26-.88-.25-.19,0-.8.16-1.81.47-.02,0-.04,0-.05.01-.04.01-.07.04-.07.08,0,.13.09.25.26.37.04.03.09.04.13.04.04,0,.18-.07.4-.22.06-.02.24-.07.53-.15.04-.03.11-.08.19-.16.09-.11.21-.17.34-.17.06,0,.09.03.09.09,0,.04-.05.11-.16.23-.12.1-.26.15-.43.15-.06.03-.1.06-.1.1l.15.29s-.04.07-.13.09c-.28.04-.63.12-1.03.25Zm-1.83-.75c0,.07.14.15.42.21.16.04.26.06.31.06.12,0,.19-.04.19-.12,0,0,0-.01,0-.03-.06-.17-.06-.39,0-.64,0-.04-.03-.06-.11-.06-.14,0-.32.07-.53.22-.15.12-.24.24-.27.36h0Z"/>
      <path class="cls-9" d="m76.07,67.33c.12.01.23.01.33,0,0-.01.02-.02.04-.02,0-.11-.03-.19-.1-.25-.05-.07-.23-.16-.53-.28-.06-.04-.13-.08-.2-.12,0,0-.01,0-.03-.02-.06.02-.1.05-.11.07,0,.02-.01.18-.01.48.03.07.11.1.23.1.02,0,.04,0,.06-.01,0,0,.01,0,.03.01.01.01.03.02.05.02.08,0,.16.01.26.02m-2.8,1.67h0c-.07-.06-.12-.1-.14-.12-.04-.03-.23-.12-.57-.25-.03-.02-.06-.05-.08-.08,0,0,0-.01-.02-.02-.01,0-.04,0-.07-.02-.03,0-.06.02-.08.05-.05.07-.07.18-.08.33,0,.09.04.17.11.22.13.07.4.07.8.02.04,0,.08-.01.1-.03.02-.02.03-.05.04-.1h-.01Zm-1.24-1.03c0,.13.07.27.22.4,0,0,0,.01.02.02.03.02.05.03.07.03.03,0,.1-.02.21-.07.08-.05.36-.1.83-.14.13-.01.23-.01.3,0l.04.03c0,.36.01.57.04.62,0,.09.02.25.05.47.03.65.03,1,0,1.05-.01.01-.03.02-.04.04-.09.05-.23.06-.42.04h-.01c-.12,0-.3-.04-.54-.1-.03,0-.08,0-.15-.01v.04c.09.08.17.13.23.16,0,0,.03.02.09.06.1.08.42.2.95.36.06.02.13.05.2.08.18.07.3.1.37.1.01,0,.04,0,.06-.02.01-.01.02-.05.03-.13-.02-.09-.04-.19-.06-.28-.03-.18-.05-.36-.06-.56v-.79s.03-.03.07-.03c.07,0,.3.1.67.3.01.01.04.02.07.04l.26.17c.08.04.16.15.25.33,0,.1.14.15.41.16.15.02.51.02,1.1,0,.2-.01.36-.05.48-.11,0-.02,0-.04.01-.06-.07-.09-.3-.18-.68-.25h-.01s-.03,0-.04-.01l-.78-.17s-.05,0-.07,0c-.45-.2-.89-.47-1.31-.82,0-.03.23-.17.69-.4.1-.07.17-.1.21-.11.04-.02.15-.06.31-.11,0-.07-.03-.13-.08-.19-.08-.08-.15-.12-.23-.13-.03,0-.08.03-.15.08-.02,0-.02.01-.03.02-.04.01-.27.16-.69.43-.03.02-.07.04-.1.06-.14.07-.22.1-.24.11-.07,0-.12-.03-.15-.1-.03-.03-.04-.16-.04-.37,0-.09.03-.14.09-.17,0,0,.03,0,.07-.02.06-.01.27-.06.62-.16,0,0,.02,0,.04,0,.09,0,.16,0,.2-.02.04-.01.07-.04.07-.07s-.1-.17-.3-.4c-.02-.02-.04-.04-.07-.04l-.61.12s-.08-.02-.08-.07c0-.6.03-.93.09-.97,0,0,0,0,.01-.03.03-.02.06-.05.11-.09v-.03c-.06-.04-.18-.09-.36-.13l-.04-.03h-.03s-.01,0-.01.02c-.06-.01-.11-.02-.17-.02-.04.02-.07.17-.09.43,0,.11-.01.22-.02.34,0,.02-.04.27-.11.73-.05.03-.15.07-.29.1-.15.02-.26.05-.34.08-.03,0-.23.02-.59.07l-.47.06s-.03.03-.04.04v.03Zm1.02,1.41s-.24.11-.6.3c-.01,0-.02,0-.02.02-.28.12-.51.22-.69.31-.22.08-.34.15-.34.2,0,.03.11.13.32.32.05.04.1.07.17.09.04,0,.12-.07.24-.2l.59-.42c.52-.42.79-.65.82-.69.06-.04.09-.07.09-.11,0-.03-.02-.05-.06-.05-.09,0-.26.08-.52.24Z"/>
      <path class="cls-9" d="m80.62,67.64h-.04c-.06,0-.09-.02-.1-.05,0-.05.04-.1.13-.14.27-.11.43-.18.47-.21.05-.07.05-.18.03-.33-.02-.02-.04-.04-.09-.04,0,0-.03,0-.06,0-.06.01-.16.03-.31.06-.02-.02-.03-.03-.03-.05,0-.02.03-.07.12-.15.11-.1.24-.14.38-.15.07,0,.14.04.21.11.03.05.05.42.06,1.11,0,.06-.03.09-.08.1-.02,0-.04,0-.07-.02-.03-.01-.06-.09-.09-.23-.01-.05-.19-.05-.52,0m.15,1.84s-.01.05-.04.06c-.09,0-.21-.06-.37-.19-.04-.04-.07-.1-.07-.18,0-.1.03-.17.1-.23.03-.05.09-.07.17-.07.12,0,.18.08.19.24l.02.37Zm-1.9.61l-.63.23c-.18.06-.27.11-.27.16,0,.06.1.09.31.09.3,0,.6-.06.9-.17.04-.02.07-.03.11-.04.09-.04.15-.09.18-.16,0-.11.06-.21.18-.31.06-.07.42-.03,1.07.13.27.13.53.21.77.25.28.04.49.13.63.26,0,0,.08.08.1.12.06.08.06.19.1.29.02.05.1.08.26.09.26,0,.42.01.48.03.09,0,.29.01.61.04.37-.02.57-.03.6-.02.14-.04.28-.08.43-.12.06-.02.09-.04.09-.08,0-.04-.06-.07-.18-.11-.36-.11-1.07-.27-2.13-.48-.03-.01-.38-.14-1.04-.38-.07-.02-.1-.07-.1-.13,0-.01,0-.04.01-.08.05-.12.1-.19.16-.22.2-.1.44-.15.74-.15.03-.01.05-.04.05-.08,0-.01-.01-.05-.04-.11,0,.01,0,0,0-.04,0-.04,0-.07-.02-.1-.02-.02-.2-.04-.55-.04,0,0-.06,0-.16.01-.06,0-.09-.02-.09-.08,0-.02,0-.04.02-.07.02-.05.07-.08.14-.08.02,0,.05,0,.09-.01.72-.05,1.17-.05,1.35,0,.08,0,.11-.03.12-.09,0-.02,0-.03,0-.05,0-.1-.04-.21-.13-.36-.06-.08-.13-.11-.21-.11l-.61.08c-.07,0-.1-.04-.1-.12,0-.1.05-.55.16-1.35.03-.11.07-.22.12-.33-.04-.07-.21-.12-.5-.14-.42-.01-1.02.07-1.82.23-.05,0-.1.01-.16.03-.07,0-.11.04-.14.11-.06.17,0,.6.17,1.31.02.1.02.15.03.17.03.11.1.16.22.16.47-.18.72-.26.75-.25.09.02.18.06.27.11.11.07.17.11.17.12-.02.01-.17.05-.46.1-.67.07-1.6.27-2.8.59-.06,0-.05.08.02.23,0,0,0,0,.03.04.08.07.15.12.2.12.18-.12.59-.22,1.24-.3,0,0,.02,0,.04,0,.06,0,.09.03.09.1,0,.11-.1.28-.3.52-.06.05-.19.17-.4.37-.06.03-.12.06-.18.1Z"/>
      <path class="cls-9" d="m89.36,68.65c.01.17.06.3.12.39.04.05.08.08.14.09.06,0,.12-.02.18-.06.09-.06.14-.2.15-.42,0-.12.05-.33.15-.65,0-.02-.01-.03-.03-.04-.06-.05-.26-.1-.59-.14-.02,0-.02,0-.02,0-.1,0-.15.04-.15.13,0,.02,0,.05.02.07l.04.64m-.18,1.67c0,.12.21.28.62.5.11.06.26.12.44.17.04.01.07.03.11.04.48.17.8.26.97.27.12,0,.19-.06.19-.17-.18-1.3-.24-2.12-.17-2.46-.08-1.32-.05-2.06.1-2.21,0,0,0,0,.02-.01,0-.01,0-.03,0-.04,0-.06-.09-.13-.27-.19-.25-.08-.39-.12-.41-.12-.03,0-.07.01-.11.04-.05.02-.07.08-.07.16v1.9s.01.09.02.13c0,.13.01.37.02.74.05.99.06,1.49.05,1.51-.04.04-.16.06-.38.06-.51-.05-.81-.12-.91-.21-.11-.06-.19-.09-.25-.09Zm-1.16-1.63c0,.05,0,.11,0,.18,0,.14-.05.25-.12.34-.04.04-.1.06-.19.06s-.14-.02-.15-.07c0-.07-.01-.11-.02-.12-.06-.06-.16-.09-.31-.09-.02,0-.04,0-.08,0-.02,0-.03,0-.04-.02,0-.03.19-.14.58-.34.11-.04.21-.05.3-.02.01.01.02.04.03.09Zm-1.08-.88c-.45.51-.93.97-1.44,1.38,0,.01-.02.02-.04.03-.06.06-.1.11-.11.13-.03.05-.08.1-.14.15-.02.01-.03.03-.03.05,0,.03.02.04.05.04.02,0,.05,0,.08-.02,0,0,.01,0,.02,0,.02,0,.03,0,.05-.01.09-.02.21-.05.35-.08.03,0,.16-.05.39-.15.03-.02.07-.03.11-.04.04-.01.08-.04.13-.08.05-.05.14-.11.28-.19l.14-.09s.01,0,.02,0l.22.04s.03.04.04.11c-.1.81-.15,1.23-.15,1.26.03.23.18.41.45.54.1.08.46.06,1.09-.04.02,0,.03,0,.05,0,.09-.01.16-.04.22-.07.03-.02.05-.07.05-.15-.02-.16-.05-.3-.1-.42l-.16-.39s-.04-.03-.06-.03c-.09,0-.15.07-.16.22,0,.1-.03.21-.08.31-.04.07-.09.12-.18.14-.16.04-.28.06-.37.06s-.16-.02-.23-.07c-.09-.07-.11-.22-.05-.44.04-.19.08-.3.14-.34.02-.03.19-.02.5,0,.15,0,.3-.1.43-.31,0-.02.02-.04.03-.05l.12-.24s.04-.11.09-.23c.02-.06.02-.11.03-.13,0-.03,0-.06.02-.09.06-.05.09-.12.09-.21,0-.03-.04-.06-.11-.1-.28-.14-.61-.14-1.01,0-.2.07-.31.11-.33.12-.2.09-.32.14-.35.15-.04,0-.06-.02-.06-.06,0-.06.11-.23.33-.49.06-.09.14-.17.22-.23.06-.06.14-.13.22-.2.08-.05.14-.07.19-.07.11,0,.23.05.37.16.13.1.25.15.36.13.12-.02.21-.05.25-.07.17-.09.26-.16.26-.22,0-.1-.13-.17-.39-.21-.22-.02-.33-.03-.35-.05-.1-.02-.15-.05-.15-.11.22-.23.33-.36.33-.38-.01-.04-.05-.09-.1-.15-.02-.01-.03-.03-.05-.06-.07-.09-.12-.13-.17-.13-.07,0-.24.15-.52.45-.02.03-.04.05-.06.08l-.77.89Z"/>
      <path class="cls-9" d="m94.91,70.29c.36,0,.64-.12.86-.35.16-.23.22-.41.17-.54,0-.32.17-.54.5-.68.07-.03.14-.05.22-.05.03,0,.05,0,.07.03.05.04.1.5.15,1.4,0,.05.01.25.02.6,0,.5.04.77.13.83.04.01.09.02.15.02.21,0,.31-.05.32-.16-.02-.25-.02-.62-.02-1.1-.02-.56-.02-.89,0-1.01-.01-.09.01-.27.08-.54.02-.08.05-.13.11-.17.03-.04.28-.04.75-.01,0,0,.01,0,.02,0,.05,0,.1,0,.16.02.1,0,.15-.04.15-.11,0-.04-.03-.11-.08-.2-.1-.16-.16-.26-.2-.29-.08-.08-.14-.12-.18-.12-.07,0-.17,0-.3.02-.19.02-.73.14-1.63.37h-.08c-.05-.11.02-.26.19-.44.08-.12.3-.19.68-.22.04,0,.13-.04.29-.11.25-.08.38-.13.41-.18,0-.03.01-.07.02-.11,0-.06-.03-.13-.1-.21-.05-.05-.12-.08-.2-.08-.17,0-.54.1-1.12.28,0,0,0,0-.01,0-.36.06-.55.12-.58.16-.01.01-.02.31-.03.9-.02.11-.04.23-.05.35l-.07.32c-.11.3-.17.47-.19.51-.02.03-.03.05-.04.08l-.24.35c-.17.19-.27.32-.31.38v.04m-.23-4.61c-.08,0-.15.03-.22.1-.16.13-.23.3-.23.52,0,.06.04.12.12.2.14.13.3.19.49.19.05,0,.12-.02.23-.06.07-.24-.02-.51-.26-.82l-.09-.11-.02-.02Zm-1.16,4.35c0-.09.02-.17.04-.26,0-.03.01-.06.02-.08,0-.14.01-.22.04-.25.02-.02.06-.04.13-.05.08,0,.13-.01.15-.02.05-.01.11-.02.2-.03.06.09.08.31.06.66,0,.05-.02.09-.05.11-.04.04-.11.06-.23.06-.11,0-.19-.02-.25-.04-.04-.01-.07-.04-.1-.08v-.03Zm.23-1.08c-.17.06-.35.12-.52.18-.05,0-.32.07-.83.2-.1.02-.15.04-.17.07-.02.05-.01.1.03.16.03.05.09.1.19.15l.07-.02c.07-.04.3-.11.71-.2l.02.02s0,0,0,.01c0,0-.01.02-.02.03-.04.02-.07.05-.1.09,0,0-.02.01-.05.05-.03.04-.06.07-.09.1-.29.3-.44.49-.44.54,0,.04.04.08.11.13.2.08.32.12.37.13.08,0,.14-.03.18-.08.08-.21.24-.23.47-.04l.04.03s.02,0,.05.02c.34.14.56.21.65.21.08,0,.14-.03.18-.08.05-.13.05-.35,0-.68,0,.01,0,.03,0,.04-.02-.13-.02-.2,0-.21.29,0,.46,0,.51-.02,0,0,0,0,0,0,.06-.05.09-.1.09-.14,0-.09-.1-.17-.29-.25-.14-.05-.22-.09-.25-.11v-.04s.04-.07.12-.09c.23-.04.36-.06.4-.06.02-.01.05-.02.08-.03.19-.04.28-.09.29-.14,0-.08-.04-.15-.12-.23-.07-.05-.12-.08-.17-.08-.06,0-.21.03-.43.1-.05-.02-.07-.06-.07-.1,0-.02,0-.05.02-.08.03-.02.15-.07.36-.15.19-.08.28-.16.29-.26,0-.05-.02-.09-.05-.13-.03-.02-.1-.04-.2-.04-.03,0-.06-.01-.09-.02,0-.01,0-.02,0-.04,0-.05.07-.11.2-.17.23-.12.25-.23.05-.33-.06-.02-.12-.05-.18-.08-.02,0-.03-.01-.05-.02,0,0-.01-.02-.02-.04.04-.03.09-.05.16-.06.19-.06.29-.16.29-.31h-.02v-.02c-.21-.09-.57-.06-1.09.08-.86.17-1.32.28-1.37.32,0,.08.05.18.15.32.1-.02.2-.05.32-.09.09-.02.17-.03.23,0-.08.14-.15.28-.22.44-.02.02-.03.06-.04.11,0,.09.04.14.12.14.02,0,.03,0,.04,0,.02,0,.05-.01.08-.02.11-.03.25-.16.42-.39.11-.15.23-.23.36-.23.05,0,.07.03.07.09,0,.1-.09.23-.27.4-.06.06-.4.18-1.02.37-.05.01-.1.03-.15.05-.02,0-.04,0-.07.01-.04,0-.08.03-.12.08.05.15.11.25.18.3.03.01.07.02.12.03.21-.1.45-.15.74-.15.03,0,.05,0,.07.03.02.02.02.04.03.08,0,.01,0,.03-.03.06l-.3.08Z"/>
      <path class="cls-6" d="m69.14,74.38v3.04h-.65l-.38-1.38v1.38h-.62v-3.04h.62l.41,1.37v-1.37h.62m-2.72,1.95c-.04-.34-.07-.77-.11-1.27-.07.58-.12,1.01-.14,1.27h.25Zm.39-1.95l.42,3.04h-.76l-.04-.55h-.27l-.04.55h-.77l.38-3.04h1.07Zm-1.7,0v3.04h-.74v-1.28h-.22v1.28h-.74v-3.04h.74v1.09h.22v-1.09h.74Zm-2.11,0v2.03c0,.23,0,.39-.02.48-.01.09-.06.19-.12.29-.07.1-.16.17-.27.22-.11.05-.25.08-.4.08-.17,0-.32-.03-.45-.09-.13-.06-.23-.14-.29-.23-.06-.1-.1-.2-.11-.3-.01-.11-.02-.33-.02-.68v-1.8h.74v2.28c0,.13,0,.22.02.25.01.04.04.06.08.06.05,0,.08-.02.09-.06.01-.04.02-.14.02-.29v-2.24h.74Zm-1.95,0l-.33,3.04h-.92c-.08-.47-.16-1-.22-1.59-.03.25-.1.78-.21,1.59h-.92l-.33-3.04h.72l.08,1.06.08,1.02c.03-.53.09-1.22.2-2.08h.77c.01.09.04.42.08,1l.08,1.15c.04-.73.11-1.45.2-2.16h.72Z"/>
      <path class="cls-6" d="m79.87,76.33c-.04-.34-.08-.77-.11-1.27-.08.58-.12,1.01-.14,1.27h.26m.4-1.95l.43,3.04h-.77l-.04-.55h-.27l-.04.55h-.78l.38-3.04h1.09Zm-1.73,0v3.04h-.66l-.39-1.38v1.38h-.63v-3.04h.63l.42,1.37v-1.37h.63Zm-2.11,0v3.04h-.75v-3.04h.75Zm-1.18,0v3.04h-.75v-1.28h-.22v1.28h-.75v-3.04h.75v1.09h.22v-1.09h.75Zm-2.13,1.32h-.75v-.53c0-.15,0-.25-.02-.29-.02-.04-.05-.06-.11-.06-.06,0-.1.02-.12.07-.02.05-.03.15-.03.3v1.41c0,.15,0,.24.03.29.02.05.05.07.11.07s.09-.02.11-.07c.02-.04.03-.15.03-.32v-.38h.75v.12c0,.31-.02.54-.06.67-.04.13-.14.25-.28.35-.14.1-.32.15-.53.15s-.4-.04-.54-.13c-.14-.08-.24-.2-.28-.35-.05-.15-.07-.37-.07-.67v-.89c0-.22,0-.38.02-.49.01-.11.06-.22.13-.32.07-.1.17-.18.29-.24.13-.06.27-.09.43-.09.22,0,.4.05.55.14.14.09.24.2.28.34.05.13.07.34.07.63v.29Z"/>
      <ellipse class="cls-3" cx="69.56" cy="52.81" rx="48.83" ry="32.13"/>
      <ellipse class="cls-4" cx="69.58" cy="52.9" rx="39.91" ry="31.69"/>
      <line class="cls-5" x1="42.61" y1="25.98" x2="96.34" y2="25.98"/>
      <line class="cls-1" x1="43.16" y1="79.87" x2="96.09" y2="79.87"/>
      <path class="cls-8" d="m23.85,86.06l-.19.24-1.81-1.38.19-.24.12.09c.1.08.22.09.35.05.09-.03.21-.1.35-.23.1-.09.32-.35.67-.8l4.53-5.79c.35-.45.56-.74.63-.87.07-.13.11-.25.12-.38,0-.13-.04-.23-.13-.3l-.12-.09.19-.24,1.81,1.38-.19.24-.12-.09c-.1-.08-.22-.09-.35-.05-.09.03-.21.1-.35.23-.1.09-.32.36-.67.8l-4.53,5.79c-.35.45-.56.74-.63.87-.07.13-.11.26-.12.38-.01.13.03.23.13.3l.12.09"/>
      <path class="cls-8" d="m35.06,80.47l-.19.28c-.18-.03-.43.09-.76.35-.25.2-.74.73-1.53,1.55l-5.65,5.85-.09-.06,3.27-7.89c.46-1.11.78-1.73.84-1.94.06-.21.03-.38-.08-.52l.19-.28,1.8,1.2-.19.28-.06-.04c-.16-.11-.31-.13-.44-.06-.09.05-.19.14-.29.29-.06.09-.12.2-.19.34-.07.13-.24.5-.51,1.09l-2.6,5.64,3.77-4.05c.46-.49.76-.82.9-1,.14-.17.26-.33.35-.46.1-.15.18-.29.22-.43.05-.14.06-.25.05-.35-.02-.14-.1-.25-.23-.34l.19-.28,1.24.82"/>
      <path class="cls-8" d="m37.09,82.03l-2.26,3.67.08.04c.22.13.8.75,1.35.26.34-.31.19-.25.65-.86l.29.08-2.03,3.39-.3-.12c.33-.49.29-.34.43-.73.13-.39.16-.48.13-.66-.03-.17-.76-.6-.94-.71l-1.6,2.66c-.31.52-.49.84-.55.97-.05.13-.08.24-.07.34,0,.1.06.19.17.25l.23.13c.36.21.77.17,1.23-.11.46-.28.59-.29,1.19-1.08l.28.29-1.75,2.16-3.33-1.95.15-.26.13.07c.11.07.23.07.36,0,.09-.04.19-.13.31-.27.09-.1.27-.38.56-.86l3.73-6.22c.26-.43.41-.69.46-.8.08-.17.12-.32.12-.44,0-.17-.05-.29-.18-.37l-.13-.07.16-.26,3.22,1.88-1.16,2.31-.31-.15c.35-.72.26-.67.33-1.03.08-.36.07-.66-.03-.9-.05-.15-.23-.3-.52-.47l-.4-.23"/>
      <path class="cls-8" d="m40.78,83.98l-2.25,4.28.16.07c.26.11.49.14.69.08.2-.07.42-.24.66-.53.24-.29.5-.69.77-1.2.39-.75.61-1.32.66-1.74.05-.42-.08-.69-.38-.82l-.3-.13m-2.52,4.79l-1.44,2.74c-.28.53-.44.87-.49,1.01-.05.15-.06.28-.04.39.02.11.12.2.3.28l-.14.27-1.98-.86.14-.27c.18.08.32.09.43.03.11-.06.21-.14.31-.27.1-.12.28-.45.56-.98l3.34-6.34c.28-.53.44-.87.49-1.01.05-.15.06-.28.04-.39-.02-.11-.12-.2-.3-.28l.14-.27,1.8.78c.47.2.77.44.9.69.13.26.15.64.05,1.14-.09.5-.3,1.04-.61,1.63-.38.72-.8,1.27-1.25,1.65-.29.24-.59.38-.9.43l-.81,3.71c-.1.48-.16.78-.16.91,0,.18.05.3.14.36l-.14.27-1.22-.53,1.1-5-.25-.11Z"/>
      <path class="cls-8" d="m46.2,85.33l-1.21,3.46-.13-.04c.25-.88.35-1.63.3-2.23-.05-.6-.22-.95-.5-1.03-.22-.07-.44.02-.67.26-.23.24-.41.54-.54.9-.08.23-.13.44-.15.63-.03.26-.01.53.04.8.04.2.16.57.37,1.11.29.75.43,1.42.42,2.01-.01.58-.15,1.21-.39,1.9-.31.86-.72,1.57-1.23,2.1-.51.53-.98.74-1.42.6-.14-.04-.25-.12-.35-.22-.1-.11-.21-.28-.32-.52-.07-.13-.13-.21-.2-.23-.06-.02-.13.01-.23.1-.1.08-.21.22-.32.42l-.12-.04,1.41-3.91.12.04c-.3,1.13-.42,2.02-.36,2.68.06.66.24,1.04.55,1.14.24.07.49-.02.74-.29.25-.27.46-.61.6-1.02.09-.24.15-.49.17-.74.03-.24.02-.49-.01-.73-.04-.24-.14-.57-.3-.99-.23-.59-.37-1.07-.43-1.45-.06-.38-.06-.79,0-1.21.05-.43.16-.89.34-1.37.3-.82.68-1.49,1.14-1.99.46-.5.89-.69,1.27-.57.14.04.26.12.37.25.08.09.16.24.24.45.09.21.16.32.21.34.06.02.11-.01.18-.08.06-.07.16-.26.3-.56l.1.03"/>
      <path class="cls-8" d="m53.29,87.49l-.86,2.83-.12-.03c.13-.67.19-1.16.2-1.46,0-.31-.04-.56-.14-.77-.05-.12-.18-.2-.39-.25l-.33-.08-2.45,8.05c-.16.53-.25.87-.27,1.01-.02.14,0,.27.04.39.04.12.13.2.25.23l.15.04-.09.28-2.3-.59.09-.28.15.04c.13.03.25,0,.36-.08.08-.06.16-.17.25-.34.06-.11.17-.43.33-.96l2.45-8.05-.32-.08c-.3-.08-.56.01-.78.28-.31.37-.61.93-.9,1.69l-.12-.03.86-2.83,3.95,1.02"/>
      <path class="cls-8" d="m58.51,88.46l-.05.3c-.16.02-.3.11-.41.26-.15.21-.44.79-.86,1.75l-1.69,3.78-.46,2.62c-.1.56-.15.91-.15,1.05,0,.14.03.26.09.38.06.12.15.18.27.2l.26.04-.05.29-2.61-.38.05-.29.24.04c.14.02.26-.02.35-.12.07-.07.14-.19.21-.36.05-.12.12-.46.22-1l.38-2.18-.28-4.8c-.06-.95-.11-1.51-.18-1.68-.06-.18-.16-.28-.31-.3l.05-.3,2.23.32-.05.3h-.1c-.13-.03-.24,0-.31.08-.07.08-.11.17-.13.28-.03.19-.03.69.02,1.49l.21,3.71,1.41-3.15c.35-.77.54-1.28.59-1.55.02-.14.02-.27-.03-.37-.05-.14-.18-.24-.39-.3l.05-.3,1.42.2"/>
      <path class="cls-8" d="m63.42,89.72c-.42-.04-.8.43-1.14,1.4-.28.8-.51,1.98-.69,3.51-.22,1.83-.25,3.2-.08,4.1.12.63.35.97.69,1,.23.02.44-.09.63-.33.24-.32.46-.84.66-1.57.2-.73.37-1.69.52-2.88.17-1.42.24-2.49.22-3.2-.03-.72-.11-1.23-.25-1.54-.14-.31-.32-.47-.55-.5m.02-.51c.74.01,1.27.57,1.59,1.68.33,1.11.39,2.46.2,4.05-.16,1.36-.48,2.54-.94,3.54-.62,1.32-1.33,1.94-2.15,1.86-.82-.09-1.38-.8-1.67-2.16-.23-1.07-.26-2.31-.09-3.73.19-1.59.59-2.9,1.17-3.91.59-1.02,1.22-1.46,1.89-1.32Z"/>
      <path class="cls-8" d="m67.03,90.23l-.07,4.45h.13c.2,0,.36-.07.49-.21.13-.14.24-.38.33-.72.09-.34.16-.8.19-1.38h.12s-.09,5.44-.09,5.44h-.12c-.02-1.03-.13-1.71-.31-2.04-.18-.33-.39-.5-.63-.5h-.13s-.05,3.31-.05,3.31c0,.55,0,.9.02,1.04.02.14.07.26.14.36.07.11.17.16.3.16h.15s0,.3,0,.3l-2.35-.03v-.29s.15,0,.15,0c.13,0,.24-.05.32-.16.06-.07.11-.2.14-.38.03-.12.04-.46.05-1.01l.12-7.12c0-.55,0-.9-.02-1.04-.02-.14-.07-.26-.14-.36-.07-.1-.17-.16-.3-.16h-.15s0-.3,0-.3l3.79.06-.05,3.11h-.14c-.02-.73-.09-1.27-.21-1.63-.12-.35-.3-.6-.54-.75-.13-.08-.38-.13-.73-.13h-.42"/>
      <path class="cls-8" d="m79.03,88.87l.72,3.76-.13.02c-.29-.96-.61-1.68-.99-2.15-.37-.47-.72-.68-1.07-.61-.28.05-.51.29-.67.73-.16.43-.24.97-.23,1.63.01.83.11,1.74.3,2.73.19.97.41,1.84.66,2.62.26.78.53,1.35.83,1.72.3.37.62.52.97.45.29-.05.52-.25.7-.59.18-.34.33-.9.46-1.68l.18.94c-.13.68-.31,1.19-.53,1.53-.22.34-.52.54-.89.61-.49.09-.96-.06-1.43-.46-.47-.39-.89-1.01-1.26-1.84-.37-.83-.65-1.74-.84-2.72-.2-1.03-.27-2.04-.22-3.01.05-.97.22-1.75.51-2.33.29-.58.65-.91,1.09-.99.32-.06.69.04,1.11.31.24.15.39.23.45.22.07-.01.12-.09.15-.22.03-.14.02-.34-.01-.61l.13-.02"/>
      <path class="cls-8" d="m83.86,98.84l.06.29-2.24.46-.06-.29.14-.03c.12-.03.21-.1.27-.23.04-.08.06-.22.05-.4,0-.13-.05-.46-.16-.99l-1.36-6.99c-.11-.54-.18-.88-.23-1.01-.05-.13-.12-.24-.21-.33-.09-.09-.2-.12-.32-.09l-.14.03-.06-.29,2.24-.46.06.29-.14.03c-.12.03-.21.1-.27.22-.04.09-.06.22-.06.4,0,.13.05.46.16.99l1.36,6.99c.11.54.18.88.23,1.01.05.13.12.24.21.33.09.09.2.12.32.1l.14-.03"/>
      <path class="cls-8" d="m111.88,75.7l4.89,7.03c.26.37.42.59.5.67.08.07.15.12.22.14.1.03.2,0,.31-.07.34-.24.42-.67.25-1.3-.23-.85-.85-1.99-1.84-3.43-.8-1.16-1.53-2.02-2.18-2.6-.51-.45-.93-.7-1.27-.75-.24-.04-.53.07-.87.31m4.34,9.59l-.17-.24.14-.1c.12-.08.18-.19.19-.32,0-.13-.02-.27-.09-.43-.05-.11-.23-.39-.55-.86l-4.12-5.92c-.32-.46-.53-.74-.64-.84-.1-.1-.22-.17-.34-.21-.13-.04-.25-.02-.37.06l-.14.1-.17-.25,1.85-1.29c.49-.34.99-.47,1.5-.39.62.1,1.27.45,1.97,1.04.7.6,1.36,1.35,2,2.27.44.63.8,1.25,1.08,1.85.28.6.46,1.12.56,1.57.09.45.12.85.07,1.2-.05.34-.17.67-.37.98-.09.14-.26.3-.53.49l-1.85,1.29Z"/>
      <path class="cls-8" d="m127.89,41.06l3.68-.96.89,3.82-.28.09-.03-.14c-.03-.12-.11-.21-.23-.25-.08-.03-.22-.04-.4-.01-.13.01-.45.1-.97.26l-6.83,2.1c-.53.16-.86.28-.99.34-.13.06-.23.15-.31.25-.08.1-.11.21-.08.33l.03.14-.28.09-.54-2.3.28-.09.04.19c.03.13.1.21.23.25.09.03.22.04.4.02.13-.01.45-.1.97-.26l6.61-2.03c.53-.16.87-.28,1-.35.14-.07.24-.15.29-.25.03-.07.03-.2-.02-.4l-.08-.36c-.05-.23-.19-.39-.42-.48-.23-.09-.57-.13-1.01-.11-.44.02-1.09.1-1.93.25l-.03-.13"/>
      <path class="cls-8" d="m18.87,31l-2.79-1.9c-.46-.31-.76-.5-.89-.55-.13-.05-.26-.08-.4-.07-.14,0-.24.07-.32.19l-.1.14-.24-.17,1.51-2.21.24.17-.1.14c-.08.12-.1.25-.06.39.02.1.1.21.23.34.09.09.36.3.81.61l5.92,4.04c.46.31.76.5.89.55.13.06.26.08.4.07.13-.01.24-.08.32-.19l.1-.14.25.17-1.51,2.21-.25-.17.1-.14c.08-.12.11-.25.06-.39-.03-.1-.1-.21-.23-.35-.09-.1-.36-.3-.81-.6l-2.55-1.74-1.02,1.49,2.55,1.74c.46.31.76.5.89.56.13.06.26.08.4.07.13-.01.24-.08.32-.2l.09-.14.25.17-1.51,2.21-.25-.17.09-.14c.09-.12.11-.25.06-.39-.03-.1-.1-.21-.23-.35-.09-.09-.36-.3-.81-.6l-5.92-4.04c-.46-.31-.76-.5-.89-.56-.13-.06-.26-.08-.4-.07-.14.01-.24.08-.33.19l-.09.14-.24-.17,1.51-2.21.24.17-.09.14c-.09.12-.11.26-.06.39.02.1.1.21.23.35.09.09.36.3.81.6l2.79,1.9,1.02-1.49"/>
      <path class="cls-8" d="m21.24,37.39l-1.48,2.22-.25-.17.07-.11c.11-.17.15-.31.12-.42s-.11-.23-.22-.34c-.11-.11-.44-.35-.96-.7l-4.51-3.01c-.83-.55-1.39-.88-1.7-1.01-.31-.12-.59-.17-.86-.16-.27.02-.46.12-.6.33-.16.23-.18.5-.06.82.12.31.34.64.68.99.34.34,1,.84,1.98,1.5l3.76,2.5c.41.28.72.45.92.53.2.08.36.11.47.09.17-.03.31-.13.42-.3l.25.17-.99,1.49-.25-.17.06-.09c.08-.12.1-.25.05-.4-.05-.15-.17-.31-.35-.49-.13-.12-.38-.31-.75-.56l-3.5-2.33c-1.08-.72-1.84-1.28-2.28-1.66-.44-.39-.77-.84-1-1.37-.23-.53-.2-1.01.1-1.46.25-.37.55-.59.89-.65.47-.08.98-.03,1.5.16.53.19,1.18.54,1.94,1.05l4.51,3.01c.53.35.87.56,1.02.62.15.06.28.08.4.06.12-.01.24-.12.36-.3l.25.17"/>
      <path class="cls-8" d="m11.94,40.51l3.34.67-2.71-1.84-.63,1.17m-.69-.15l.74-1.59-1.31-.97c-.3-.22-.37-.38-.58-.48-.28-.14-.51-.18-.69-.14-.1.02-.22.14-.36.35l-.27-.13.61-1.49.27.13c0,.19.09.39.29.61.2.22.46.59,1.17,1.11l7.3,5.32-.12.23-8.75-2.36c-.85-.23-1.39-.33-1.64-.32-.19,0-.49.07-.57.19l-.27-.13,1.06-2.17.27.13-.04.09c-.07.17-.07.32.01.45.06.09.16.17.31.24.09.04.18.08.28.11.05.02.26.03.6.17l1.67.67Z"/>
      <path class="cls-8" d="m17.01,47.63l-9.71-4.48-.16.86c-.07.41-.07.7.03.89.14.3.45.59.93.87.48.28,1.14.54,1.99.77l-.02.13-3.87-.88.75-4.14,9.73,4.49.12-.67c.05-.26.06-.43.04-.52-.04-.17-.15-.34-.33-.51-.18-.17-.43-.33-.75-.49-.32-.15-.74-.3-1.25-.44l.02-.12,3.14.69-.65,3.57"/>
      <path class="cls-8" d="m10.84,49.2l-3.38-.4c-.56-.07-.91-.1-1.05-.09-.14.01-.27.05-.38.12-.12.07-.18.17-.19.3l-.02.16-.3-.04.27-2.51.3.04-.02.16c-.01.14.03.26.13.36.07.07.19.13.37.19.12.04.46.1,1.01.16l7.18.86c.56.07.91.1,1.05.09.14,0,.27-.05.38-.11.11-.07.18-.17.19-.3l.02-.16.3.04-.27,2.51-.3-.04.02-.16c.01-.14-.03-.26-.13-.36-.07-.07-.19-.13-.37-.19-.13-.04-.46-.09-1.01-.16l-3.09-.37-.18,1.7,3.09.37c.56.07.91.1,1.05.09.14,0,.27-.05.38-.12.11-.07.18-.17.19-.3l.02-.16.3.04-.27,2.51-.3-.04.02-.16c.02-.14-.03-.26-.13-.36-.07-.07-.19-.13-.37-.19-.13-.04-.46-.09-1.01-.16l-7.18-.86c-.56-.07-.91-.1-1.05-.09-.14,0-.27.05-.38.12-.12.07-.18.17-.19.3l-.02.16-.3-.04.27-2.51.3.04-.02.16c-.02.14.03.26.13.36.07.07.19.13.37.19.12.04.46.09,1.01.16l3.38.4.18-1.7"/>
      <path class="cls-8" d="m15.95,55.42c-.04-.42-.58-.7-1.64-.86-.86-.13-2.09-.15-3.68-.06-1.89.1-3.27.32-4.15.64-.61.22-.91.51-.87.85.02.23.17.41.46.55.37.18.94.3,1.71.37.77.07,1.77.07,3,0,1.46-.08,2.55-.2,3.27-.35.72-.15,1.22-.32,1.5-.51.28-.19.41-.4.39-.62m.52-.07c.13.72-.33,1.33-1.38,1.85-1.05.51-2.4.81-4.04.9-1.4.08-2.65-.02-3.75-.3-1.45-.37-2.22-.96-2.29-1.77-.07-.82.54-1.48,1.85-2.01,1.03-.41,2.28-.66,3.74-.74,1.64-.09,3.03.06,4.17.46,1.14.4,1.7.93,1.7,1.61Z"/>
      <path class="cls-8" d="m16.85,58.72l-6.05,3.9,4.57-1.02c.64-.14,1.06-.28,1.26-.42.28-.18.38-.41.31-.68l.29-.07.36,1.63-.29.07c-.1-.2-.21-.32-.31-.37-.11-.05-.27-.07-.48-.07-.21,0-.57.07-1.07.18l-8.84,1.98-.03-.12,8.11-5.31-6.75,1.51c-.61.14-1.01.29-1.19.47-.19.18-.26.35-.22.52l.03.12-.29.06-.39-1.75.29-.06c.07.27.23.43.49.49.26.05.67.02,1.23-.11l7.5-1.67.26-.17c.26-.17.42-.3.49-.4.07-.1.09-.23.07-.38l.29-.07.39,1.75"/>
      <path class="cls-8" d="m19.11,65.13l-3.52,1.58-.04-.11c.91-.57,1.56-1.11,1.96-1.61.39-.5.53-.91.4-1.24-.12-.31-.43-.48-.93-.5-.5-.02-1.14.1-1.93.35-.79.25-1.58.56-2.37.91-.96.43-1.78.86-2.47,1.28-.69.42-1.16.81-1.42,1.17-.26.36-.33.69-.22.98.04.1.1.19.2.27.09.08.21.16.35.23l3.47-1.34c.4-.15.64-.3.75-.38.11-.07.19-.17.26-.28.07-.11.08-.22.04-.32l-.04-.11.27-.12.7,1.85-.27.12c-.08-.14-.18-.23-.28-.25-.1-.03-.25-.01-.43.03-.1.02-.33.12-.7.28l-3.38,1.52c-.39-.14-.71-.32-.97-.54-.26-.22-.45-.49-.57-.8-.15-.4-.15-.78,0-1.16.16-.38.41-.76.75-1.15.34-.39.76-.76,1.24-1.11.62-.45,1.36-.86,2.2-1.24,1.5-.68,2.86-1.03,4.07-1.05,1.21-.02,1.94.3,2.2.97.08.21.11.41.1.61,0,.11-.06.31-.17.59-.11.28-.15.45-.14.48.02.06.09.09.21.09.12,0,.33-.04.62-.12l.04.11"/>
      <path class="cls-8" d="m20.94,67.63l1.59,2.14-.24.18-.08-.11c-.12-.16-.24-.24-.35-.25-.12,0-.25.02-.39.09-.15.07-.47.29-.98.67l-4.35,3.24c-.8.59-1.3,1.01-1.52,1.26-.22.25-.36.5-.44.75-.07.25-.04.48.11.68.17.22.42.33.75.33.33,0,.72-.11,1.16-.31.44-.21,1.13-.66,2.07-1.36l3.62-2.7c.4-.3.67-.53.81-.69.14-.17.22-.3.24-.41.03-.17-.01-.33-.14-.5l.24-.18,1.07,1.43-.24.18-.06-.09c-.09-.12-.21-.18-.37-.18-.16,0-.35.05-.58.17-.16.08-.42.25-.78.52l-3.37,2.51c-1.04.78-1.82,1.31-2.33,1.59-.51.28-1.05.44-1.63.48-.57.04-1.02-.15-1.34-.58-.27-.36-.37-.71-.31-1.06.08-.47.3-.93.65-1.36.36-.44.9-.93,1.64-1.48l4.35-3.24c.51-.38.82-.63.92-.75.11-.12.17-.24.19-.36.03-.12-.03-.27-.16-.44l.24-.18"/>
      <path class="cls-8" d="m25.97,73.35l-3.29,6.4,3.45-3.17c.48-.44.78-.77.89-.99.15-.3.12-.55-.07-.75l.22-.2,1.13,1.23-.22.2c-.19-.12-.34-.17-.46-.16-.12,0-.27.07-.45.18-.18.11-.46.34-.84.69l-6.67,6.13-.09-.09,4.36-8.65-5.09,4.68c-.46.42-.73.76-.8,1-.07.25-.05.43.06.56l.08.09-.22.2-1.21-1.32.22-.2c.19.2.41.26.66.18.25-.08.59-.32,1.01-.71l5.66-5.2.14-.28c.14-.27.22-.47.23-.59.01-.12-.03-.24-.13-.36l.22-.2,1.21,1.32"/>
      <path class="cls-8" d="m45.45,96.36l-.09.28-2.18-.66.09-.28.14.04c.12.04.24.01.35-.07.08-.05.16-.16.24-.33.06-.11.18-.43.35-.95l2.27-6.8c.18-.53.27-.86.3-1,.02-.14.02-.27-.02-.39-.04-.12-.11-.2-.23-.23l-.14-.04.09-.28,2.18.66-.09.28-.14-.04c-.12-.04-.24-.01-.34.07-.08.06-.16.16-.25.33-.06.12-.18.43-.35.95l-2.27,6.8c-.18.53-.27.86-.3,1-.02.14-.01.27.02.39.04.12.11.2.23.23l.14.04"/>
      <path class="cls-8" d="m74.1,89.19l.7,3.61-.15.03c-.23-.89-.53-1.59-.9-2.09-.37-.5-.7-.72-1.01-.65-.24.05-.4.23-.49.55-.09.32-.1.67-.03,1.05.04.24.11.45.19.63.11.24.27.46.46.68.14.16.45.42.93.78.67.51,1.16,1.03,1.45,1.54.29.52.51,1.13.64,1.85.16.91.15,1.72-.04,2.44-.19.72-.53,1.13-1.01,1.22-.15.03-.3.02-.45-.02-.15-.04-.34-.14-.58-.29-.13-.08-.23-.12-.31-.1-.06.01-.12.08-.16.2-.05.12-.07.3-.08.52l-.13.03-.74-4.1.13-.03c.31,1.13.67,1.97,1.08,2.52.4.55.78.79,1.12.72.26-.05.44-.26.54-.62s.11-.75.03-1.19c-.05-.26-.12-.5-.23-.73-.1-.23-.23-.44-.4-.63-.16-.19-.43-.43-.8-.71-.52-.4-.91-.75-1.16-1.05-.25-.3-.47-.66-.65-1.06-.18-.4-.31-.86-.41-1.36-.16-.86-.15-1.63.02-2.3.17-.66.47-1.04.89-1.13.16-.03.31-.02.47.03.12.04.28.13.47.28.19.14.32.21.38.19.06-.01.1-.07.12-.16.02-.09.02-.3-.01-.64l.11-.02"/>
      <path class="cls-8" d="m84.27,88.53l.85,4.23.09-.02c.25-.06,1.1,0,1.16-.73.04-.46-.03-.31-.11-1.07l.26-.13.83,3.87-.3.12c-.09-.58-.02-.45-.18-.82-.17-.37-.21-.46-.35-.57-.14-.11-.97.07-1.17.12l.65,3.04c.13.59.21.95.26,1.08.05.13.11.23.18.3.07.07.17.09.3.07l.26-.06c.41-.09.68-.4.83-.92.15-.52.23-.62.13-1.6l.4.02.19,2.77-3.76.85-.06-.29.14-.03c.13-.03.22-.11.27-.24.04-.09.06-.22.05-.41,0-.13-.06-.47-.18-1.01l-1.51-7.09c-.1-.49-.17-.79-.21-.89-.06-.18-.13-.31-.21-.4-.11-.13-.24-.18-.38-.15l-.14.03-.06-.3,3.64-.82.73,2.48-.33.1c-.23-.77-.27-.67-.46-.98-.18-.31-.4-.53-.64-.64-.14-.07-.37-.07-.7,0l-.45.1"/>
      <path class="cls-8" d="m88.3,87.06l4.44,5.78-1.37-4.49c-.19-.63-.36-1.04-.51-1.23-.21-.26-.45-.35-.73-.26l-.09-.29,1.65-.47.09.29c-.2.12-.31.23-.36.34-.05.11-.06.27-.04.49.02.21.11.57.26,1.06l2.65,8.69-.13.04-6.03-7.73,2.02,6.64c.18.6.37.99.57,1.16.2.18.38.24.55.19l.12-.03.09.28-1.78.5-.09-.28c.27-.08.43-.26.47-.52.04-.26-.03-.67-.2-1.22l-2.24-7.37-.19-.25c-.19-.25-.34-.4-.45-.47-.11-.06-.24-.08-.39-.05l-.09-.29,1.78-.5"/>
      <path class="cls-8" d="m95.56,84.68l1.18,3.64-.13.04c-.4-.92-.82-1.59-1.24-2.02-.42-.42-.8-.58-1.13-.48-.28.09-.47.36-.58.81-.11.45-.12,1-.03,1.64.12.82.33,1.71.64,2.67.3.94.63,1.78.98,2.52.35.74.7,1.28,1.04,1.6.34.33.68.44,1.02.33.28-.09.49-.31.62-.68.14-.36.22-.94.25-1.73l.29.91c-.05.69-.16,1.22-.34,1.58-.18.36-.45.6-.81.71-.47.15-.96.06-1.48-.28-.51-.33-1-.89-1.48-1.67-.47-.78-.86-1.65-1.17-2.6-.32-1-.52-1.99-.59-2.96-.07-.97,0-1.76.22-2.37.21-.62.53-.99.96-1.12.31-.1.69-.04,1.14.17.26.12.42.18.47.16.07-.02.11-.1.12-.24.01-.14-.02-.34-.09-.61l.13-.04"/>
      <path class="cls-8" d="m97.74,84.59l1.57,4.02.08-.03c.23-.1,1.09-.19,1.02-.92-.04-.46-.08-.3-.3-1.03l.24-.18,1.49,3.66-.28.17c-.19-.56-.1-.44-.32-.78-.23-.34-.29-.42-.44-.5-.15-.08-.94.24-1.13.32l1.17,2.88c.23.56.38.9.45,1.02.07.12.15.21.23.26.09.06.19.06.3.01l.25-.1c.38-.16.6-.51.65-1.05.05-.54.12-.65-.15-1.59l.4-.05.67,2.69-3.55,1.49-.11-.28.14-.06c.12-.05.19-.14.22-.28.02-.09.02-.23-.03-.41-.03-.13-.14-.45-.35-.96l-2.73-6.72c-.19-.46-.31-.74-.36-.84-.09-.17-.18-.29-.28-.36-.13-.11-.27-.13-.4-.08l-.14.06-.11-.28,3.44-1.44,1.15,2.31-.31.16c-.36-.71-.39-.61-.62-.89-.24-.28-.48-.45-.74-.52-.15-.05-.38,0-.69.13l-.42.18"/>
      <path class="cls-8" d="m107.38,86.43l-2.35-2.47,1.17,3.06,1.18-.6m.48.52l-1.52.87.52,1.55c.12.35.09.52.2.72.16.27.32.44.48.51.1.04.26.01.5-.08l.15.26-1.36.87-.15-.26c.12-.15.15-.37.11-.67-.04-.3-.04-.75-.33-1.58l-2.93-8.54.23-.12,5.81,6.95c.56.67.95,1.07,1.16,1.2.15.1.44.22.57.17l.15.26-2.11,1.18-.15-.26.08-.05c.16-.1.24-.23.24-.37,0-.1-.04-.23-.12-.37-.05-.09-.11-.17-.17-.25-.03-.04-.2-.17-.4-.48l-.98-1.5Z"/>
      <path class="cls-8" d="m106.9,78.73l6.04,4.08-2.71-3.83c-.38-.53-.67-.87-.88-1.01-.28-.18-.54-.19-.77-.02l-.17-.24,1.42-.97.17.24c-.15.17-.23.32-.23.43,0,.12.03.28.12.47.09.2.28.51.58.93l5.25,7.42-.11.07-8.16-5.44,4.01,5.66c.36.51.66.82.9.92.24.11.43.11.58,0l.1-.07.17.24-1.53,1.04-.17-.24c.23-.17.33-.38.28-.64-.05-.26-.24-.63-.57-1.1l-4.45-6.29-.26-.18c-.26-.17-.45-.27-.57-.3-.12-.03-.25,0-.39.08l-.17-.24,1.53-1.04"/>
      <path class="cls-8" d="m117.36,68.57l2.34,1.8-.07.1c-.58-.36-1.02-.59-1.3-.7-.29-.11-.54-.16-.77-.14-.13,0-.25.1-.37.28l-.19.28,6.68,5.12c.44.34.73.54.85.61.13.06.25.1.38.1.13,0,.23-.05.3-.15l.09-.12.24.18-1.37,1.95-.24-.18.09-.12c.08-.11.09-.23.05-.36-.03-.09-.1-.21-.23-.35-.09-.1-.35-.31-.78-.65l-6.68-5.12-.19.27c-.18.25-.18.53-.01.83.23.42.65.9,1.26,1.43l-.07.1-2.34-1.8,2.34-3.34"/>
      <path class="cls-8" d="m118.99,67.19l3.64,2.31.05-.08c.13-.22.76-.8.28-1.34-.3-.34-.24-.2-.85-.66l.09-.28,3.36,2.08-.12.3c-.48-.34-.34-.3-.72-.44-.39-.14-.48-.17-.66-.14-.17.02-.61.75-.72.93l2.64,1.63c.52.32.84.51.96.56.13.05.24.08.34.08.1,0,.19-.06.25-.17l.14-.23c.21-.36.18-.77-.09-1.23-.27-.46-.29-.59-1.06-1.2l.3-.27,2.13,1.77-1.99,3.3-.26-.16.08-.13c.07-.11.07-.23.01-.36-.03-.09-.12-.19-.27-.32-.1-.09-.38-.28-.85-.57l-6.17-3.81c-.43-.26-.69-.42-.79-.47-.17-.08-.32-.12-.44-.13-.17,0-.3.05-.37.17l-.08.13-.26-.16,1.92-3.2,2.29,1.19-.15.31c-.71-.36-.67-.26-1.03-.35-.35-.08-.66-.08-.9.02-.15.05-.31.22-.48.51l-.24.39"/>
      <path class="cls-8" d="m121.03,61.76l3.65,1.14-.04.13c-.98-.2-1.77-.25-2.36-.15-.59.1-.94.32-1.05.65-.09.28.02.59.32.94.31.35.75.67,1.32.97.74.38,1.59.72,2.55,1.02.94.29,1.82.51,2.62.66.81.14,1.44.17,1.91.08.47-.09.75-.3.86-.64.09-.28.03-.58-.19-.9-.22-.32-.64-.72-1.26-1.2l.91.28c.54.44.9.84,1.09,1.19.19.36.23.71.12,1.07-.15.47-.51.82-1.08,1.04-.57.22-1.31.3-2.21.24-.91-.07-1.84-.25-2.79-.55-1.01-.31-1.92-.72-2.75-1.23-.83-.5-1.44-1.02-1.81-1.55-.38-.53-.5-1.01-.36-1.43.1-.31.36-.59.8-.83.25-.14.39-.24.4-.29.02-.07-.02-.15-.13-.24-.11-.09-.29-.18-.55-.28l.04-.13"/>
      <path class="cls-8" d="m127.17,60.93l3.31.76c.55.13.89.19,1.04.2.14,0,.27-.02.39-.07.12-.05.2-.15.23-.28l.03-.16.29.07-.54,2.47-.29-.07.03-.16c.03-.14,0-.26-.09-.37-.06-.08-.18-.15-.35-.23-.12-.05-.45-.14-.99-.27l-7.04-1.62c-.55-.13-.89-.19-1.04-.2-.14,0-.27.02-.39.07-.12.05-.19.15-.22.28l-.03.16-.29-.07.54-2.47.29.07-.03.16c-.03.14,0,.26.09.37.06.08.18.15.35.23.12.06.45.14.99.27l3.03.7.36-1.67-3.03-.7c-.55-.13-.89-.19-1.04-.2-.14,0-.27.02-.39.07-.12.06-.19.15-.22.28l-.03.15-.29-.07.54-2.47.29.07-.03.15c-.03.14,0,.26.09.37.06.08.18.15.35.23.12.05.45.14.99.27l7.04,1.62c.55.13.89.19,1.04.2.14,0,.27-.02.39-.07.12-.06.2-.15.23-.28l.03-.15.29.07-.54,2.47-.29-.07.03-.15c.03-.14,0-.26-.09-.37-.06-.08-.18-.15-.35-.23-.12-.05-.45-.14-.99-.27l-3.31-.76-.36,1.67"/>
      <path class="cls-8" d="m122.56,54.24l6.92-2.3-4.69-.19c-.65-.03-1.1,0-1.33.08-.32.11-.48.31-.49.6h-.3s.1-1.73.1-1.73h.3c.04.23.11.38.2.46.09.08.24.14.45.19.21.05.57.09,1.09.11l9.08.36v.13s-9.3,3.15-9.3,3.15l6.93.28c.63.02,1.05-.03,1.28-.15.23-.13.35-.28.36-.46v-.12s.3.01.3.01l-.11,1.84h-.3c.01-.3-.1-.5-.34-.62-.23-.12-.64-.19-1.22-.22l-7.7-.31-.3.1c-.29.1-.49.19-.59.27-.1.08-.15.2-.17.36h-.3s.11-1.86.11-1.86"/>
      <path class="cls-8" d="m122.86,48.85c.06.42.62.67,1.68.75.86.07,2.08,0,3.65-.2,1.87-.24,3.22-.55,4.07-.94.6-.27.87-.58.82-.92-.03-.23-.2-.4-.49-.53-.37-.15-.95-.23-1.72-.25-.77-.01-1.76.06-2.98.21-1.45.18-2.52.38-3.22.58-.7.2-1.19.41-1.46.62-.27.21-.39.43-.35.65m-.51.11c-.18-.72.25-1.37,1.26-1.96,1.01-.59,2.33-.99,3.95-1.2,1.39-.18,2.63-.16,3.74.04,1.47.27,2.26.81,2.38,1.63.12.82-.45,1.53-1.72,2.15-1,.49-2.22.82-3.67,1.01-1.62.21-3.01.15-4.16-.17-1.15-.32-1.75-.82-1.78-1.5Z"/>
      <path class="cls-8" d="m116.86,36.3l3.29-2.19.07.1c-.82.72-1.38,1.37-1.69,1.93-.31.56-.37.99-.18,1.29.18.29.53.39,1.04.32.51-.07,1.14-.3,1.89-.69.75-.39,1.5-.83,2.24-1.32.89-.6,1.65-1.16,2.27-1.7.62-.53,1.03-1,1.22-1.41.2-.4.21-.74.04-1-.06-.09-.14-.17-.25-.23-.11-.07-.24-.12-.4-.16l-3.28,1.94c-.38.22-.6.41-.69.51-.09.09-.17.2-.21.32-.05.12-.04.23.02.32l.06.1-.25.17-1.05-1.7.25-.17c.11.12.22.19.33.2.11,0,.25-.03.44-.11.1-.04.32-.18.66-.4l3.15-2.1c.42.07.78.19,1.08.36.3.17.54.4.72.69.23.36.3.74.21,1.14-.09.4-.27.82-.55,1.27-.28.44-.63.88-1.05,1.31-.55.55-1.22,1.09-2,1.61-1.4.93-2.72,1.52-3.94,1.76-1.22.24-2.03.05-2.41-.56-.12-.19-.19-.38-.22-.58-.01-.11,0-.31.06-.61.05-.3.07-.47.05-.5-.03-.05-.11-.07-.23-.05-.12.02-.33.09-.61.23l-.07-.1"/>
      <path class="cls-8" d="m113.68,31.94l.24-.18c.13.09.29.12.48.09.25-.05.86-.27,1.83-.68l3.83-1.59,2.13-1.59c.46-.34.73-.56.83-.66.09-.1.16-.21.2-.33.04-.12.02-.23-.06-.33l-.16-.21.24-.18,1.64,2.06-.24.18-.15-.19c-.09-.11-.2-.16-.34-.15-.1,0-.23.04-.4.12-.12.06-.4.25-.84.58l-1.77,1.32-3.09,3.69c-.61.73-.95,1.18-1.03,1.35-.08.17-.07.31.02.43l-.24.18-1.4-1.76.24-.18.06.08c.08.11.18.15.29.14.11-.01.2-.05.28-.11.16-.12.49-.48,1-1.1l2.39-2.85-3.19,1.33c-.78.32-1.28.56-1.49.72-.12.09-.19.18-.24.29-.06.14-.03.3.07.48l-.24.18-.89-1.12"/>
      <path class="cls-8" d="m120.63,41.41c.18.38.78.45,1.81.22.84-.19,1.98-.61,3.41-1.27,1.7-.78,2.9-1.48,3.6-2.1.49-.43.66-.81.51-1.12-.1-.21-.31-.33-.62-.36-.4-.03-.97.06-1.71.27-.74.22-1.66.58-2.77,1.09-1.32.61-2.28,1.11-2.89,1.51-.61.4-1.01.74-1.2,1.03-.19.28-.24.52-.15.73m-.45.25c-.37-.63-.16-1.38.62-2.25.79-.86,1.93-1.64,3.41-2.32,1.27-.58,2.45-.94,3.56-1.07,1.47-.18,2.38.1,2.73.85.35.74.02,1.6-1,2.57-.81.76-1.87,1.45-3.19,2.05-1.48.68-2.82,1.04-4,1.07-1.19.03-1.9-.27-2.13-.9Z"/>
      <path class="cls-7" d="m55.58,8.99l.33-.07c.62-.41,1.42-1.05,2.12-1.31.35-.14.9-.16,1.11-.5.4-.58,0-1.53-.66-1.71-.12-.02-.17.07-.21.19.18.28-.93,1.03-1.05,1.19-.61.51-1.28,1.35-1.75,1.99-.02.04-.33.27-.26.34.11.05.27-.07.37-.11Zm-21.04,14.71c-.11-.17-.57-.89-.65-1.05.24-.61.9-1.17,1.21-1.75.26-.71-.31-.57-.77-.55-.25,0-.84.05-1.08,0-.09-.15,0-.18.13-.45.23-.39.49-.78.7-1.11.26-.54.91-1.25,1.01-1.83-.15-.26-.55-.37-.82-.41-.29-.04-.59.09-.77.31-.28.46-.57,1.19-.91,1.62-.28,0-.03-1.07-.06-1.21.05-.23.28-.46.35-.69.09-.21.27-.61.08-.81-.2-.08-.48-.06-.67.03-.27-.04-.69-.1-.96-.11-.21.07-.25.24-.25.45,0,0,.2.32.2.32.09.15.16.5.18.67,0,.31-.22.66-.41.89-.15.17-.51-.05-.69-.08-.05-.02-.31,0-.31-.09,0,0,.12-.66.12-.66.07-.81.1-.81.69-1.36.23-.27.55-.97.68-1.3.06-.39.03-.75-.31-1-.45-.08-1.44-.5-1.88-.27-.27.54-.19,1.32-.04,1.89.15.59.26,1.17-.43,1.45-.08-.1-.15-.42-.17-.54-.05-.08-.29-.48-.29-.57-.05-.07-.29-.52-.4-.56-.1-.05-1.52-.06-1.63.03-.36.15-.54.25-.28.66.15.13,1.18.42,1.5.58.21.18.8.5,1.04.46l.06.09c0,.18-.57.5-.68.59-.37.27-.82.55-1.19.82-.29.12-.69.48-.98.64-.37.68.81.68,1.22.78.31.06.52-.19.63-.44,0,0,.52-.69.52-.69.29-.25,1.07-1.42,1.47-1.27.04.05.04.68.04.75-.06.13-.27.11-.38.13-.1.03-.27.04-.28.17-.05.14-.11.35,0,.48.25.23.64.48.77.81l-.05.1c-.23.01-.52-.06-.75-.02-.1.15.04.42-.07.57-.47-.01-1.05-.17-1.52-.15-.23-.03-.59-.11-.55.24.22.41.82.67,1.13,1.01.08.19-.16.48-.27.63l.06.13c.45.01,1.16.14,1.6.24.59-.37.31-1.56.77-2.07.31-.01.49.55.63.75-.12.32-.52.68-.72.97-1.02,1.29-2.25,2.5-3.43,3.65.06.19.13.41.37.4.46-.03,1.33-.07,1.71-.36.56-.51.76-1.48,1.25-2.08.21-.37.71-1.19.97-1.53.19-.42.33-.56.61-.11.12.42-.24.84-.42,1.19-.5.92-.95,2.11-1.17,3.13-.18.6-.02.63.55.55.39-.09.79-.75,1.05-1.03.35-.46.89-1.47,1.35-1.8,0,0,.4.68.49.8.13.14.29.44.41.58.15.23.84,1.29.96,1.48.1.07.29.24.36.34.13.03.44.1.57.08.12-.02.21-.62.21-.71-.03-.67-.35-1.22-.44-1.41-.17-.38-.74-1.04-.94-1.39Zm-4.39-9.43c.2-.07.44.07.49.27,0,.15-.07.41-.17.53-.05.1-.21.21-.31.11-.07-.07-.06-.53-.07-.62-.02-.08,0-.23.05-.3Zm.92,4.32c-.08-.18-.03-.4.2-.39.16-.07.38-.27.56-.14.13.3.34.63.34.97.02.15-.08.38-.19.49-.05.06-.13.15-.22.11-.3-.24-.45-.75-.69-1.04Zm1.13,4.71c-.19.29-.61.85-.82,1.12-.08.1-.35.51-.49.54l-.03-.05c.25-.76.77-1.53,1.06-2.28.17-.08.28.17.34.27.08.12.01.29-.05.39Zm.02-2.97c.06-.43.53-.79.72-1.16.11-.19.29-.6.54-.61.07.19-.12.46-.24.6-.05.18-.2.5-.31.65-.12.37-.25.72-.72.52Zm1.3,1.3c-.07.09-.2.13-.2.13l-.02-.03c-.13-.06-.52-.58-.43-.76.21.07.62.15.74.35,0,0-.02.21-.09.29Zm62.64-8.24c-.22-.06-.56,0-.76.11-.13,0-1.03.06-1.14.02-.13-.14.53-.88.58-.99.22-.23.77-.8.97-1.03.15-.05.32-.25.38-.39.19-.44-.22-1.18-.35-1.6-.06-.14-.22-.76-.39-.82l-.32.08s-.18.25-.18.25c-.09.21-.25.52-.3.75-.64,1.18-1.54,2.58-2.46,3.56-.98-.04-2.39.01-3.36-.19-.36-.11-1-.54-1.37-.34-.12.19.13.62.2.79,0,0,.22.56.22.56.14.28.34.73.7.78.65-.07,1.54-.34,2.19-.26.05.29-.44.48-.62.59-.28.26-1.6.53-1.96.62-.54.06-1.36-.07-1.9-.12-.17,0-.59-.19-.71,0-.09.14.75.58.79.64.28.17.89.45,1.21.51,2.02.46,3.96-1.1,5.37-2.35.26-.12.69-.03.97-.08l1.57.02c.25.04.78.13,1.02.18l.27-.13c.25-.42-.2-1.03-.63-1.16Zm18.52,5.43c-.09-.28-.23-.71-.54-.82-.74-.18-1.6-.5-2.33-.72-.21,0-.8.06-.7-.3,1.18-.09,1.61.31,1.41-1.22-.03-.41-.29-.86-.73-.53-.11.21-.66.33-.86.39-.11,0-.3-.01-.37-.12-.1-.16-.37-.56-.48-.73-.13-.21-.28-.3-.51-.16-.21.18,0,.59.01.82.17.78-.5.45-.95.47-.42-.16-.34-.21-.23-.6.2-.84.27-1.81-.13-2.6-.17-.22-.46-.27-.5.07,0,.33-.02,1.02-.05,1.35-.15.4-.29,1.21-.62,1.48l-.09-.07c.05-.52.17-1.59-.4-1.84-.33.08-.27.82-.33,1.06-.11.27-.66,1.67-.78,1.98-.4,1.18.5.8.84.1.34-.12.26.3.26.49.01.28.02.76.38.8.29,0,.6-.21.73-.47.03-.29.25-.72.36-.98.07-.43.27-.28.59-.29.23.09.95.11,1,.42-.05.13-.4.15-.5.16,0,0-.55.21-.55.21-.22.15-.43.43-.58.68-.05.08-.06.18-.04.27.04.13.08.3.08.3.34.64.6.92,1.36.92.88.04,1.39-.73,1.52-1.53.25-.07.6.14.82.25,1.34.41,1.43.98-.02,1.25-.78.16-1.73.56-2.52.44-.27-.12-.87-.32-1.16-.4-.61-.21-1.44-.54-2.05-.75l-.63-.24c-.16-.06-.46-.23-.49.06.14.3.31.88.69.92.33.18.9.25,1.26.3.18.07.57.18.76.22.22.09.82.1.71.46-.54.33-1.26.57-1.89.58-1.39-.35-2.94-.84-4.33-1.23-.23-.08-.83-.28-1.05-.36-.31-.16-.72-.41-1.07-.46-.21.21.07.9.08,1.16.13.36.22,1.04.58,1.26.97.12,2.13-.03,3.1.04.33.06,1.32.04,1.57.3.03.18-.23.34-.32.48-.75.79-1.74,1.8-2.61,2.47-.72.16-1.35-.76-1.81-1.17-.06-.06-.15,0-.21.02,0,.36.4.86.51,1.2.1.35.4,1.01.58,1.32l.14.22c.05.08.13.13.21.16.11.04.23.08.23.08.52.06.99-.42,1.31-.77.14-.2,1.74-2.07,1.74-2.07.32-.33,1.22-1.26,1.58-1.52.11,0,.33.05.43.1.19.13.24.27.15.48-.12.16-.83.54-.46.72.41.03.97.23,1.33.44.27.03.83.18.88-.22-.04-.58-.2-1.32-.69-1.68-.11-.08-.38-.18-.29-.36.58-.09,1.37.12,1.95.18.12.01.33,0,.41-.1.21-.23.07-.73.06-1.01-.02-.07-.1-.29-.06-.36.71-.11,1.57.02,2.25.23.55.17,1.25.59,1.72.05.45-.38.52-1.14.3-1.66Zm-4.68-.63c-.15.19-.31.48-.59.4-.08-.1-.22-.31-.27-.43.02-.2.1-.39.3-.45.11,0,.43-.09.51.03.19.06.08.32.04.45Zm-15.28,1.22c-.48-.47-.92-1.13-1.09-1.78-.11-.39-.27-1.21-.25-1.62-.02-.29.06-.81-.31-.89-.26.03-.33.15-.33.4-.04.2-.12.6-.15.8-.11.92-.24,1.94-.34,2.86.29,1.02.63.58,1.41.86.62,0,1.26.34,1.86.25.14-.41-.55-.64-.79-.87Zm-49.08-4.46c.04-.1.09-.16.2-.15.08-.02.29-.12.36-.16.28-.3.68-.76.99-1.03.15-.08.27-.56.33-.7,0,0-.02-.14-.06-.19l-.2-.09c-.6-.13-.82-.1-.72-.81.17-.63.55-1.31,1.01-1.77.48-.64.24-1.38-.64-1.24-.16.05-.64.3-.8.37-.22.16-.57.66-.72.88-.19.26-.54.81-.7,1.09-.09.12-.19.49-.39.29-.16-.33-.28-.73-.38-1.09-.12-.43.02-1.14-.55-1.23-.21-.04-.66-.12-.88-.12-.13-.01-.42-.07-.52.07-.11.26-.44.85-.38,1.14.25.38.74.68,1.02,1.03.27.56.76,1.31.98,1.89-.03.03-.81,1.97-.91,1.86-.33-.19-.65-.55-.91-.87-.1-.13-.23-.24-.36-.34-.11-.09-.23-.19-.28-.28-.46-.03-.38.38-.39.69,0,.26.04.79.1,1.04.07.54.01,1.28.43,1.7.49.18,1.38.58,1.81.13.18-.8.41-1.77.74-2.52.23-1.09,1.58,3.43,1.73,3.57.22.83.36,1.87.94,2.54.18.34.71.61,1.05.76.26.06.41-.15.53-.35.07-.64-.37-1.61-.71-2.14-.27-.6-1.78-3.74-1.72-3.96Zm-.53-1.19c-.06-.29-.26-.66-.38-.93-.05-.39.35-.9.54-1.21.05-.08.19-.33.31-.34.21.23.18.8.24,1.09.07.33.17.77-.04,1.07-.17.2-.43.78-.67.32Zm19.07-4.93c-.02-.15-.06-.31-.18-.32-.14.04-.05.48-.06.58-.09.4-.22.93-.56,1.19-.08-.02-.1-.17-.11-.23-.05-.52,0-1.23,0-1.77,0-.05,0-.1.01-.16.25-1.46.11-2.45-1.62-2.59-.45.38-.16,1.06,0,1.52.1.25.2.85.22,1.13.17.92.18,2.18.34,3.11,0,.09.02.38-.07.44-.12.09-.62.56-.75.61l-.06-.03c-.04-.16.14-.38.18-.53l-.02-.38c-.05-.52-.75-.84-.71-1.37.14-.5.36-1.13.17-1.64-.2-.41-1.81-1.67-1.73-.59.15.6.72,1.15,1.12,1.58.17.35-.08.82-.07,1.18.14.31.26.75.38,1.07.15.28.17.69.1.99-.09.27-.38.75-.32,1.04.22.35.7.22,1,.05l.51-.49c.05-.05.3-.43.39-.4.17,1.43.35,3.42.51,4.86.06.35-.03.71.47.65.22-.08.45-.46.48-.67.19-1.2-.12-3.14-.13-3.51-.07-.57-.11-1.43-.19-2-.04-.46.06-.61.4-.91.16-.24,1.05-1.02.96-1.35-.09-.2-.27-.43-.44-.63-.11-.13-.19-.29-.21-.46Zm-4.92,2.72c-.09.1-.49.54-.55.65-.25.02-.12-.33-.12-.46l.08-.66c.06-.44.33-1.01.52-1.4,0-.24-.26-.47-.43-.61-.15-.26-.59-.46-.88-.47-.33.14-.35.59-.41.9-.75,1.32-2.36,2.1-3.43,3.12.19.24.54.39.83.43.08,0,.21,0,.29-.01.92-.08,1.64-1.73,2.25-2.04.12,0,.12.85.12.85,0,0,0,.51,0,.61,0,.1.09.97.09,1.02,0,.05-.16.29-.22.33-.06.04-.16,0-.16,0,0-.06.07-.1.08-.2,0-.09-.15-.72-.45-.5-.24.59-.93,1.14-.83,1.82.16.28.14.74.44.91.25,0,.52-.47.68-.62.06-.07.4-.54.5-.53.13.14.11.52.15.7.1.15.38.19.52.28.2,0,.44-.1.56-.26.11-.15-.05-.34-.08-.5.02-.32-.08-.71-.12-1.02-.07-.52.47-1.1.69-1.53.16-.29.48-.93.6-1.24.05-.11,0-.31-.07-.4-.25.12-.46.65-.64.86Zm22.5,3.49c-1.64.09-2.41-.62-3.44-1.76.09-.37.68-.96.89-1.29,0,0,.26-.21.26-.21.03-.05.1-.34.17-.37-.08-.38-.51-.64-.84-.79-.13-.04-.3.03-.42,0,0-.41.35-1.01.58-1.33.27-.36.55-1.03.98-1.21.26-.07.63-.3.87-.42.1-.08.15-.18.13-.31l-.26-.43c-.07-.02-.2-.08-.25-.13-.01-.51-.62-.87-.99-1.14l-.22-.08-.22.09c-.07.17-.1.58-.11.76l-.2.52-.23.57-.36.27c-.88.36-1.82.99-2.73,1.3-.07.37.72.56,1,.62.43-.06.98-.6,1.37-.74-.02.4-.44,1.04-.57,1.43-.06.1-.29.41-.26.54,0,.1.04.28.11.36.05.1.16.27.29.28.18-.04.41-.22.57-.28l.13.07c.07.3-.48.86-.62,1.1-.17-.08-.37-.44-.56-.49-.21-.12-.53-.43-.79-.28-.1.28.22.71.33.95.07.16.22.48.3.63.13.16-.18.45-.24.59-.27.26-.99,1.03-1.34,1.18-.32.15-1.06.58-1.26.07.28-2.16.65-4.64,1.51-6.64.23-.18.71-.5.96-.65l.34-.22.04-.23c-.12-.12-.25-.69-.5-.38l-.08-.06c.35-.31-.69-1.21-.94-1.39-.12-.02-.35.14-.44.2l-.09.41c-.07.33-.25,1-.37,1.3l-1.16.59c-.16-.03-.43.02-.56.12-.04.09.2.48.23.56.1.13.35.52.55.52,0,0,.17-.02.17-.02.07-.08.19-.23.31-.17-.1.21-.24.77-.28,1-.19.54-.95.95-1.34,1.33-.36.34-1.11,1.01-1.48,1.34-.11.11-.36.26-.51.25-.78.39-.66.4-.16,1.03.11.07.34.17.49.21.03.01.07,0,.1,0,.35-.15.81-.51,1.12-.79.07-.06.12-.13.17-.21.11-.22.32-.51.46-.65.23-.28.57-.8.83-1.05l.09.04c-.06.19-.26.99-.31,1.2-.11.29-.15,2.32-.57,2.4-.15,0-.44-.04-.59-.06-.3-.11-.54-.26-.84-.03v.13c.51.36,1.12.68,1.58,1.11,0,0,.19.19.19.19.04.13.09.19.23.21.38-.09.76-.47.81-.86l.08-.02c.39.66.49.57,1.14.3.77-.43,1.77-1.13,2.37-1.76.3.25.61.85.83,1.18.1.19.24.56.5.58.64.12,1.44-.15,2.06-.33.34-.16,1.2-.26,1.4-.6-.08-.17-.22-.14-.37-.14Z"/>
    </g>
    <path class="cls-10" d="m436.47,86.81l2.43-4.38h-1.02l-1.87,3.53-1.83-3.53h-1.02l2.43,4.38v2.97h.88v-2.97m-7.44-.12h1.97c.02.88-.2,1.54-.67,1.97-.38.32-.82.48-1.34.48-1.43,0-2.15-1.02-2.15-3.05.07-1.9.77-2.9,2.12-3.01,1.06.03,1.7.55,1.94,1.57h.85c-.23-1.5-1.15-2.3-2.75-2.41-1.88.11-2.9,1.38-3.07,3.81-.02,1.31.32,2.34,1.02,3.09.47.51,1.14.76,2.01.76.92-.03,1.62-.37,2.11-1.04l.21.92h.56v-3.93h-2.82v.84Zm-4.38-.56c-.02-1.1-.31-2.05-.85-2.85-.56-.7-1.33-1.04-2.29-1.04-.87,0-1.57.27-2.11.8-.68.78-1.03,1.81-1.06,3.09.02,1.02.27,1.9.74,2.65.56.75,1.37,1.12,2.43,1.12.99,0,1.76-.35,2.33-1.04.52-.72.79-1.63.81-2.73Zm-.88,0c-.09,1.87-.85,2.86-2.26,2.97-1.43-.08-2.18-1.07-2.26-2.97.07-1.95.82-2.97,2.26-3.05,1.41.11,2.16,1.12,2.26,3.05Zm-9.74-3.69h-.88v7.35h4.16v-.88h-3.28v-6.46Zm-2.4,3.69c-.02-1.1-.3-2.05-.85-2.85-.56-.7-1.33-1.04-2.29-1.04-.87,0-1.57.27-2.12.8-.68.78-1.03,1.81-1.06,3.09.02,1.02.27,1.9.74,2.65.56.75,1.38,1.12,2.43,1.12.99,0,1.76-.35,2.33-1.04.52-.72.79-1.63.81-2.73Zm-.88,0c-.09,1.87-.85,2.86-2.26,2.97-1.43-.08-2.19-1.07-2.26-2.97.07-1.95.82-2.97,2.26-3.05,1.41.11,2.16,1.12,2.26,3.05Zm-7.8,2.25h0l-3.24-5.94h-1.06v7.35h.85v-5.94h.03l3.28,5.94h.99v-7.35h-.85v5.94Zm-7.02-2.93h-3.39v-3.01h-.88v7.35h.88v-3.41h3.39v3.41h.88v-7.35h-.88v3.01Zm-5.86-.84c-.24-1.53-1.12-2.32-2.64-2.37-.89,0-1.61.32-2.15.96-.59.72-.88,1.69-.88,2.89,0,1.12.23,2.05.71,2.77.54.67,1.27,1.02,2.18,1.04,1.64-.05,2.6-1,2.85-2.85h-.84c-.24,1.34-.85,2.02-1.83,2.05-1.43,0-2.15-1.02-2.15-3.05.05-1.9.75-2.89,2.12-2.97.99.03,1.59.53,1.8,1.53h.85Zm-7.02,4.29h-3.88v-2.45h3.52v-.88h-3.52v-2.29h3.81v-.84h-4.69v7.35h4.76v-.88Zm-11.36-5.62h2.19v6.5h.85v-6.5h2.19v-.84h-5.22v.84Zm-7.54-.04h1.62c1.29.05,1.95,1,1.97,2.85-.05,1.82-.68,2.77-1.9,2.85h-1.69v-5.7Zm-.88,6.54h2.61c1.01,0,1.74-.44,2.19-1.32.38-.64.57-1.46.57-2.45s-.21-1.83-.63-2.45c-.49-.75-1.19-1.12-2.08-1.12h-2.64v7.35Zm-2.72-1.4h0l-3.24-5.94h-1.06v7.35h.85v-5.94h.03l3.28,5.94h.99v-7.35h-.85v5.94Zm-9.49-1.61l1.02-3.25h.04l.95,3.25h-2.01Zm2.33.88l.63,2.13h.95l-2.33-7.35h-.99l-2.43,7.35h.88l.67-2.13h2.61Zm-7.26,1.24h-3.88v-2.45h3.52v-.88h-3.52v-2.29h3.81v-.84h-4.69v7.35h4.76v-.88Zm-6.46-4.29c-.24-1.53-1.12-2.32-2.64-2.37-.89,0-1.61.32-2.15.96-.59.72-.88,1.69-.88,2.89,0,1.12.23,2.05.71,2.77.54.67,1.27,1.02,2.19,1.04,1.64-.05,2.6-1,2.85-2.85h-.85c-.24,1.34-.85,2.02-1.83,2.05-1.43,0-2.15-1.02-2.15-3.05.05-1.9.75-2.89,2.11-2.97.99.03,1.59.53,1.8,1.53h.85Zm-8.08,3.77h0l-3.24-5.94h-1.06v7.35h.85v-5.94h.03l3.28,5.94h.99v-7.35h-.84v5.94Zm-5.93.52h-3.88v-2.45h3.52v-.88h-3.52v-2.29h3.81v-.84h-4.69v7.35h4.76v-.88Zm-6.85-6.46h-.88v7.35h.88v-7.35Zm-2.62,2.17c-.23-1.53-1.12-2.32-2.64-2.37-.89,0-1.61.32-2.15.96-.59.72-.88,1.69-.88,2.89,0,1.12.23,2.05.71,2.77.54.67,1.27,1.02,2.19,1.04,1.64-.05,2.6-1,2.85-2.85h-.84c-.24,1.34-.85,2.02-1.83,2.05-1.43,0-2.15-1.02-2.15-3.05.05-1.9.75-2.89,2.11-2.97.99.03,1.59.53,1.8,1.53h.85Zm-7.16-.04c-.05-1.55-.88-2.33-2.5-2.33-.64,0-1.13.16-1.48.48-.5.4-.75.99-.78,1.77,0,.88.46,1.47,1.38,1.77l1.34.32c.56.13.94.29,1.13.48.19.19.28.47.28.84-.02.8-.6,1.22-1.73,1.24-1.15-.03-1.74-.6-1.76-1.73h-.85c-.02.83.2,1.45.67,1.85.38.43,1.02.64,1.94.64.7,0,1.32-.16,1.83-.48.47-.35.7-.89.7-1.65,0-1.07-.48-1.74-1.44-2.01l-1.83-.48c-.52-.08-.77-.39-.77-.92,0-.83.48-1.26,1.45-1.28,1.03.05,1.57.55,1.62,1.48h.81Zm-11.7,1.89h3.17v-.88h-3.17v-2.29h3.6v-.84h-4.48v7.35h.88v-3.33Zm-2.51-.32c-.02-1.1-.3-2.05-.85-2.85-.56-.7-1.33-1.04-2.29-1.04-.87,0-1.57.27-2.11.8-.68.78-1.04,1.81-1.06,3.09.02,1.02.27,1.9.74,2.65.56.75,1.37,1.12,2.43,1.12.99,0,1.76-.35,2.33-1.04.52-.72.79-1.63.81-2.73Zm-.88,0c-.09,1.87-.85,2.86-2.26,2.97-1.43-.08-2.19-1.07-2.26-2.97.07-1.95.82-2.97,2.26-3.05,1.41.11,2.16,1.12,2.26,3.05Zm-10.82.68l2.43-4.38h-1.02l-1.87,3.53-1.83-3.53h-1.02l2.43,4.38v2.97h.88v-2.97Zm-9.28-3.53h2.19v6.5h.85v-6.5h2.19v-.84h-5.22v.84Zm-1.45-.84h-.88v7.35h.88v-7.35Zm-2.79,2.13c-.05-1.55-.88-2.33-2.5-2.33-.63,0-1.13.16-1.48.48-.5.4-.75.99-.78,1.77,0,.88.46,1.47,1.38,1.77l1.34.32c.56.13.94.29,1.13.48.19.19.28.47.28.84-.02.8-.6,1.22-1.73,1.24-1.15-.03-1.74-.6-1.76-1.73h-.85c-.02.83.2,1.45.67,1.85.38.43,1.02.64,1.94.64.7,0,1.32-.16,1.83-.48.47-.35.7-.89.7-1.65,0-1.07-.48-1.74-1.44-2.01l-1.83-.48c-.52-.08-.77-.39-.77-.92,0-.83.48-1.26,1.44-1.28,1.03.05,1.57.55,1.62,1.48h.81Zm-10.73-1.32h2.19c.77,0,1.16.41,1.16,1.24s-.44,1.28-1.3,1.28h-2.04v-2.53Zm0,3.37h2.12c.8,0,1.19.44,1.16,1.33.02.88.07,1.5.14,1.85h1.09v-.16c-.24-.11-.34-.35-.32-.72l-.07-1.32c0-.78-.26-1.24-.78-1.4.61-.38.92-.96.92-1.77s-.22-1.3-.67-1.57c-.33-.27-.82-.4-1.48-.4h-3v7.35h.88v-3.17Zm-2.62,2.29h-3.88v-2.45h3.52v-.88h-3.52v-2.29h3.81v-.84h-4.69v7.35h4.76v-.88Zm-9.03-.2h0l-1.83-6.26h-.99l2.36,7.35h.95l2.36-7.35h-.99l-1.87,6.26Zm-4.31-6.26h-.88v7.35h.88v-7.35Zm-3.71,5.94h0l-3.24-5.94h-1.06v7.35h.85v-5.94h.03l3.28,5.94h.99v-7.35h-.84v5.94Zm-7.02-5.94v4.62c0,1.34-.58,2.02-1.73,2.05-1.06-.03-1.6-.71-1.62-2.05v-4.62h-.88v4.9c0,.86.25,1.53.74,2.01.45.37,1.02.56,1.73.56.85,0,1.48-.21,1.9-.64.47-.53.72-1.23.74-2.09v-4.74h-.88Zm-10.93,4.25h1.97c.02.88-.2,1.54-.67,1.97-.37.32-.82.48-1.34.48-1.43,0-2.15-1.02-2.15-3.05.07-1.9.77-2.9,2.11-3.01,1.06.03,1.7.55,1.94,1.57h.85c-.23-1.5-1.15-2.3-2.75-2.41-1.88.11-2.9,1.38-3.07,3.81-.02,1.31.32,2.34,1.02,3.09.47.51,1.14.76,2.01.76.92-.03,1.62-.37,2.11-1.04l.21.92h.57v-3.93h-2.82v.84Zm-5.54,1.69h0l-3.24-5.94h-1.06v7.35h.85v-5.94h.03l3.28,5.94h.99v-7.35h-.85v5.94Zm-5.82-2.25c-.02-1.1-.31-2.05-.85-2.85-.56-.7-1.33-1.04-2.29-1.04-.87,0-1.57.27-2.12.8-.68.78-1.03,1.81-1.06,3.09.02,1.02.27,1.9.74,2.65.56.75,1.38,1.12,2.43,1.12.99,0,1.76-.35,2.33-1.04.52-.72.79-1.63.81-2.73Zm-.88,0c-.09,1.87-.85,2.86-2.26,2.97-1.43-.08-2.18-1.07-2.26-2.97.07-1.95.82-2.97,2.26-3.05,1.41.11,2.16,1.12,2.26,3.05Zm-7.83-.68h-3.39v-3.01h-.88v7.35h.88v-3.41h3.39v3.41h.88v-7.35h-.88v3.01Zm-5.61,3.45h-3.99l3.99-5.62v-.84h-4.8v.84h3.67l-3.95,5.7v.8h5.08v-.88Zm-9.81-2.13l1.02-3.25h.04l.95,3.25h-2.01Zm2.33.88l.63,2.13h.95l-2.33-7.35h-.99l-2.43,7.35h.88l.67-2.13h2.61Zm-6.35-5.22v4.62c0,1.34-.58,2.02-1.73,2.05-1.06-.03-1.6-.71-1.62-2.05v-4.62h-.88v4.9c0,.86.25,1.53.74,2.01.45.37,1.02.56,1.73.56.85,0,1.48-.21,1.9-.64.47-.53.72-1.23.74-2.09v-4.74h-.88Zm-6.99,3.01h-3.39v-3.01h-.88v7.35h.88v-3.41h3.39v3.41h.88v-7.35h-.88v3.01Z"/>
    <path class="cls-10" d="m208.24,38.68c-.73-.65-1.78-.86-2.71-.58-1.64.75-3.78,2.21-5.51,2.75-.78-.49,1.92-3.01,2.07-3.45.57-.54,1.64-.75,2.25-1.25.65-.41,1.87-1.19,1.72-2.1-.4-.58-1.2-1.05-1.9-1.14-.66-.6-1.7-1.57-2.43-2.09-.72-.19-1.14.19-1.51.77,0,0-.07,1.25-.07,1.25-.01.58-.49,1.68-.76,2.19-.58.86-1.84,1.39-2.79,1.7-.73.17-1.33-1.08-1.76-1.5-.12-.14-.85-.58-.69-.84,0,0,1.54-1.59,1.54-1.59,1.7-2.09,1.79-2.05,4.41-2.46,1.13-.32,3.31-1.64,4.29-2.31.87-.96,1.46-2,1.02-3.33-1.09-1.07-3.03-4.04-4.67-4.25-1.75.97-3,3.28-3.61,5.12-.68,1.92-1.44,3.71-3.87,3.18-.03-.41.36-1.42.53-1.79.02-.31.11-1.87.26-2.11-.01-.28.17-1.96-.06-2.28-.18-.33-4.06-2.97-4.55-2.95-1.29-.25-1.95-.32-2,1.28.15.64,2.46,3.34,3.05,4.39.26.89,1.28,2.88,2,3.19v.35c-.37.48-2.49.31-2.98.34-1.52.04-3.29-.01-4.8.05-1.03-.23-2.81.04-3.88-.07-2.29,1.17.97,3.38,1.9,4.41.72.74,1.77.45,2.55-.03,0,0,2.72-.92,2.72-.92,1.26-.13,5.6-1.93,6.39-.75.02.2-1.17,1.94-1.28,2.14-.4.24-.95-.19-1.3-.36-.34-.09-.82-.38-1.1-.04-.4.3-.95.76-.88,1.33.26,1.09.87,2.51.6,3.66l-.32.18c-.66-.4-1.3-1.13-2.03-1.43-.54.22-.67,1.24-1.25,1.42-1.26-.9-2.57-2.4-3.91-3.25-.57-.49-1.43-1.39-1.96-.35-.15,1.53,1,3.38,1.24,4.87-.15.68-1.34,1.01-1.9,1.23l-.07.46c1.21.87,2.93,2.54,3.97,3.62,2.29.08,3.75-3.71,5.96-4.27.87.54.32,2.4.35,3.22-.93.66-2.71.91-3.79,1.32-5.22,1.66-10.83,2.71-16.21,3.66-.18.64-.41,1.36.27,1.77,1.34.78,3.77,2.29,5.39,2.19,2.49-.37,4.85-2.66,7.31-3.4,1.28-.63,4.16-1.96,5.5-2.41,1.31-.79,1.94-.95,1.87.84-.45,1.38-2.24,1.87-3.37,2.51-3.08,1.59-6.55,4.03-9.04,6.45-1.63,1.32-1.22,1.69.48,2.54,1.24.49,3.58-.6,4.78-.88,1.81-.61,5.18-2.38,7.07-2.45,0,0-.16,2.61-.16,3.11.1.63-.02,1.73.05,2.36,0,.91-.1,5.11-.1,5.86.03.45.22,1.17.36,1.59.31.32,1.03,1.08,1.42,1.28.38.17,1.73-1.31,1.88-1.56,1.18-1.89,1.3-4,1.42-4.68.24-1.37-.1-4.23.02-5.57.02-.65.1-3.5.15-4.1,1.78-1.22,4.66-1.55,6.58-2.55,2.03-1.46.21-2.15-1.09-2.94-.68-.46-2.41-1.44-2.97-2,.02-.58.32-.48,1.2-.99,1.35-.63,2.82-1.24,4-1.76,1.73-1,4.81-1.74,6.18-3.14.07-.98-.82-2.03-1.49-2.64Zm-7.83-13.29c.11-.26.43-.63.71-.72.68.19,1.07,1.01.85,1.67-.27.43-.95,1.02-1.45,1.15-.32.16-.97.19-1.06-.26-.06-.32.81-1.57.96-1.83Zm-9.54,26.93c0,.46-.5.81-.87.99-1.05.45-3.25,1.21-4.35,1.54-.42.13-1.91.75-2.36.56v-.19c2.1-1.64,4.96-2.78,7.15-4.29.6.1.45.97.42,1.38Zm4.76-14.06c.1-.65.66-1.15,1.28-.69.57.12,1.56-.04,1.8.65-.19,1.06-.24,2.37-.86,3.3-.24.45-.94.89-1.43,1-.25.07-.65.17-.82-.11-.38-1.21.17-2.9.03-4.15Zm1.1,12.93c-.34.11-.8,0-.8,0v-.11c-.26-.42-.36-2.55.2-2.88.45.6,1.42,1.58,1.39,2.35,0,0-.44.54-.78.65Zm3.84-7.33c-.45.4-1.49,1-2.05,1.22-1.03.8-2.01,1.52-2.95.1.95-1.07,2.92-1.21,4.14-1.84.66-.34,1.9-1.12,2.64-.68-.17.66-1.19,1.03-1.77,1.19Zm60.34-11.44l1.15-.13c2.29-1.17,5.28-3.07,7.79-3.68,1.24-.35,3.17-.21,4.03-1.3,1.59-1.85.6-5.27-1.61-6.13-.39-.11-.61.18-.8.56.52,1.04-3.58,3.19-4.07,3.71-2.29,1.51-4.93,4.15-6.79,6.16-.1.13-1.23.79-1.02,1.07.36.22.96-.12,1.31-.24Zm11.71,10.28c-.35.32-1.88,1.66-2.12,2.03-.88-.01-.31-1.17-.23-1.62,0,0,.52-2.26.52-2.26.37-1.48,1.53-3.34,2.31-4.61.1-.82-.72-1.71-1.25-2.26-.42-.96-1.84-1.79-2.85-1.95-1.17.36-1.44,1.91-1.77,2.93-3.09,4.26-8.92,6.3-12.98,9.4.56.89,1.7,1.55,2.69,1.79.28.06.71.06.99.06,3.2.08,6.3-5.32,8.51-6.17.42.06.09,2.97.09,2.97,0,0-.12,1.29-.18,1.97,0,.09-.01.16-.01.24,0,.61-.08,3.26-.11,3.43-.04.18-.65.95-.88,1.05-.23.1-.56-.09-.56-.09,0-.22.3-.32.33-.64s-.24-2.55-1.34-1.88c-1.06,1.94-3.62,3.56-3.57,5.94.45,1.02.19,2.59,1.16,3.3.86.09,1.96-1.42,2.56-1.88.23-.21,1.57-1.71,1.93-1.62.41.55.18,1.82.26,2.47.27.55,1.23.8,1.69,1.16.7.06,1.56-.16,2.03-.7.45-.46-.05-1.2-.07-1.74.19-1.1,0-2.46-.03-3.57-.05-1.81,2.04-3.6,2.96-5,.67-.94,2.01-3.02,2.53-4.05.2-.38.1-1.06-.1-1.42-.89.31-1.83,2.04-2.52,2.7Zm112.35,13.67c-2.2-.5-4.65-1.59-6.31-3.15-1.02-.92-2.91-2.99-3.6-4.19-.58-.79-1.27-2.42-2.49-2-.69.54-.68,1.02-.24,1.74.23.65.72,1.93.99,2.56,1.31,2.84,2.79,5.99,4.11,8.8,2.63,2.4,2.84.52,5.58-.06,1.78-1.09,4.2-1.28,5.76-2.61-.34-1.44-2.72-.83-3.81-1.1Zm-6.5-15.47c.77-.33,2.46-1.02,3.24-1.3,0,0,.53-.85.53-.85-.03-1.65-2.4-2.59-3.88-2.2-.75.21-1.6,1.02-1.98,1.67-.37.26-2.83,2.02-3.22,2.08-.63-.16-.05-3.47-.09-3.86.22-1.04.79-3.65.94-4.67.33-.42.47-1.29.39-1.8-.25-1.61-2.73-2.98-3.84-3.96-.43-.31-1.98-1.78-2.57-1.64l-.77.79s-.07,1.02-.07,1.02c.1.76.2,1.94.48,2.67.27,4.51.18,10.14-.7,14.59-2.88,1.64-6.82,4.3-9.95,5.42-1.23.34-3.81.24-4.54,1.45,0,.77,1.48,1.56,2,1.91,0,0,1.62,1.23,1.62,1.23.9.56,2.29,1.49,3.37.98,1.75-1.37,3.79-3.73,5.81-4.64.66.75-.41,2.15-.73,2.81-.32,1.25-3.64,4.36-4.52,5.28-1.44,1.11-4.03,2.22-5.65,3.04-.49.29-2.03.53-2.02,1.25,0,.55,3.18.33,3.39.43,1.12-.01,3.34-.28,4.38-.7,6.61-2.27,9.38-10.19,11.19-16.28.53-.79,1.92-1.33,2.63-1.97l4.53-2.75Zm-133.42-12.08c-.56-.06-2.33.08-2.92.08-.87.22-2.61,1.26-3.36,1.76-.91.56-2.7,1.78-3.56,2.41-.43.25-1.22,1.23-1.56.38-.07-1.21.08-2.6.23-3.82.19-1.46,1.53-3.47-.09-4.48-.59-.41-1.86-1.22-2.53-1.5-.38-.2-1.19-.77-1.67-.47-.68.66-2.46,2.02-2.64,2.97.27,1.47,1.36,3.04,1.77,4.48.1,2.07.63,5,.54,7.05-.14.04-5.03,4.97-5.2,4.5-.76-1-1.27-2.52-1.66-3.85-.15-.53-.38-1.02-.65-1.5-.24-.41-.45-.88-.48-1.21-1.35-.69-1.65.65-2.09,1.61-.33.81-.88,2.46-1.03,3.32-.48,1.74-1.63,3.94-.89,5.74,1.27,1.19,3.48,3.56,5.37,2.73,1.59-2.2,3.55-4.86,5.54-6.73,1.99-2.85.59,10.66.63,12.86,0,.3-.01.59-.06.88-.42,2.68-1.16,5.79-.32,8.38.11,1.27,1.38,2.79,2.24,3.69.72.54,1.45.06,2.06-.39,1.05-1.88.95-5.4.59-7.46-.06-2.19-.59-13.75-.11-14.32.25-.25.48-.38.82-.2.28.06,1.04,0,1.32-.02,1.24-.55,3.06-1.46,4.36-1.87.55-.04,1.56-1.36,1.91-1.72,0,0,.13-.46.07-.64l-.49-.54c-1.66-1.17-2.37-1.36-1.17-3.4,1.32-1.71,3.38-3.3,5.4-4.09,2.31-1.33,2.53-3.9-.35-4.61Zm-7.98,9.47c-.21,1.09-.48,2.59-1.52,3.21-.78.38-2.34,1.83-2.45.1.21-.97.05-2.34.04-3.32.36-1.24,2.23-2.29,3.22-3,.28-.19,1.01-.75,1.38-.64.34.97-.49,2.67-.67,3.65Zm195.65-12.47c.15-2-1.52-3.95-3.29-4.68-.89-.46-2.25-1.14-3.25-.64-2.18,1.36-5,2.68-7.27,3.89-.5.5-1.75,2.07-2.4.98,2.59-3.05,4.56-3.15.4-6.3-1.07-.9-2.76-1.34-3,.51.24.76-.76,2.36-1.1,2.98-.25.26-.75.7-1.15.6-.63-.14-2.24-.44-2.89-.57-.81-.17-1.38-.04-1.6.83-.07.94,1.43,1.4,2.01,1.93,2.29,1.45-.09,2.27-1.13,3.42-1.4.64-1.33.32-2.01-.87-1.55-2.46-3.71-4.94-6.56-5.85-.96-.11-1.74.46-1.03,1.37.8.78,2.41,2.48,3.15,3.33.62,1.32,2.22,3.58,2.09,4.99l-.38.06c-1.12-1.35-3.41-4.18-5.38-3.42-.57.98,1.32,2.6,1.75,3.32.39.92,2.45,5.55,2.91,6.57,1.89,3.76,3.11.7,2.23-1.8.5-1.1,1.33.07,1.8.53.69.63,1.89,1.76,2.84.99.7-.68.92-1.97.61-2.87-.62-.78-1.14-2.29-1.51-3.21-.87-1.17-.05-1.32.69-2.1.77-.33,2.52-2.03,3.39-1.41.2.42-.58,1.31-.8,1.6,0,0-.8,1.81-.8,1.81-.16.89.01,2.05.25,3,.08.31.27.57.55.72.39.21.92.5.92.5,2.35.69,3.66.74,5.45-1.1,2.19-2.04,1.54-5.1-.09-7.29.42-.75,1.75-1.12,2.54-1.39,4.18-2.27,5.75-1.12,2.96,3.01-1.46,2.25-2.74,5.49-4.93,7.11-.93.38-2.83,1.35-3.72,1.84-1.97.97-4.71,2.18-6.68,3.15,0,0-2.07.97-2.07.97-.53.23-1.64.55-1.02,1.33,1.06.39,2.86,1.34,3.87.52,1.19-.37,2.74-1.58,3.72-2.33.61-.27,1.79-.94,2.35-1.31.76-.32,2.18-1.74,2.79-.6-.49,2.08-1.61,4.39-3.08,5.94-4.13,2.53-9,5.07-13.24,7.49-.74.36-2.64,1.32-3.35,1.67-1.12.39-2.69.77-3.64,1.48.02,1.01,2.34,1.97,2.97,2.56,1.18.54,3.03,1.94,4.4,1.6,2.59-2.04,4.97-5.22,7.47-7.37.94-.65,3.23-3.1,4.46-3.06.51.37.28,1.36.4,1.9.12,3.68.22,8.47-.25,12.15-1.32,2.1-5.02,1.45-7.12,1.59-.29,0-.36.33-.45.55.86.85,3.03,1.09,4.11,1.62,1.08.59,3.37,1.43,4.56,1.74l.87.17c.31.06.62.02.9-.12.34-.17.75-.38.75-.38,1.39-1.11,1.34-3.37,1.25-5-.14-.8-.86-9.1-.86-9.1-.03-1.56-.14-5.93.08-7.42.28-.26.91-.68,1.27-.81.75-.15,1.24.06,1.52.79.11.66-.67,3.26.65,2.82,1.05-.93,2.85-1.8,4.2-2.16.72-.59,2.4-1.57,1.56-2.64-1.49-1.26-3.66-2.67-5.68-2.33-.44.08-1.34.49-1.54-.15,1.16-1.6,3.55-3.02,5.05-4.28.31-.26.8-.79.73-1.24-.06-1.04-1.59-1.89-2.28-2.54-.22-.11-.92-.45-1.01-.7,1.43-1.96,3.77-3.73,5.9-4.88,1.71-.91,4.41-1.61,4.21-4.03Zm-16.35,7.5c-.43-.03-1.27-.21-1.67-.37-.44-.52-.71-1.16-.36-1.8.24-.28.81-1.26,1.28-1.18.61-.31.96.55,1.19.97.11.8.42,1.88-.44,2.39Zm-73.42,19.14c-5.49.99-8.35-1.04-12.31-4.43.15-1.28,1.86-3.53,2.45-4.71,0,0,.79-.83.79-.83.07-.19.2-1.19.41-1.31-.42-1.25-2-1.92-3.16-2.3-.44-.07-.99.23-1.42.21-.19-1.38.74-3.53,1.39-4.71.74-1.34,1.39-3.7,2.79-4.5.84-.36,1.98-1.28,2.73-1.8.31-.3.41-.67.29-1.1,0,0-1.07-1.35-1.07-1.35-.23-.04-.72-.19-.91-.32-.26-1.72-2.46-2.67-3.82-3.41l-.77-.16-.72.4c-.16.58-.1,1.98-.05,2.59,0,0-.44,1.84-.44,1.84l-.52,2.02-1.08,1.05c-2.81,1.58-5.68,4.11-8.61,5.53-.06,1.29,2.65,1.57,3.64,1.64,1.41-.37,3.04-2.43,4.28-3.07.09,1.34-1.02,3.68-1.3,5.06-.17.38-.8,1.49-.64,1.93.05.34.27.93.53,1.16.2.33.65.83,1.08.83.58-.2,1.27-.9,1.8-1.2l.48.18c.35.99-1.23,3.09-1.61,3.96-.61-.19-1.42-1.31-2.11-1.42-.76-.3-1.95-1.21-2.76-.61-.23.98,1.06,2.28,1.53,3.04.29.51.94,1.52,1.28,2,.52.48-.41,1.57-.55,2.08-.79,1-2.89,3.89-4,4.54-1.02.66-3.3,2.39-4.19.76,0-7.38.2-15.87,2.21-22.97.68-.69,2.18-1.99,2.95-2.6,0,0,1.05-.88,1.05-.88l.04-.78c-.44-.35-1.13-2.21-1.84-1.05l-.29-.18c1.04-1.2-2.85-3.77-3.77-4.25-.42-.03-1.12.63-1.4.88,0,0-.13,1.42-.13,1.42-.08,1.13-.4,3.45-.69,4.54l-3.66,2.48c-.55-.02-1.45.26-1.84.65-.1.31.86,1.53,1.01,1.78.41.41,1.41,1.59,2.08,1.5,0,0,.55-.14.55-.14.22-.3.52-.86.99-.7-.24.75-.49,2.68-.52,3.49-.4,1.89-2.77,3.6-3.92,5.05-1.07,1.3-3.29,3.87-4.41,5.13-.32.4-1.08,1.01-1.62,1.07-2.46,1.65-2.04,1.64-.11,3.54.4.19,1.21.41,1.73.5.12.02.23,0,.33-.06,1.1-.67,2.5-2.06,3.41-3.12.2-.24.36-.5.47-.79.28-.77.86-1.84,1.26-2.37.66-1.03,1.56-2.94,2.32-3.88l.31.09c-.1.67-.44,3.43-.53,4.17-.24,1.02.48,7.86-.89,8.31-.49.04-1.51.05-2,.04-1.05-.25-1.94-.63-2.85.25l.04.43c1.88.99,4.05,1.79,5.79,3.04,0,0,.73.55.73.55.18.43.37.6.85.6,1.25-.48,2.34-1.9,2.35-3.25l.26-.09c1.6,2.04,1.9,1.69,3.95.51,2.4-1.76,5.46-4.56,7.22-6.92,1.12.71,2.43,2.61,3.28,3.61.42.6,1.05,1.78,1.93,1.74,2.22.14,4.79-1.13,6.77-2.01,1.07-.68,3.94-1.38,4.44-2.6-.34-.52-.79-.38-1.3-.29Zm-52.38-17.26c-.01-.53-.1-1.09-.51-1.17-.49.08-.36,1.65-.42,1.96-.47,1.33-1.11,3.1-2.37,3.89-.27-.08-.28-.63-.29-.83.02-1.79.49-4.24.67-6.09.02-.18.05-.36.1-.53,1.42-4.92,1.32-8.38-4.59-9.52-1.69,1.15-.95,3.58-.59,5.23.26.91.35,3.01.33,3.97.24,3.24-.21,7.58-.03,10.84-.04.32-.08,1.31-.42,1.49-.43.25-2.36,1.68-2.8,1.82l-.2-.12c-.08-.55.63-1.24.81-1.74,0,0,.06-1.3.06-1.3.04-1.81-2.25-3.16-1.93-4.98.69-1.66,1.66-3.73,1.22-5.57-.51-1.49-5.6-6.45-5.73-2.7.28,2.1,2.02,4.22,3.26,5.86.45,1.27-.58,2.8-.71,4.04.35,1.12.61,2.7.91,3.83.42,1.01.32,2.43-.04,3.45-.41.9-1.59,2.43-1.51,3.45.64,1.3,2.31,1.03,3.41.56,0,0,1.93-1.48,1.93-1.48.19-.16,1.21-1.36,1.51-1.23.05,5-.1,11.88-.09,16.91.06,1.23-.38,2.41,1.36,2.41.79-.2,1.71-1.41,1.91-2.13,1.11-4.06.8-10.83.91-12.12-.03-1.98.17-4.96.12-6.96.04-1.6.43-2.09,1.72-2.97.64-.76,3.99-3.1,3.82-4.26-.24-.71-.76-1.58-1.27-2.32-.34-.49-.54-1.07-.55-1.67Z"/>
  </g>
</svg>