<?xml version="1.0" encoding="UTF-8"?>
<svg id="container" xmlns="http://www.w3.org/2000/svg" viewBox="0 0 55.73 28.61">
  <defs>
    <style>
      .cls {
        fill: #0066b1;
        fill-rule: evenodd;
      }
    </style>
  </defs>
  <g id="logo">
    <polyline class="cls" points="5.08 25.16 8.18 14.6 12.38 14.6 10.57 21.1 11.97 21.1 13.9 14.6 18.12 14.6 15.12 25.16 10.84 25.16 11.58 22.35 10.16 22.35 9.4 25.16 5.08 25.16"/>
    <polyline class="cls" points="19.61 14.64 16.44 25.25 26.44 25.25 29.37 14.64 25.26 14.64 22.49 23.94 21.04 23.94 23.7 14.64 19.61 14.64"/>
    <path class="cls" d="m0,28.52l34.67.08c2.37-1.67,4.79-5.27,4.16-7.79-.84-1.63-2.42-2.64-5.27-4.93-.99-1.11-2.04-2.16-3.12-3.18-2.98-1.91-5.93-3.91-8.84-6.02-1.7-1.3-1.01-3.1,2.52-2.66,9.7.77,18.24,2.83,25.63,6.18,1.56.85,1.07,1.25-.2,1.4l-7.94-.07c-1.86.13-3.1,1.15-4.33,3.19h4.54l-4.06,13.89h5.11l4.02-13.8h2.98c1.76-1.6,3.42-3.51,5.03-5.57,1.29-2.21,1.2-4.73-1.2-6.03C48.34.7,42.38.18,37.94,0c-7.29.2-12.8.76-15.54,2.34l-1.45,1.22c-4.53-.02-6.81,1.82-4.94,4.17,1.21,1.61,6.17,3.41,12.16,5.82,4.61,1.54,5.77,5.11,3.17,8.6-1.8,2.58-5.3,4.03-10.35,4.44-5.42.37-10.83.31-16.25-.28-1.91.71-3.61,1.41-4.73,2.21"/>
  </g>
</svg>